G04 EAGLE Gerber RS-274X export*
G75*
%MOMM*%
%FSLAX34Y34*%
%LPD*%
%INBottom Copper*%
%IPPOS*%
%AMOC8*
5,1,8,0,0,1.08239X$1,22.5*%
G01*
%ADD10C,1.016000*%
%ADD11C,0.500000*%
%ADD12C,0.300000*%

G36*
X230037Y4322D02*
X230037Y4322D01*
X230163Y4324D01*
X234495Y4608D01*
X234615Y4627D01*
X234736Y4636D01*
X234905Y4672D01*
X234936Y4677D01*
X234950Y4682D01*
X234978Y4688D01*
X243345Y6930D01*
X243466Y6974D01*
X243475Y6976D01*
X243482Y6980D01*
X243535Y6999D01*
X243728Y7066D01*
X243752Y7079D01*
X243764Y7083D01*
X243790Y7099D01*
X243948Y7179D01*
X251450Y11511D01*
X251615Y11627D01*
X251784Y11742D01*
X251804Y11760D01*
X251815Y11768D01*
X251836Y11789D01*
X251967Y11908D01*
X258092Y18033D01*
X258222Y18188D01*
X258355Y18343D01*
X258370Y18365D01*
X258379Y18376D01*
X258393Y18401D01*
X258489Y18550D01*
X262821Y26052D01*
X262835Y26082D01*
X262853Y26110D01*
X262920Y26266D01*
X262994Y26419D01*
X263003Y26445D01*
X263008Y26457D01*
X263016Y26486D01*
X263018Y26492D01*
X263030Y26520D01*
X263038Y26555D01*
X263070Y26655D01*
X265312Y35022D01*
X265333Y35142D01*
X265364Y35260D01*
X265384Y35432D01*
X265389Y35462D01*
X265389Y35477D01*
X265392Y35505D01*
X265676Y39836D01*
X265675Y39874D01*
X265681Y40000D01*
X265681Y159814D01*
X265673Y159907D01*
X265674Y160001D01*
X265653Y160129D01*
X265641Y160259D01*
X265617Y160350D01*
X265601Y160442D01*
X265557Y160564D01*
X265523Y160690D01*
X265482Y160774D01*
X265451Y160862D01*
X265386Y160975D01*
X265330Y161093D01*
X265275Y161169D01*
X265228Y161249D01*
X265144Y161349D01*
X265068Y161455D01*
X265000Y161519D01*
X264940Y161591D01*
X264839Y161674D01*
X264746Y161764D01*
X264668Y161816D01*
X264596Y161875D01*
X264482Y161939D01*
X264374Y162011D01*
X264288Y162048D01*
X264206Y162094D01*
X264083Y162137D01*
X263963Y162188D01*
X263873Y162209D01*
X263784Y162240D01*
X263655Y162260D01*
X263528Y162290D01*
X263435Y162294D01*
X263343Y162308D01*
X263212Y162305D01*
X263082Y162312D01*
X262990Y162300D01*
X262896Y162297D01*
X262768Y162271D01*
X262639Y162254D01*
X262550Y162226D01*
X262459Y162207D01*
X262226Y162123D01*
X261617Y161871D01*
X258383Y161871D01*
X255396Y163109D01*
X253785Y164719D01*
X253642Y164839D01*
X253502Y164963D01*
X253470Y164982D01*
X253442Y165006D01*
X253280Y165098D01*
X253121Y165195D01*
X253086Y165208D01*
X253054Y165226D01*
X252878Y165288D01*
X252704Y165355D01*
X252667Y165362D01*
X252632Y165375D01*
X252448Y165404D01*
X252265Y165439D01*
X252215Y165442D01*
X252191Y165445D01*
X252154Y165444D01*
X252018Y165451D01*
X232919Y165451D01*
X232733Y165435D01*
X232547Y165423D01*
X232511Y165415D01*
X232474Y165411D01*
X232294Y165362D01*
X232113Y165318D01*
X232080Y165303D01*
X232044Y165293D01*
X231875Y165212D01*
X231705Y165136D01*
X231674Y165116D01*
X231641Y165100D01*
X231490Y164990D01*
X231336Y164885D01*
X231298Y164851D01*
X231279Y164838D01*
X231254Y164811D01*
X231152Y164719D01*
X156380Y89947D01*
X156260Y89803D01*
X156136Y89664D01*
X156117Y89632D01*
X156093Y89604D01*
X156001Y89442D01*
X155904Y89282D01*
X155891Y89248D01*
X155872Y89215D01*
X155811Y89040D01*
X155743Y88865D01*
X155737Y88829D01*
X155724Y88794D01*
X155695Y88610D01*
X155660Y88427D01*
X155657Y88376D01*
X155654Y88353D01*
X155654Y88316D01*
X155648Y88179D01*
X155648Y85902D01*
X154410Y82914D01*
X152123Y80628D01*
X149136Y79390D01*
X145902Y79390D01*
X142914Y80628D01*
X140628Y82914D01*
X139390Y85902D01*
X139390Y89136D01*
X140628Y92123D01*
X142914Y94410D01*
X145902Y95648D01*
X148179Y95648D01*
X148365Y95664D01*
X148551Y95675D01*
X148587Y95684D01*
X148624Y95687D01*
X148805Y95737D01*
X148985Y95781D01*
X149019Y95796D01*
X149055Y95806D01*
X149223Y95887D01*
X149394Y95962D01*
X149424Y95983D01*
X149458Y95999D01*
X149609Y96108D01*
X149763Y96213D01*
X149801Y96247D01*
X149820Y96261D01*
X149845Y96288D01*
X149947Y96380D01*
X167192Y113624D01*
X167252Y113696D01*
X167319Y113761D01*
X167395Y113867D01*
X167478Y113967D01*
X167524Y114048D01*
X167579Y114125D01*
X167634Y114242D01*
X167699Y114356D01*
X167730Y114444D01*
X167770Y114528D01*
X167804Y114654D01*
X167847Y114777D01*
X167862Y114869D01*
X167886Y114960D01*
X167897Y115089D01*
X167918Y115218D01*
X167916Y115312D01*
X167924Y115405D01*
X167911Y115534D01*
X167909Y115665D01*
X167890Y115756D01*
X167881Y115849D01*
X167846Y115975D01*
X167820Y116103D01*
X167786Y116189D01*
X167761Y116279D01*
X167704Y116397D01*
X167656Y116518D01*
X167606Y116597D01*
X167565Y116681D01*
X167488Y116786D01*
X167419Y116897D01*
X167357Y116966D01*
X167301Y117042D01*
X167207Y117131D01*
X167120Y117228D01*
X167045Y117285D01*
X166978Y117350D01*
X166869Y117421D01*
X166766Y117501D01*
X166682Y117544D01*
X166604Y117595D01*
X166381Y117701D01*
X165395Y118109D01*
X164515Y118989D01*
X164405Y119081D01*
X164301Y119180D01*
X164234Y119224D01*
X164172Y119275D01*
X164048Y119346D01*
X163928Y119425D01*
X163817Y119478D01*
X163784Y119496D01*
X163759Y119505D01*
X163704Y119531D01*
X161857Y120296D01*
X148434Y133719D01*
X148290Y133839D01*
X148151Y133963D01*
X148119Y133982D01*
X148091Y134006D01*
X147929Y134098D01*
X147769Y134195D01*
X147735Y134208D01*
X147702Y134226D01*
X147526Y134288D01*
X147352Y134355D01*
X147316Y134362D01*
X147281Y134375D01*
X147097Y134404D01*
X146914Y134439D01*
X146863Y134442D01*
X146840Y134445D01*
X146803Y134444D01*
X146666Y134451D01*
X116982Y134451D01*
X116796Y134435D01*
X116610Y134423D01*
X116574Y134415D01*
X116537Y134411D01*
X116357Y134362D01*
X116176Y134318D01*
X116142Y134303D01*
X116107Y134293D01*
X115938Y134212D01*
X115768Y134136D01*
X115737Y134116D01*
X115704Y134100D01*
X115553Y133990D01*
X115398Y133885D01*
X115361Y133851D01*
X115342Y133838D01*
X115317Y133811D01*
X115215Y133719D01*
X114604Y133109D01*
X111617Y131871D01*
X108383Y131871D01*
X105396Y133109D01*
X103109Y135396D01*
X101871Y138383D01*
X101871Y141617D01*
X103109Y144604D01*
X105396Y146891D01*
X108383Y148129D01*
X111617Y148129D01*
X114604Y146891D01*
X115215Y146281D01*
X115358Y146161D01*
X115498Y146037D01*
X115530Y146018D01*
X115558Y145994D01*
X115720Y145902D01*
X115879Y145805D01*
X115914Y145792D01*
X115946Y145774D01*
X116122Y145712D01*
X116296Y145645D01*
X116333Y145638D01*
X116368Y145625D01*
X116552Y145596D01*
X116735Y145561D01*
X116785Y145558D01*
X116809Y145555D01*
X116846Y145556D01*
X116982Y145549D01*
X151104Y145549D01*
X153143Y144704D01*
X164611Y133236D01*
X164616Y133232D01*
X164620Y133227D01*
X164790Y133086D01*
X164954Y132950D01*
X164959Y132947D01*
X164964Y132942D01*
X165157Y132834D01*
X165342Y132729D01*
X165348Y132727D01*
X165354Y132724D01*
X165559Y132653D01*
X165763Y132581D01*
X165770Y132580D01*
X165776Y132578D01*
X165990Y132545D01*
X166205Y132510D01*
X166211Y132510D01*
X166218Y132509D01*
X166436Y132515D01*
X166651Y132519D01*
X166657Y132520D01*
X166664Y132521D01*
X166879Y132565D01*
X167089Y132607D01*
X167095Y132610D01*
X167102Y132611D01*
X167335Y132694D01*
X168383Y133129D01*
X171617Y133129D01*
X174604Y131891D01*
X176891Y129605D01*
X177299Y128619D01*
X177343Y128536D01*
X177377Y128450D01*
X177446Y128339D01*
X177506Y128224D01*
X177564Y128150D01*
X177613Y128070D01*
X177701Y127974D01*
X177781Y127871D01*
X177850Y127809D01*
X177913Y127739D01*
X178016Y127660D01*
X178113Y127573D01*
X178193Y127524D01*
X178267Y127467D01*
X178383Y127407D01*
X178494Y127339D01*
X178581Y127305D01*
X178664Y127262D01*
X178788Y127224D01*
X178910Y127176D01*
X179002Y127158D01*
X179091Y127131D01*
X179220Y127115D01*
X179348Y127090D01*
X179442Y127089D01*
X179534Y127078D01*
X179664Y127085D01*
X179795Y127083D01*
X179887Y127099D01*
X179980Y127104D01*
X180107Y127135D01*
X180236Y127156D01*
X180324Y127188D01*
X180414Y127210D01*
X180533Y127263D01*
X180656Y127307D01*
X180737Y127353D01*
X180823Y127391D01*
X180931Y127465D01*
X181043Y127529D01*
X181115Y127590D01*
X181192Y127642D01*
X181376Y127808D01*
X227423Y173856D01*
X229095Y174549D01*
X252018Y174549D01*
X252204Y174565D01*
X252390Y174577D01*
X252426Y174585D01*
X252463Y174589D01*
X252643Y174638D01*
X252824Y174682D01*
X252858Y174697D01*
X252893Y174707D01*
X253062Y174788D01*
X253232Y174864D01*
X253263Y174884D01*
X253296Y174900D01*
X253447Y175010D01*
X253602Y175115D01*
X253639Y175149D01*
X253658Y175162D01*
X253683Y175189D01*
X253785Y175281D01*
X255396Y176891D01*
X258383Y178129D01*
X261617Y178129D01*
X262226Y177877D01*
X262315Y177849D01*
X262401Y177812D01*
X262527Y177782D01*
X262652Y177743D01*
X262745Y177732D01*
X262836Y177710D01*
X262966Y177704D01*
X263095Y177688D01*
X263189Y177693D01*
X263282Y177688D01*
X263411Y177705D01*
X263541Y177712D01*
X263632Y177734D01*
X263725Y177746D01*
X263849Y177786D01*
X263976Y177816D01*
X264061Y177853D01*
X264150Y177882D01*
X264265Y177943D01*
X264385Y177995D01*
X264463Y178047D01*
X264545Y178091D01*
X264648Y178171D01*
X264756Y178244D01*
X264823Y178309D01*
X264896Y178367D01*
X264983Y178465D01*
X265076Y178555D01*
X265131Y178631D01*
X265193Y178701D01*
X265260Y178812D01*
X265336Y178918D01*
X265376Y179003D01*
X265425Y179083D01*
X265472Y179204D01*
X265527Y179322D01*
X265552Y179412D01*
X265585Y179500D01*
X265610Y179628D01*
X265644Y179753D01*
X265651Y179846D01*
X265669Y179938D01*
X265681Y180186D01*
X265681Y330000D01*
X265678Y330037D01*
X265676Y330164D01*
X265392Y334495D01*
X265373Y334615D01*
X265364Y334736D01*
X265328Y334905D01*
X265323Y334936D01*
X265318Y334950D01*
X265312Y334978D01*
X263070Y343345D01*
X263001Y343535D01*
X262934Y343728D01*
X262921Y343752D01*
X262917Y343764D01*
X262901Y343790D01*
X262821Y343948D01*
X258489Y351450D01*
X258373Y351615D01*
X258258Y351784D01*
X258240Y351804D01*
X258232Y351815D01*
X258211Y351836D01*
X258092Y351967D01*
X251967Y358092D01*
X251812Y358222D01*
X251657Y358355D01*
X251635Y358370D01*
X251624Y358379D01*
X251599Y358393D01*
X251450Y358489D01*
X243948Y362821D01*
X243764Y362906D01*
X243581Y362994D01*
X243555Y363003D01*
X243543Y363008D01*
X243513Y363016D01*
X243345Y363070D01*
X234978Y365312D01*
X234858Y365333D01*
X234740Y365364D01*
X234568Y365384D01*
X234538Y365389D01*
X234523Y365389D01*
X234495Y365392D01*
X230163Y365676D01*
X230126Y365675D01*
X230000Y365681D01*
X40000Y365681D01*
X39963Y365678D01*
X39836Y365676D01*
X35505Y365392D01*
X35385Y365373D01*
X35264Y365364D01*
X35095Y365328D01*
X35064Y365323D01*
X35050Y365318D01*
X35022Y365312D01*
X26655Y363070D01*
X26465Y363001D01*
X26272Y362934D01*
X26248Y362921D01*
X26236Y362917D01*
X26210Y362901D01*
X26052Y362821D01*
X18550Y358489D01*
X18385Y358373D01*
X18216Y358258D01*
X18196Y358240D01*
X18185Y358232D01*
X18164Y358211D01*
X18033Y358092D01*
X11908Y351967D01*
X11777Y351810D01*
X11645Y351657D01*
X11630Y351635D01*
X11621Y351624D01*
X11607Y351599D01*
X11511Y351450D01*
X7179Y343948D01*
X7094Y343764D01*
X7006Y343581D01*
X6997Y343555D01*
X6992Y343543D01*
X6984Y343513D01*
X6930Y343345D01*
X4688Y334978D01*
X4667Y334858D01*
X4636Y334740D01*
X4616Y334568D01*
X4611Y334538D01*
X4611Y334523D01*
X4608Y334495D01*
X4324Y330163D01*
X4325Y330126D01*
X4319Y330000D01*
X4319Y40000D01*
X4322Y39963D01*
X4324Y39836D01*
X4608Y35505D01*
X4627Y35385D01*
X4636Y35264D01*
X4672Y35095D01*
X4677Y35064D01*
X4682Y35050D01*
X4688Y35022D01*
X6930Y26655D01*
X6999Y26465D01*
X7066Y26272D01*
X7079Y26248D01*
X7083Y26236D01*
X7099Y26210D01*
X7179Y26052D01*
X11511Y18550D01*
X11627Y18385D01*
X11742Y18216D01*
X11760Y18196D01*
X11768Y18185D01*
X11789Y18164D01*
X11908Y18033D01*
X18033Y11908D01*
X18189Y11777D01*
X18343Y11645D01*
X18365Y11630D01*
X18376Y11621D01*
X18402Y11607D01*
X18550Y11511D01*
X26052Y7179D01*
X26235Y7095D01*
X26419Y7006D01*
X26445Y6997D01*
X26457Y6992D01*
X26486Y6984D01*
X26655Y6930D01*
X35022Y4688D01*
X35142Y4667D01*
X35260Y4636D01*
X35432Y4616D01*
X35462Y4611D01*
X35477Y4611D01*
X35505Y4608D01*
X39837Y4324D01*
X39874Y4325D01*
X40000Y4319D01*
X230000Y4319D01*
X230037Y4322D01*
G37*
%LPC*%
G36*
X36410Y311951D02*
X36410Y311951D01*
X29776Y314699D01*
X24699Y319776D01*
X21951Y326410D01*
X21951Y333590D01*
X24699Y340224D01*
X29776Y345301D01*
X36410Y348049D01*
X43590Y348049D01*
X50224Y345301D01*
X55301Y340224D01*
X58049Y333590D01*
X58049Y326410D01*
X55301Y319776D01*
X50224Y314699D01*
X43590Y311951D01*
X36410Y311951D01*
G37*
%LPD*%
%LPC*%
G36*
X226410Y311951D02*
X226410Y311951D01*
X219776Y314699D01*
X214699Y319776D01*
X211951Y326410D01*
X211951Y333590D01*
X214699Y340224D01*
X219776Y345301D01*
X226410Y348049D01*
X233590Y348049D01*
X240224Y345301D01*
X245301Y340224D01*
X248049Y333590D01*
X248049Y326410D01*
X245301Y319776D01*
X240224Y314699D01*
X233590Y311951D01*
X226410Y311951D01*
G37*
%LPD*%
%LPC*%
G36*
X226410Y21951D02*
X226410Y21951D01*
X219776Y24699D01*
X214699Y29776D01*
X211951Y36410D01*
X211951Y43590D01*
X214699Y50224D01*
X219776Y55301D01*
X226410Y58049D01*
X233590Y58049D01*
X240224Y55301D01*
X245301Y50224D01*
X248049Y43590D01*
X248049Y36410D01*
X245301Y29776D01*
X240224Y24699D01*
X233590Y21951D01*
X226410Y21951D01*
G37*
%LPD*%
%LPC*%
G36*
X36410Y21951D02*
X36410Y21951D01*
X29776Y24699D01*
X24699Y29776D01*
X21951Y36410D01*
X21951Y43590D01*
X24699Y50224D01*
X29776Y55301D01*
X36410Y58049D01*
X43590Y58049D01*
X50224Y55301D01*
X55301Y50224D01*
X58049Y43590D01*
X58049Y36410D01*
X55301Y29776D01*
X50224Y24699D01*
X43590Y21951D01*
X36410Y21951D01*
G37*
%LPD*%
%LPC*%
G36*
X107122Y239403D02*
X107122Y239403D01*
X107107Y239404D01*
X107093Y239408D01*
X106885Y239417D01*
X106826Y239420D01*
X106592Y239488D01*
X106462Y239514D01*
X106334Y239549D01*
X106243Y239557D01*
X106154Y239575D01*
X106021Y239577D01*
X105889Y239588D01*
X105743Y239581D01*
X105707Y239582D01*
X105691Y239579D01*
X105629Y239603D01*
X105559Y239616D01*
X105491Y239638D01*
X105340Y239658D01*
X105191Y239687D01*
X105085Y239692D01*
X105049Y239697D01*
X105018Y239695D01*
X104964Y239698D01*
X104956Y239702D01*
X104945Y239704D01*
X104935Y239709D01*
X104730Y239761D01*
X104523Y239814D01*
X104512Y239815D01*
X104502Y239818D01*
X104256Y239845D01*
X103966Y239861D01*
X103925Y239869D01*
X103896Y239871D01*
X103882Y239873D01*
X103850Y239873D01*
X103678Y239881D01*
X96039Y239881D01*
X95907Y239870D01*
X95775Y239867D01*
X95630Y239845D01*
X95594Y239842D01*
X95574Y239836D01*
X95530Y239829D01*
X94724Y239662D01*
X94586Y239712D01*
X94539Y239720D01*
X94492Y239735D01*
X94319Y239758D01*
X94146Y239788D01*
X94098Y239788D01*
X94050Y239794D01*
X93875Y239786D01*
X93700Y239785D01*
X93633Y239775D01*
X93603Y239774D01*
X93567Y239766D01*
X93455Y239749D01*
X93113Y239681D01*
X92980Y239726D01*
X92825Y239785D01*
X92767Y239796D01*
X92713Y239815D01*
X92613Y239829D01*
X92053Y240389D01*
X91960Y240467D01*
X91874Y240552D01*
X91733Y240656D01*
X91710Y240676D01*
X91698Y240683D01*
X91675Y240699D01*
X91024Y241135D01*
X90961Y241261D01*
X90893Y241413D01*
X90861Y241461D01*
X90835Y241513D01*
X90775Y241593D01*
X90775Y242386D01*
X90764Y242506D01*
X90763Y242627D01*
X90738Y242800D01*
X90735Y242830D01*
X90731Y242844D01*
X90727Y242872D01*
X90575Y243640D01*
X90619Y243774D01*
X90679Y243929D01*
X90690Y243986D01*
X90708Y244041D01*
X90722Y244140D01*
X91282Y244701D01*
X91360Y244794D01*
X91445Y244880D01*
X91549Y245020D01*
X91569Y245044D01*
X91576Y245056D01*
X91592Y245078D01*
X91991Y245674D01*
X92030Y245746D01*
X92078Y245813D01*
X92137Y245942D01*
X92205Y246066D01*
X92231Y246144D01*
X92266Y246219D01*
X92302Y246355D01*
X92346Y246490D01*
X92358Y246571D01*
X92379Y246651D01*
X92390Y246792D01*
X92410Y246932D01*
X92407Y247014D01*
X92413Y247096D01*
X92398Y247237D01*
X92393Y247378D01*
X92376Y247459D01*
X92367Y247541D01*
X92328Y247676D01*
X92298Y247815D01*
X92266Y247891D01*
X92243Y247970D01*
X92180Y248096D01*
X92126Y248227D01*
X92081Y248296D01*
X92045Y248370D01*
X91960Y248483D01*
X91883Y248602D01*
X91827Y248662D01*
X91778Y248728D01*
X91604Y248905D01*
X91004Y249456D01*
X91004Y250677D01*
X91001Y250708D01*
X91002Y250784D01*
X90950Y252004D01*
X91813Y252867D01*
X91833Y252891D01*
X91887Y252944D01*
X92713Y253844D01*
X93934Y253844D01*
X93965Y253847D01*
X94040Y253846D01*
X94202Y253853D01*
X94334Y253871D01*
X94467Y253879D01*
X94555Y253900D01*
X94644Y253912D01*
X94772Y253953D01*
X94902Y253984D01*
X94984Y254021D01*
X95070Y254049D01*
X95188Y254112D01*
X95310Y254166D01*
X95384Y254216D01*
X95464Y254259D01*
X95569Y254342D01*
X95679Y254417D01*
X95786Y254513D01*
X95814Y254536D01*
X95829Y254552D01*
X95863Y254583D01*
X98114Y256834D01*
X105599Y256834D01*
X107818Y254616D01*
X107910Y254539D01*
X107995Y254455D01*
X108081Y254396D01*
X108160Y254329D01*
X108265Y254270D01*
X108364Y254202D01*
X108459Y254160D01*
X108549Y254109D01*
X108662Y254069D01*
X108771Y254020D01*
X108872Y253995D01*
X108970Y253960D01*
X109089Y253941D01*
X109205Y253913D01*
X109260Y253907D01*
X109373Y253840D01*
X109535Y253739D01*
X109565Y253727D01*
X109593Y253710D01*
X109772Y253644D01*
X109950Y253573D01*
X109992Y253562D01*
X110011Y253555D01*
X110047Y253549D01*
X110190Y253514D01*
X110387Y253475D01*
X110579Y253456D01*
X110770Y253431D01*
X110794Y253432D01*
X110822Y253431D01*
X110831Y253430D01*
X110838Y253430D01*
X110923Y253428D01*
X111062Y253414D01*
X111145Y253421D01*
X111229Y253418D01*
X111368Y253439D01*
X111507Y253450D01*
X111588Y253472D01*
X111671Y253484D01*
X111803Y253529D01*
X111939Y253565D01*
X112014Y253601D01*
X112094Y253628D01*
X112216Y253696D01*
X112335Y253752D01*
X112390Y253764D01*
X112593Y253806D01*
X112609Y253812D01*
X112625Y253816D01*
X112816Y253895D01*
X113007Y253972D01*
X113027Y253983D01*
X113038Y253988D01*
X113060Y254002D01*
X113222Y254095D01*
X113583Y254327D01*
X113651Y254356D01*
X113658Y254361D01*
X113666Y254365D01*
X113842Y254484D01*
X114022Y254605D01*
X114028Y254611D01*
X114035Y254616D01*
X114219Y254782D01*
X116272Y256834D01*
X120093Y256834D01*
X121878Y255048D01*
X121878Y241667D01*
X120093Y239881D01*
X117552Y239881D01*
X117547Y239881D01*
X117538Y239881D01*
X115439Y239870D01*
X115424Y239872D01*
X115386Y239871D01*
X115265Y239877D01*
X114613Y239879D01*
X114585Y239877D01*
X112319Y239881D01*
X112317Y239881D01*
X112314Y239881D01*
X110614Y239881D01*
X110524Y239913D01*
X110434Y239928D01*
X110347Y239952D01*
X110214Y239964D01*
X110083Y239985D01*
X109992Y239984D01*
X109902Y239992D01*
X109655Y239979D01*
X109561Y239970D01*
X109397Y239938D01*
X109232Y239914D01*
X109178Y239896D01*
X109122Y239886D01*
X108966Y239826D01*
X108808Y239773D01*
X108736Y239737D01*
X108705Y239725D01*
X108675Y239706D01*
X108587Y239662D01*
X108474Y239599D01*
X108414Y239602D01*
X108258Y239598D01*
X108101Y239601D01*
X108035Y239591D01*
X107968Y239588D01*
X107815Y239556D01*
X107660Y239531D01*
X107566Y239503D01*
X107531Y239495D01*
X107501Y239483D01*
X107423Y239459D01*
X107229Y239389D01*
X107211Y239387D01*
X107206Y239386D01*
X107200Y239386D01*
X107199Y239385D01*
X107122Y239403D01*
G37*
%LPD*%
%LPC*%
G36*
X168926Y239881D02*
X168926Y239881D01*
X167140Y241667D01*
X167140Y248365D01*
X168513Y249737D01*
X168648Y249899D01*
X168783Y250058D01*
X168790Y250070D01*
X168799Y250080D01*
X168903Y250262D01*
X169008Y250444D01*
X169013Y250457D01*
X169020Y250468D01*
X169090Y250667D01*
X169161Y250863D01*
X169163Y250877D01*
X169168Y250890D01*
X169201Y251098D01*
X169237Y251304D01*
X169237Y251317D01*
X169239Y251331D01*
X169235Y251541D01*
X169233Y251750D01*
X169230Y251764D01*
X169230Y251778D01*
X169188Y251983D01*
X169149Y252189D01*
X169144Y252202D01*
X169142Y252215D01*
X169064Y252410D01*
X168989Y252606D01*
X168982Y252618D01*
X168977Y252631D01*
X168866Y252809D01*
X168757Y252988D01*
X168746Y253002D01*
X168741Y253010D01*
X168725Y253027D01*
X168600Y253180D01*
X168383Y253421D01*
X168363Y253438D01*
X168348Y253459D01*
X168330Y253474D01*
X168295Y253513D01*
X167437Y254371D01*
X167499Y255583D01*
X167498Y255617D01*
X167502Y255710D01*
X167502Y260483D01*
X169288Y262269D01*
X185573Y262269D01*
X187359Y260483D01*
X187359Y253779D01*
X186528Y252948D01*
X186528Y252947D01*
X186527Y252946D01*
X186380Y252770D01*
X186242Y252605D01*
X186241Y252604D01*
X186241Y252603D01*
X186138Y252422D01*
X186021Y252216D01*
X186021Y252215D01*
X186020Y252214D01*
X185946Y252001D01*
X185873Y251795D01*
X185873Y251794D01*
X185873Y251793D01*
X185839Y251582D01*
X185802Y251354D01*
X185802Y251353D01*
X185802Y251351D01*
X185808Y251098D01*
X185811Y250907D01*
X185812Y250906D01*
X185812Y250905D01*
X185863Y250652D01*
X185900Y250470D01*
X185900Y250468D01*
X185900Y250467D01*
X185988Y250246D01*
X186064Y250054D01*
X186065Y250053D01*
X186066Y250052D01*
X186199Y249838D01*
X186301Y249675D01*
X186301Y249674D01*
X186302Y249673D01*
X186461Y249483D01*
X186908Y249000D01*
X186930Y248980D01*
X186975Y248930D01*
X187841Y248064D01*
X187794Y246840D01*
X187795Y246811D01*
X187792Y246743D01*
X187792Y241667D01*
X186006Y239881D01*
X168926Y239881D01*
G37*
%LPD*%
G36*
X184748Y242930D02*
X184748Y242930D01*
X184748Y246851D01*
X184747Y246852D01*
X184747Y246854D01*
X177179Y255036D01*
X184311Y255036D01*
X184316Y255041D01*
X184315Y255041D01*
X184316Y255041D01*
X184316Y259220D01*
X184311Y259225D01*
X170551Y259225D01*
X170546Y259221D01*
X170546Y259220D01*
X170546Y255569D01*
X170547Y255567D01*
X170547Y255565D01*
X178184Y247107D01*
X170189Y247107D01*
X170184Y247103D01*
X170185Y247102D01*
X170184Y247102D01*
X170184Y242930D01*
X170189Y242925D01*
X170189Y242926D01*
X170189Y242925D01*
X184743Y242925D01*
X184748Y242930D01*
G37*
%LPC*%
G36*
X104767Y53541D02*
X104767Y53541D01*
X102452Y54500D01*
X100680Y56272D01*
X99721Y58587D01*
X99721Y61093D01*
X100680Y63408D01*
X102452Y65180D01*
X104767Y66139D01*
X107273Y66139D01*
X109588Y65180D01*
X111360Y63408D01*
X112319Y61093D01*
X112319Y58587D01*
X111360Y56272D01*
X109588Y54500D01*
X107273Y53541D01*
X104767Y53541D01*
G37*
%LPD*%
%LPC*%
G36*
X162567Y53541D02*
X162567Y53541D01*
X160252Y54500D01*
X158480Y56272D01*
X157521Y58587D01*
X157521Y61093D01*
X158480Y63408D01*
X160252Y65180D01*
X162567Y66139D01*
X165073Y66139D01*
X167388Y65180D01*
X169160Y63408D01*
X170119Y61093D01*
X170119Y58587D01*
X169160Y56272D01*
X167388Y54500D01*
X165073Y53541D01*
X162567Y53541D01*
G37*
%LPD*%
G36*
X106878Y242742D02*
X106878Y242742D01*
X106879Y242741D01*
X106882Y242743D01*
X106891Y242743D01*
X106892Y242744D01*
X106893Y242743D01*
X106899Y242746D01*
X106901Y242746D01*
X106902Y242747D01*
X106903Y242747D01*
X106909Y242750D01*
X106911Y242750D01*
X106913Y242751D01*
X106914Y242750D01*
X106920Y242753D01*
X106929Y242753D01*
X106934Y242757D01*
X106933Y242758D01*
X106934Y242758D01*
X106934Y243941D01*
X106929Y243946D01*
X106928Y243946D01*
X106911Y243945D01*
X106911Y243944D01*
X106910Y243944D01*
X106853Y243931D01*
X106853Y243930D01*
X106839Y243925D01*
X106826Y243922D01*
X106825Y243922D01*
X106798Y243912D01*
X106740Y243896D01*
X106709Y243893D01*
X106673Y243894D01*
X106671Y243894D01*
X106533Y243896D01*
X106089Y243958D01*
X105823Y244037D01*
X105526Y244182D01*
X105314Y244328D01*
X105170Y244448D01*
X104995Y244627D01*
X104804Y244876D01*
X104675Y245098D01*
X104566Y245332D01*
X104458Y245645D01*
X104355Y246109D01*
X104300Y246581D01*
X104319Y247350D01*
X104320Y247356D01*
X104322Y247366D01*
X104322Y247371D01*
X104324Y247381D01*
X104326Y247391D01*
X104328Y247406D01*
X104330Y247416D01*
X104332Y247431D01*
X104334Y247441D01*
X104336Y247451D01*
X104336Y247456D01*
X104337Y247456D01*
X104336Y247456D01*
X104338Y247466D01*
X104340Y247475D01*
X104340Y247476D01*
X104342Y247490D01*
X104344Y247500D01*
X104346Y247510D01*
X104346Y247515D01*
X104348Y247525D01*
X104350Y247535D01*
X104351Y247540D01*
X104352Y247550D01*
X104354Y247560D01*
X104356Y247575D01*
X104358Y247585D01*
X104360Y247595D01*
X104361Y247600D01*
X104362Y247610D01*
X104364Y247620D01*
X104366Y247634D01*
X104366Y247635D01*
X104368Y247644D01*
X104371Y247659D01*
X104372Y247669D01*
X104374Y247679D01*
X104375Y247684D01*
X104376Y247694D01*
X104378Y247704D01*
X104381Y247719D01*
X104382Y247729D01*
X104385Y247744D01*
X104386Y247754D01*
X104388Y247764D01*
X104389Y247769D01*
X104390Y247779D01*
X104391Y247779D01*
X104390Y247779D01*
X104392Y247788D01*
X104392Y247789D01*
X104395Y247803D01*
X104396Y247813D01*
X104398Y247823D01*
X104399Y247828D01*
X104400Y247833D01*
X104530Y248292D01*
X104692Y248650D01*
X104860Y248920D01*
X105063Y249159D01*
X105404Y249444D01*
X105749Y249638D01*
X105941Y249712D01*
X106149Y249767D01*
X106604Y249829D01*
X106932Y249829D01*
X107312Y249781D01*
X107583Y249709D01*
X107825Y249602D01*
X108147Y249393D01*
X108332Y249228D01*
X108497Y249042D01*
X108673Y248781D01*
X108864Y248372D01*
X108984Y247985D01*
X109091Y247360D01*
X109120Y246859D01*
X109118Y246821D01*
X109116Y246751D01*
X109107Y246528D01*
X109104Y246458D01*
X109101Y246389D01*
X109101Y246386D01*
X109041Y245985D01*
X108896Y245466D01*
X108738Y245110D01*
X108535Y244790D01*
X108377Y244594D01*
X108198Y244419D01*
X107889Y244199D01*
X107695Y244099D01*
X107609Y244068D01*
X107476Y244034D01*
X107038Y243970D01*
X107034Y243966D01*
X107034Y243965D01*
X107034Y242780D01*
X107038Y242775D01*
X107039Y242776D01*
X107039Y242775D01*
X107708Y242843D01*
X108061Y242924D01*
X108062Y242924D01*
X108388Y243041D01*
X108867Y243310D01*
X108868Y243310D01*
X109155Y243529D01*
X109156Y243530D01*
X109537Y243910D01*
X109537Y243911D01*
X109804Y244278D01*
X110030Y244680D01*
X110273Y245297D01*
X110274Y245298D01*
X110442Y246068D01*
X110444Y246084D01*
X110446Y246119D01*
X110449Y246154D01*
X110453Y246203D01*
X110453Y246204D01*
X110456Y246238D01*
X110458Y246273D01*
X110461Y246308D01*
X110465Y246357D01*
X110465Y246358D01*
X110467Y246392D01*
X110468Y246392D01*
X110467Y246392D01*
X110470Y246427D01*
X110473Y246462D01*
X110477Y246512D01*
X110479Y246546D01*
X110482Y246581D01*
X110485Y246616D01*
X110489Y246666D01*
X110491Y246700D01*
X110494Y246735D01*
X110497Y246770D01*
X110498Y246781D01*
X110497Y246782D01*
X110498Y246782D01*
X110456Y247597D01*
X110332Y248271D01*
X110332Y248272D01*
X110118Y248902D01*
X110118Y248903D01*
X109913Y249314D01*
X109913Y249315D01*
X109663Y249691D01*
X109370Y250029D01*
X109369Y250029D01*
X109102Y250265D01*
X108881Y250424D01*
X108395Y250689D01*
X108394Y250690D01*
X107941Y250850D01*
X107445Y250947D01*
X107444Y250946D01*
X107444Y250947D01*
X107396Y250949D01*
X107304Y250954D01*
X107303Y250954D01*
X107211Y250959D01*
X107118Y250964D01*
X107025Y250969D01*
X106933Y250974D01*
X106932Y250974D01*
X106865Y250978D01*
X106865Y250977D01*
X106864Y250978D01*
X106380Y250938D01*
X105899Y250835D01*
X105899Y250834D01*
X105418Y250657D01*
X105417Y250657D01*
X105085Y250471D01*
X105085Y250470D01*
X105084Y250470D01*
X104850Y250303D01*
X104633Y250103D01*
X104632Y250103D01*
X104474Y249913D01*
X104473Y249913D01*
X104363Y249744D01*
X104341Y249744D01*
X104341Y253786D01*
X104337Y253791D01*
X104337Y253790D01*
X104336Y253791D01*
X103041Y253791D01*
X103036Y253786D01*
X103036Y242930D01*
X103040Y242925D01*
X103041Y242926D01*
X103041Y242925D01*
X104336Y242925D01*
X104341Y242930D01*
X104341Y243990D01*
X104362Y243990D01*
X104445Y243834D01*
X104446Y243834D01*
X104542Y243687D01*
X104543Y243687D01*
X104542Y243687D01*
X104651Y243551D01*
X104651Y243550D01*
X104903Y243312D01*
X104904Y243312D01*
X105046Y243210D01*
X105047Y243210D01*
X105279Y243076D01*
X105280Y243076D01*
X105280Y243075D01*
X105537Y242967D01*
X105992Y242834D01*
X106373Y242770D01*
X106374Y242770D01*
X106877Y242741D01*
X106878Y242742D01*
G37*
G36*
X113615Y242930D02*
X113615Y242930D01*
X113629Y248516D01*
X113698Y248832D01*
X113749Y248976D01*
X113816Y249110D01*
X113897Y249235D01*
X113989Y249350D01*
X114094Y249457D01*
X114211Y249549D01*
X114338Y249628D01*
X114474Y249695D01*
X114619Y249750D01*
X114943Y249819D01*
X115281Y249833D01*
X115696Y249798D01*
X116007Y249728D01*
X116287Y249623D01*
X116629Y249427D01*
X116840Y249254D01*
X117024Y249049D01*
X117180Y248819D01*
X117351Y248461D01*
X117423Y248238D01*
X117502Y247818D01*
X117529Y242930D01*
X117534Y242925D01*
X117534Y242926D01*
X117534Y242925D01*
X118830Y242925D01*
X118835Y242930D01*
X118834Y242930D01*
X118835Y242930D01*
X118835Y253786D01*
X118830Y253791D01*
X118830Y253790D01*
X118830Y253791D01*
X117534Y253791D01*
X117529Y253786D01*
X117530Y253786D01*
X117529Y253786D01*
X117529Y249639D01*
X117510Y249639D01*
X117377Y249888D01*
X117376Y249888D01*
X117376Y249889D01*
X117239Y250077D01*
X117238Y250077D01*
X117040Y250279D01*
X116895Y250401D01*
X116895Y250402D01*
X116622Y250582D01*
X116622Y250583D01*
X116331Y250724D01*
X116330Y250724D01*
X115889Y250872D01*
X115888Y250873D01*
X115339Y250964D01*
X115338Y250964D01*
X115070Y250965D01*
X115069Y250965D01*
X115057Y250965D01*
X114654Y250966D01*
X114654Y250965D01*
X114654Y250966D01*
X114235Y250912D01*
X114234Y250912D01*
X113866Y250816D01*
X113866Y250815D01*
X113865Y250815D01*
X113486Y250648D01*
X113485Y250648D01*
X113212Y250472D01*
X113211Y250472D01*
X113066Y250351D01*
X112856Y250123D01*
X112855Y250123D01*
X112680Y249865D01*
X112680Y249864D01*
X112679Y249864D01*
X112567Y249638D01*
X112479Y249395D01*
X112479Y249394D01*
X112376Y248926D01*
X112376Y248925D01*
X112326Y248489D01*
X112314Y242930D01*
X112318Y242925D01*
X112318Y242926D01*
X112318Y242925D01*
X113610Y242925D01*
X113615Y242930D01*
G37*
G36*
X95471Y242927D02*
X95471Y242927D01*
X95473Y242927D01*
X98160Y247026D01*
X99372Y245908D01*
X99372Y242930D01*
X99376Y242925D01*
X99377Y242926D01*
X99377Y242925D01*
X100669Y242925D01*
X100674Y242930D01*
X100674Y253786D01*
X100670Y253791D01*
X100669Y253790D01*
X100669Y253791D01*
X99377Y253791D01*
X99372Y253786D01*
X99372Y247365D01*
X95791Y250799D01*
X95788Y250799D01*
X95787Y250800D01*
X94053Y250800D01*
X94051Y250799D01*
X94049Y250799D01*
X94049Y250797D01*
X94048Y250796D01*
X94049Y250794D01*
X94049Y250792D01*
X97164Y247932D01*
X93819Y242933D01*
X93820Y242932D01*
X93819Y242931D01*
X93820Y242929D01*
X93820Y242926D01*
X93822Y242927D01*
X93823Y242925D01*
X95469Y242925D01*
X95471Y242927D01*
G37*
D10*
X190000Y100000D03*
X15000Y70000D03*
X120000Y180000D03*
X92000Y104000D03*
X130000Y30000D03*
X250000Y260000D03*
X61000Y119000D03*
X105000Y295000D03*
X210000Y90000D03*
X250000Y80000D03*
X15000Y153890D03*
X20000Y240000D03*
X93300Y82300D03*
X110000Y140000D03*
D11*
X150000Y140000D01*
X165000Y125000D01*
X170000Y125000D01*
D10*
X170000Y125000D03*
X147519Y87519D03*
D12*
X230000Y170000D01*
X260000Y170000D01*
D10*
X260000Y170000D03*
M02*
