G04 EAGLE Gerber RS-274X export*
G75*
%MOMM*%
%FSLAX34Y34*%
%LPD*%
%IN*%
%IPPOS*%
%AMOC8*
5,1,8,0,0,1.08239X$1,22.5*%
G01*
%ADD10C,0.254000*%


D10*
X0Y40000D02*
X152Y36514D01*
X608Y33054D01*
X1363Y29647D01*
X2412Y26319D01*
X3748Y23095D01*
X5359Y20000D01*
X7234Y17057D01*
X9358Y14289D01*
X11716Y11716D01*
X14289Y9358D01*
X17057Y7234D01*
X20000Y5359D01*
X23095Y3748D01*
X26319Y2412D01*
X29647Y1363D01*
X33054Y608D01*
X36514Y152D01*
X40000Y0D01*
X230000Y0D01*
X233486Y152D01*
X236946Y608D01*
X240353Y1363D01*
X243681Y2412D01*
X246905Y3748D01*
X250000Y5359D01*
X252943Y7234D01*
X255712Y9358D01*
X258284Y11716D01*
X260642Y14289D01*
X262766Y17057D01*
X264641Y20000D01*
X266252Y23095D01*
X267588Y26319D01*
X268637Y29647D01*
X269392Y33054D01*
X269848Y36514D01*
X270000Y40000D01*
X270000Y330000D01*
X269848Y333486D01*
X269392Y336946D01*
X268637Y340353D01*
X267588Y343681D01*
X266252Y346905D01*
X264641Y350000D01*
X262766Y352943D01*
X260642Y355712D01*
X258284Y358284D01*
X255712Y360642D01*
X252943Y362766D01*
X250000Y364641D01*
X246905Y366252D01*
X243681Y367588D01*
X240353Y368637D01*
X236946Y369392D01*
X233486Y369848D01*
X230000Y370000D01*
X40000Y370000D01*
X36514Y369848D01*
X33054Y369392D01*
X29647Y368637D01*
X26319Y367588D01*
X23095Y366252D01*
X20000Y364641D01*
X17057Y362766D01*
X14289Y360642D01*
X11716Y358284D01*
X9358Y355712D01*
X7234Y352943D01*
X5359Y350000D01*
X3748Y346905D01*
X2412Y343681D01*
X1363Y340353D01*
X608Y336946D01*
X152Y333486D01*
X0Y330000D01*
X0Y40000D01*
X109270Y59627D02*
X109214Y59205D01*
X109104Y58793D01*
X108941Y58399D01*
X108728Y58031D01*
X108469Y57693D01*
X108167Y57391D01*
X107829Y57132D01*
X107461Y56919D01*
X107067Y56756D01*
X106655Y56646D01*
X106233Y56590D01*
X105807Y56590D01*
X105385Y56646D01*
X104973Y56756D01*
X104579Y56919D01*
X104211Y57132D01*
X103873Y57391D01*
X103571Y57693D01*
X103312Y58031D01*
X103099Y58399D01*
X102936Y58793D01*
X102826Y59205D01*
X102770Y59627D01*
X102770Y60053D01*
X102826Y60475D01*
X102936Y60887D01*
X103099Y61281D01*
X103312Y61649D01*
X103571Y61987D01*
X103873Y62289D01*
X104211Y62548D01*
X104579Y62761D01*
X104973Y62924D01*
X105385Y63034D01*
X105807Y63090D01*
X106233Y63090D01*
X106655Y63034D01*
X107067Y62924D01*
X107461Y62761D01*
X107829Y62548D01*
X108167Y62289D01*
X108469Y61987D01*
X108728Y61649D01*
X108941Y61281D01*
X109104Y60887D01*
X109214Y60475D01*
X109270Y60053D01*
X109270Y59627D01*
X167070Y59627D02*
X167014Y59205D01*
X166904Y58793D01*
X166741Y58399D01*
X166528Y58031D01*
X166269Y57693D01*
X165967Y57391D01*
X165629Y57132D01*
X165261Y56919D01*
X164867Y56756D01*
X164455Y56646D01*
X164033Y56590D01*
X163607Y56590D01*
X163185Y56646D01*
X162773Y56756D01*
X162379Y56919D01*
X162011Y57132D01*
X161673Y57391D01*
X161371Y57693D01*
X161112Y58031D01*
X160899Y58399D01*
X160736Y58793D01*
X160626Y59205D01*
X160570Y59627D01*
X160570Y60053D01*
X160626Y60475D01*
X160736Y60887D01*
X160899Y61281D01*
X161112Y61649D01*
X161371Y61987D01*
X161673Y62289D01*
X162011Y62548D01*
X162379Y62761D01*
X162773Y62924D01*
X163185Y63034D01*
X163607Y63090D01*
X164033Y63090D01*
X164455Y63034D01*
X164867Y62924D01*
X165261Y62761D01*
X165629Y62548D01*
X165967Y62289D01*
X166269Y61987D01*
X166528Y61649D01*
X166741Y61281D01*
X166904Y60887D01*
X167014Y60475D01*
X167070Y60053D01*
X167070Y59627D01*
X245000Y329464D02*
X244924Y328396D01*
X244771Y327335D01*
X244543Y326288D01*
X244241Y325260D01*
X243867Y324256D01*
X243422Y323281D01*
X242908Y322341D01*
X242329Y321440D01*
X241687Y320582D01*
X240985Y319772D01*
X240228Y319015D01*
X239418Y318313D01*
X238560Y317671D01*
X237659Y317092D01*
X236719Y316578D01*
X235744Y316133D01*
X234740Y315759D01*
X233712Y315457D01*
X232665Y315229D01*
X231604Y315076D01*
X230536Y315000D01*
X229464Y315000D01*
X228396Y315076D01*
X227335Y315229D01*
X226288Y315457D01*
X225260Y315759D01*
X224256Y316133D01*
X223281Y316578D01*
X222341Y317092D01*
X221440Y317671D01*
X220582Y318313D01*
X219772Y319015D01*
X219015Y319772D01*
X218313Y320582D01*
X217671Y321440D01*
X217092Y322341D01*
X216578Y323281D01*
X216133Y324256D01*
X215759Y325260D01*
X215457Y326288D01*
X215229Y327335D01*
X215076Y328396D01*
X215000Y329464D01*
X215000Y330536D01*
X215076Y331604D01*
X215229Y332665D01*
X215457Y333712D01*
X215759Y334740D01*
X216133Y335744D01*
X216578Y336719D01*
X217092Y337659D01*
X217671Y338560D01*
X218313Y339418D01*
X219015Y340228D01*
X219772Y340985D01*
X220582Y341687D01*
X221440Y342329D01*
X222341Y342908D01*
X223281Y343422D01*
X224256Y343867D01*
X225260Y344241D01*
X226288Y344543D01*
X227335Y344771D01*
X228396Y344924D01*
X229464Y345000D01*
X230536Y345000D01*
X231604Y344924D01*
X232665Y344771D01*
X233712Y344543D01*
X234740Y344241D01*
X235744Y343867D01*
X236719Y343422D01*
X237659Y342908D01*
X238560Y342329D01*
X239418Y341687D01*
X240228Y340985D01*
X240985Y340228D01*
X241687Y339418D01*
X242329Y338560D01*
X242908Y337659D01*
X243422Y336719D01*
X243867Y335744D01*
X244241Y334740D01*
X244543Y333712D01*
X244771Y332665D01*
X244924Y331604D01*
X245000Y330536D01*
X245000Y329464D01*
X245000Y39464D02*
X244924Y38396D01*
X244771Y37335D01*
X244543Y36288D01*
X244241Y35260D01*
X243867Y34256D01*
X243422Y33281D01*
X242908Y32341D01*
X242329Y31440D01*
X241687Y30582D01*
X240985Y29772D01*
X240228Y29015D01*
X239418Y28313D01*
X238560Y27671D01*
X237659Y27092D01*
X236719Y26578D01*
X235744Y26133D01*
X234740Y25759D01*
X233712Y25457D01*
X232665Y25229D01*
X231604Y25076D01*
X230536Y25000D01*
X229464Y25000D01*
X228396Y25076D01*
X227335Y25229D01*
X226288Y25457D01*
X225260Y25759D01*
X224256Y26133D01*
X223281Y26578D01*
X222341Y27092D01*
X221440Y27671D01*
X220582Y28313D01*
X219772Y29015D01*
X219015Y29772D01*
X218313Y30582D01*
X217671Y31440D01*
X217092Y32341D01*
X216578Y33281D01*
X216133Y34256D01*
X215759Y35260D01*
X215457Y36288D01*
X215229Y37335D01*
X215076Y38396D01*
X215000Y39464D01*
X215000Y40536D01*
X215076Y41604D01*
X215229Y42665D01*
X215457Y43712D01*
X215759Y44740D01*
X216133Y45744D01*
X216578Y46719D01*
X217092Y47659D01*
X217671Y48560D01*
X218313Y49418D01*
X219015Y50228D01*
X219772Y50985D01*
X220582Y51687D01*
X221440Y52329D01*
X222341Y52908D01*
X223281Y53422D01*
X224256Y53867D01*
X225260Y54241D01*
X226288Y54543D01*
X227335Y54771D01*
X228396Y54924D01*
X229464Y55000D01*
X230536Y55000D01*
X231604Y54924D01*
X232665Y54771D01*
X233712Y54543D01*
X234740Y54241D01*
X235744Y53867D01*
X236719Y53422D01*
X237659Y52908D01*
X238560Y52329D01*
X239418Y51687D01*
X240228Y50985D01*
X240985Y50228D01*
X241687Y49418D01*
X242329Y48560D01*
X242908Y47659D01*
X243422Y46719D01*
X243867Y45744D01*
X244241Y44740D01*
X244543Y43712D01*
X244771Y42665D01*
X244924Y41604D01*
X245000Y40536D01*
X245000Y39464D01*
X55000Y329464D02*
X54924Y328396D01*
X54771Y327335D01*
X54543Y326288D01*
X54241Y325260D01*
X53867Y324256D01*
X53422Y323281D01*
X52908Y322341D01*
X52329Y321440D01*
X51687Y320582D01*
X50985Y319772D01*
X50228Y319015D01*
X49418Y318313D01*
X48560Y317671D01*
X47659Y317092D01*
X46719Y316578D01*
X45744Y316133D01*
X44740Y315759D01*
X43712Y315457D01*
X42665Y315229D01*
X41604Y315076D01*
X40536Y315000D01*
X39464Y315000D01*
X38396Y315076D01*
X37335Y315229D01*
X36288Y315457D01*
X35260Y315759D01*
X34256Y316133D01*
X33281Y316578D01*
X32341Y317092D01*
X31440Y317671D01*
X30582Y318313D01*
X29772Y319015D01*
X29015Y319772D01*
X28313Y320582D01*
X27671Y321440D01*
X27092Y322341D01*
X26578Y323281D01*
X26133Y324256D01*
X25759Y325260D01*
X25457Y326288D01*
X25229Y327335D01*
X25076Y328396D01*
X25000Y329464D01*
X25000Y330536D01*
X25076Y331604D01*
X25229Y332665D01*
X25457Y333712D01*
X25759Y334740D01*
X26133Y335744D01*
X26578Y336719D01*
X27092Y337659D01*
X27671Y338560D01*
X28313Y339418D01*
X29015Y340228D01*
X29772Y340985D01*
X30582Y341687D01*
X31440Y342329D01*
X32341Y342908D01*
X33281Y343422D01*
X34256Y343867D01*
X35260Y344241D01*
X36288Y344543D01*
X37335Y344771D01*
X38396Y344924D01*
X39464Y345000D01*
X40536Y345000D01*
X41604Y344924D01*
X42665Y344771D01*
X43712Y344543D01*
X44740Y344241D01*
X45744Y343867D01*
X46719Y343422D01*
X47659Y342908D01*
X48560Y342329D01*
X49418Y341687D01*
X50228Y340985D01*
X50985Y340228D01*
X51687Y339418D01*
X52329Y338560D01*
X52908Y337659D01*
X53422Y336719D01*
X53867Y335744D01*
X54241Y334740D01*
X54543Y333712D01*
X54771Y332665D01*
X54924Y331604D01*
X55000Y330536D01*
X55000Y329464D01*
X55000Y39464D02*
X54924Y38396D01*
X54771Y37335D01*
X54543Y36288D01*
X54241Y35260D01*
X53867Y34256D01*
X53422Y33281D01*
X52908Y32341D01*
X52329Y31440D01*
X51687Y30582D01*
X50985Y29772D01*
X50228Y29015D01*
X49418Y28313D01*
X48560Y27671D01*
X47659Y27092D01*
X46719Y26578D01*
X45744Y26133D01*
X44740Y25759D01*
X43712Y25457D01*
X42665Y25229D01*
X41604Y25076D01*
X40536Y25000D01*
X39464Y25000D01*
X38396Y25076D01*
X37335Y25229D01*
X36288Y25457D01*
X35260Y25759D01*
X34256Y26133D01*
X33281Y26578D01*
X32341Y27092D01*
X31440Y27671D01*
X30582Y28313D01*
X29772Y29015D01*
X29015Y29772D01*
X28313Y30582D01*
X27671Y31440D01*
X27092Y32341D01*
X26578Y33281D01*
X26133Y34256D01*
X25759Y35260D01*
X25457Y36288D01*
X25229Y37335D01*
X25076Y38396D01*
X25000Y39464D01*
X25000Y40536D01*
X25076Y41604D01*
X25229Y42665D01*
X25457Y43712D01*
X25759Y44740D01*
X26133Y45744D01*
X26578Y46719D01*
X27092Y47659D01*
X27671Y48560D01*
X28313Y49418D01*
X29015Y50228D01*
X29772Y50985D01*
X30582Y51687D01*
X31440Y52329D01*
X32341Y52908D01*
X33281Y53422D01*
X34256Y53867D01*
X35260Y54241D01*
X36288Y54543D01*
X37335Y54771D01*
X38396Y54924D01*
X39464Y55000D01*
X40536Y55000D01*
X41604Y54924D01*
X42665Y54771D01*
X43712Y54543D01*
X44740Y54241D01*
X45744Y53867D01*
X46719Y53422D01*
X47659Y52908D01*
X48560Y52329D01*
X49418Y51687D01*
X50228Y50985D01*
X50985Y50228D01*
X51687Y49418D01*
X52329Y48560D01*
X52908Y47659D01*
X53422Y46719D01*
X53867Y45744D01*
X54241Y44740D01*
X54543Y43712D01*
X54771Y42665D01*
X54924Y41604D01*
X55000Y40536D01*
X55000Y39464D01*
M02*
