G04 EAGLE Gerber RS-274X export*
G75*
%MOMM*%
%FSLAX34Y34*%
%LPD*%
%INSilkscreen Bottom*%
%IPPOS*%
%AMOC8*
5,1,8,0,0,1.08239X$1,22.5*%
G01*
%ADD10C,0.203200*%


D10*
X183984Y342984D02*
X183984Y334340D01*
X183982Y334227D01*
X183976Y334113D01*
X183967Y334000D01*
X183953Y333887D01*
X183936Y333775D01*
X183914Y333664D01*
X183889Y333553D01*
X183861Y333443D01*
X183828Y333334D01*
X183792Y333227D01*
X183752Y333121D01*
X183709Y333016D01*
X183662Y332912D01*
X183611Y332811D01*
X183557Y332711D01*
X183500Y332613D01*
X183439Y332517D01*
X183376Y332423D01*
X183309Y332332D01*
X183238Y332242D01*
X183165Y332155D01*
X183089Y332071D01*
X183010Y331990D01*
X182929Y331911D01*
X182845Y331835D01*
X182758Y331762D01*
X182668Y331691D01*
X182577Y331624D01*
X182483Y331561D01*
X182387Y331500D01*
X182289Y331443D01*
X182189Y331389D01*
X182088Y331338D01*
X181984Y331291D01*
X181879Y331248D01*
X181773Y331208D01*
X181666Y331172D01*
X181557Y331139D01*
X181447Y331111D01*
X181336Y331086D01*
X181225Y331064D01*
X181113Y331047D01*
X181000Y331033D01*
X180887Y331024D01*
X180773Y331018D01*
X180660Y331016D01*
X180547Y331018D01*
X180433Y331024D01*
X180320Y331033D01*
X180207Y331047D01*
X180095Y331064D01*
X179984Y331086D01*
X179873Y331111D01*
X179763Y331139D01*
X179654Y331172D01*
X179547Y331208D01*
X179441Y331248D01*
X179336Y331291D01*
X179232Y331338D01*
X179131Y331389D01*
X179031Y331443D01*
X178933Y331500D01*
X178837Y331561D01*
X178743Y331624D01*
X178652Y331691D01*
X178562Y331762D01*
X178475Y331835D01*
X178391Y331911D01*
X178310Y331990D01*
X178231Y332071D01*
X178155Y332155D01*
X178082Y332242D01*
X178011Y332332D01*
X177944Y332423D01*
X177881Y332517D01*
X177820Y332613D01*
X177763Y332711D01*
X177709Y332811D01*
X177658Y332912D01*
X177611Y333016D01*
X177568Y333121D01*
X177528Y333227D01*
X177492Y333334D01*
X177459Y333443D01*
X177431Y333553D01*
X177406Y333664D01*
X177384Y333775D01*
X177367Y333887D01*
X177353Y334000D01*
X177344Y334113D01*
X177338Y334227D01*
X177336Y334340D01*
X177335Y334340D02*
X177335Y342984D01*
X167395Y331016D02*
X167293Y331018D01*
X167191Y331024D01*
X167090Y331034D01*
X166989Y331047D01*
X166889Y331065D01*
X166789Y331086D01*
X166690Y331111D01*
X166592Y331140D01*
X166496Y331173D01*
X166401Y331209D01*
X166307Y331249D01*
X166215Y331292D01*
X166124Y331339D01*
X166036Y331390D01*
X165949Y331443D01*
X165865Y331500D01*
X165782Y331561D01*
X165703Y331624D01*
X165625Y331690D01*
X165550Y331759D01*
X165478Y331831D01*
X165409Y331906D01*
X165343Y331984D01*
X165280Y332063D01*
X165219Y332146D01*
X165162Y332230D01*
X165109Y332317D01*
X165058Y332405D01*
X165011Y332496D01*
X164968Y332588D01*
X164928Y332682D01*
X164892Y332777D01*
X164859Y332873D01*
X164830Y332971D01*
X164805Y333070D01*
X164784Y333170D01*
X164766Y333270D01*
X164753Y333371D01*
X164743Y333472D01*
X164737Y333574D01*
X164735Y333676D01*
X167395Y331016D02*
X167543Y331018D01*
X167691Y331024D01*
X167838Y331034D01*
X167985Y331047D01*
X168132Y331065D01*
X168278Y331086D01*
X168424Y331111D01*
X168569Y331140D01*
X168713Y331173D01*
X168857Y331209D01*
X168999Y331250D01*
X169140Y331294D01*
X169280Y331342D01*
X169419Y331393D01*
X169556Y331448D01*
X169692Y331507D01*
X169826Y331569D01*
X169958Y331635D01*
X170089Y331704D01*
X170218Y331777D01*
X170344Y331852D01*
X170469Y331932D01*
X170592Y332014D01*
X170712Y332100D01*
X170831Y332189D01*
X170946Y332281D01*
X171060Y332376D01*
X171170Y332474D01*
X171279Y332575D01*
X171384Y332678D01*
X171052Y340324D02*
X171050Y340426D01*
X171044Y340528D01*
X171034Y340629D01*
X171021Y340730D01*
X171003Y340830D01*
X170982Y340930D01*
X170957Y341029D01*
X170928Y341127D01*
X170895Y341223D01*
X170859Y341318D01*
X170819Y341412D01*
X170776Y341504D01*
X170729Y341595D01*
X170678Y341683D01*
X170625Y341770D01*
X170568Y341854D01*
X170507Y341937D01*
X170444Y342016D01*
X170378Y342094D01*
X170309Y342169D01*
X170237Y342241D01*
X170162Y342310D01*
X170084Y342376D01*
X170005Y342439D01*
X169922Y342500D01*
X169838Y342557D01*
X169751Y342610D01*
X169663Y342661D01*
X169572Y342708D01*
X169480Y342751D01*
X169386Y342791D01*
X169291Y342827D01*
X169195Y342860D01*
X169097Y342889D01*
X168998Y342914D01*
X168898Y342935D01*
X168798Y342953D01*
X168697Y342966D01*
X168596Y342976D01*
X168494Y342982D01*
X168392Y342984D01*
X168252Y342982D01*
X168113Y342976D01*
X167974Y342966D01*
X167835Y342953D01*
X167697Y342935D01*
X167559Y342914D01*
X167422Y342889D01*
X167285Y342860D01*
X167149Y342827D01*
X167015Y342790D01*
X166881Y342750D01*
X166749Y342706D01*
X166618Y342658D01*
X166488Y342606D01*
X166360Y342551D01*
X166233Y342493D01*
X166108Y342430D01*
X165985Y342365D01*
X165864Y342296D01*
X165745Y342223D01*
X165628Y342148D01*
X165513Y342069D01*
X165400Y341987D01*
X169721Y337997D02*
X169807Y338049D01*
X169890Y338105D01*
X169971Y338164D01*
X170050Y338225D01*
X170127Y338290D01*
X170201Y338357D01*
X170273Y338427D01*
X170342Y338500D01*
X170408Y338575D01*
X170471Y338652D01*
X170532Y338732D01*
X170589Y338814D01*
X170644Y338898D01*
X170695Y338984D01*
X170743Y339072D01*
X170788Y339161D01*
X170829Y339253D01*
X170867Y339345D01*
X170902Y339439D01*
X170933Y339534D01*
X170961Y339631D01*
X170984Y339728D01*
X171005Y339826D01*
X171021Y339925D01*
X171034Y340024D01*
X171044Y340124D01*
X171049Y340224D01*
X171051Y340324D01*
X166065Y336003D02*
X165979Y335951D01*
X165896Y335895D01*
X165815Y335836D01*
X165736Y335775D01*
X165659Y335710D01*
X165585Y335643D01*
X165513Y335573D01*
X165444Y335501D01*
X165378Y335425D01*
X165315Y335348D01*
X165254Y335268D01*
X165197Y335186D01*
X165142Y335102D01*
X165091Y335016D01*
X165043Y334928D01*
X164998Y334839D01*
X164957Y334747D01*
X164919Y334655D01*
X164884Y334561D01*
X164853Y334466D01*
X164825Y334369D01*
X164802Y334272D01*
X164781Y334174D01*
X164765Y334075D01*
X164752Y333976D01*
X164742Y333876D01*
X164737Y333776D01*
X164735Y333676D01*
X166065Y336003D02*
X169722Y337997D01*
X158521Y337665D02*
X155197Y337665D01*
X155197Y337664D02*
X155084Y337662D01*
X154970Y337656D01*
X154857Y337647D01*
X154744Y337633D01*
X154632Y337616D01*
X154521Y337594D01*
X154410Y337569D01*
X154300Y337541D01*
X154191Y337508D01*
X154084Y337472D01*
X153978Y337432D01*
X153873Y337389D01*
X153769Y337342D01*
X153668Y337291D01*
X153568Y337237D01*
X153470Y337180D01*
X153374Y337119D01*
X153280Y337056D01*
X153189Y336989D01*
X153099Y336918D01*
X153012Y336845D01*
X152928Y336769D01*
X152847Y336690D01*
X152768Y336609D01*
X152692Y336525D01*
X152619Y336438D01*
X152548Y336348D01*
X152481Y336257D01*
X152418Y336163D01*
X152357Y336067D01*
X152300Y335969D01*
X152246Y335869D01*
X152195Y335768D01*
X152148Y335664D01*
X152105Y335559D01*
X152065Y335453D01*
X152029Y335346D01*
X151996Y335237D01*
X151968Y335127D01*
X151943Y335016D01*
X151921Y334905D01*
X151904Y334793D01*
X151890Y334680D01*
X151881Y334567D01*
X151875Y334453D01*
X151873Y334340D01*
X151875Y334227D01*
X151881Y334113D01*
X151890Y334000D01*
X151904Y333887D01*
X151921Y333775D01*
X151943Y333664D01*
X151968Y333553D01*
X151996Y333443D01*
X152029Y333334D01*
X152065Y333227D01*
X152105Y333121D01*
X152148Y333016D01*
X152195Y332912D01*
X152246Y332811D01*
X152300Y332711D01*
X152357Y332613D01*
X152418Y332517D01*
X152481Y332423D01*
X152548Y332332D01*
X152619Y332242D01*
X152692Y332155D01*
X152768Y332071D01*
X152847Y331990D01*
X152928Y331911D01*
X153012Y331835D01*
X153099Y331762D01*
X153189Y331691D01*
X153280Y331624D01*
X153374Y331561D01*
X153470Y331500D01*
X153568Y331443D01*
X153668Y331389D01*
X153769Y331338D01*
X153873Y331291D01*
X153978Y331248D01*
X154084Y331208D01*
X154191Y331172D01*
X154300Y331139D01*
X154410Y331111D01*
X154521Y331086D01*
X154632Y331064D01*
X154744Y331047D01*
X154857Y331033D01*
X154970Y331024D01*
X155084Y331018D01*
X155197Y331016D01*
X158521Y331016D01*
X158521Y342984D01*
X155197Y342984D01*
X155095Y342982D01*
X154993Y342976D01*
X154892Y342966D01*
X154791Y342953D01*
X154691Y342935D01*
X154591Y342914D01*
X154492Y342889D01*
X154394Y342860D01*
X154298Y342827D01*
X154203Y342791D01*
X154109Y342751D01*
X154017Y342708D01*
X153926Y342661D01*
X153838Y342610D01*
X153751Y342557D01*
X153667Y342500D01*
X153584Y342439D01*
X153505Y342376D01*
X153427Y342310D01*
X153352Y342241D01*
X153280Y342169D01*
X153211Y342094D01*
X153145Y342016D01*
X153082Y341937D01*
X153021Y341854D01*
X152964Y341770D01*
X152911Y341683D01*
X152860Y341595D01*
X152813Y341504D01*
X152770Y341412D01*
X152730Y341318D01*
X152694Y341223D01*
X152661Y341127D01*
X152632Y341029D01*
X152607Y340930D01*
X152586Y340830D01*
X152568Y340730D01*
X152555Y340629D01*
X152545Y340528D01*
X152539Y340426D01*
X152537Y340324D01*
X152539Y340222D01*
X152545Y340120D01*
X152555Y340019D01*
X152568Y339918D01*
X152586Y339818D01*
X152607Y339718D01*
X152632Y339619D01*
X152661Y339521D01*
X152694Y339425D01*
X152730Y339330D01*
X152770Y339236D01*
X152813Y339144D01*
X152860Y339053D01*
X152911Y338965D01*
X152964Y338878D01*
X153021Y338794D01*
X153082Y338711D01*
X153145Y338632D01*
X153211Y338554D01*
X153280Y338479D01*
X153352Y338407D01*
X153427Y338338D01*
X153505Y338272D01*
X153584Y338209D01*
X153667Y338148D01*
X153751Y338091D01*
X153838Y338038D01*
X153926Y337987D01*
X154017Y337940D01*
X154109Y337897D01*
X154203Y337857D01*
X154298Y337821D01*
X154394Y337788D01*
X154492Y337759D01*
X154591Y337734D01*
X154691Y337713D01*
X154791Y337695D01*
X154892Y337682D01*
X154993Y337672D01*
X155095Y337666D01*
X155197Y337664D01*
X141218Y338995D02*
X137228Y338995D01*
X139888Y342984D02*
X139888Y333011D01*
X139886Y332924D01*
X139880Y332837D01*
X139871Y332751D01*
X139858Y332665D01*
X139841Y332579D01*
X139820Y332495D01*
X139796Y332411D01*
X139768Y332329D01*
X139736Y332248D01*
X139701Y332168D01*
X139663Y332090D01*
X139621Y332013D01*
X139576Y331939D01*
X139527Y331867D01*
X139476Y331797D01*
X139421Y331729D01*
X139364Y331663D01*
X139304Y331600D01*
X139241Y331540D01*
X139175Y331483D01*
X139107Y331428D01*
X139037Y331377D01*
X138965Y331328D01*
X138890Y331283D01*
X138814Y331241D01*
X138736Y331203D01*
X138656Y331168D01*
X138575Y331136D01*
X138493Y331108D01*
X138409Y331084D01*
X138325Y331063D01*
X138239Y331046D01*
X138153Y331033D01*
X138067Y331024D01*
X137980Y331018D01*
X137893Y331016D01*
X137228Y331016D01*
X132079Y333676D02*
X132079Y336335D01*
X132080Y336335D02*
X132078Y336437D01*
X132072Y336539D01*
X132062Y336640D01*
X132049Y336741D01*
X132031Y336841D01*
X132010Y336941D01*
X131985Y337040D01*
X131956Y337138D01*
X131923Y337234D01*
X131887Y337329D01*
X131847Y337423D01*
X131804Y337515D01*
X131757Y337606D01*
X131706Y337694D01*
X131653Y337781D01*
X131596Y337865D01*
X131535Y337948D01*
X131472Y338027D01*
X131406Y338105D01*
X131337Y338180D01*
X131265Y338252D01*
X131190Y338321D01*
X131112Y338387D01*
X131033Y338450D01*
X130950Y338511D01*
X130866Y338568D01*
X130779Y338621D01*
X130691Y338672D01*
X130600Y338719D01*
X130508Y338762D01*
X130414Y338802D01*
X130319Y338838D01*
X130223Y338871D01*
X130125Y338900D01*
X130026Y338925D01*
X129926Y338946D01*
X129826Y338964D01*
X129725Y338977D01*
X129624Y338987D01*
X129522Y338993D01*
X129420Y338995D01*
X129318Y338993D01*
X129216Y338987D01*
X129115Y338977D01*
X129014Y338964D01*
X128914Y338946D01*
X128814Y338925D01*
X128715Y338900D01*
X128617Y338871D01*
X128521Y338838D01*
X128426Y338802D01*
X128332Y338762D01*
X128240Y338719D01*
X128149Y338672D01*
X128061Y338621D01*
X127974Y338568D01*
X127890Y338511D01*
X127807Y338450D01*
X127728Y338387D01*
X127650Y338321D01*
X127575Y338252D01*
X127503Y338180D01*
X127434Y338105D01*
X127368Y338027D01*
X127305Y337948D01*
X127244Y337865D01*
X127187Y337781D01*
X127134Y337694D01*
X127083Y337606D01*
X127036Y337515D01*
X126993Y337423D01*
X126953Y337329D01*
X126917Y337234D01*
X126884Y337138D01*
X126855Y337040D01*
X126830Y336941D01*
X126809Y336841D01*
X126791Y336741D01*
X126778Y336640D01*
X126768Y336539D01*
X126762Y336437D01*
X126760Y336335D01*
X126760Y333676D01*
X126762Y333574D01*
X126768Y333472D01*
X126778Y333371D01*
X126791Y333270D01*
X126809Y333170D01*
X126830Y333070D01*
X126855Y332971D01*
X126884Y332873D01*
X126917Y332777D01*
X126953Y332682D01*
X126993Y332588D01*
X127036Y332496D01*
X127083Y332405D01*
X127134Y332317D01*
X127187Y332230D01*
X127244Y332146D01*
X127305Y332063D01*
X127368Y331984D01*
X127434Y331906D01*
X127503Y331831D01*
X127575Y331759D01*
X127650Y331690D01*
X127728Y331624D01*
X127807Y331561D01*
X127890Y331500D01*
X127974Y331443D01*
X128061Y331390D01*
X128149Y331339D01*
X128240Y331292D01*
X128332Y331249D01*
X128426Y331209D01*
X128521Y331173D01*
X128617Y331140D01*
X128715Y331111D01*
X128814Y331086D01*
X128914Y331065D01*
X129014Y331047D01*
X129115Y331034D01*
X129216Y331024D01*
X129318Y331018D01*
X129420Y331016D01*
X129522Y331018D01*
X129624Y331024D01*
X129725Y331034D01*
X129826Y331047D01*
X129926Y331065D01*
X130026Y331086D01*
X130125Y331111D01*
X130223Y331140D01*
X130319Y331173D01*
X130414Y331209D01*
X130508Y331249D01*
X130600Y331292D01*
X130691Y331339D01*
X130779Y331390D01*
X130866Y331443D01*
X130950Y331500D01*
X131033Y331561D01*
X131112Y331624D01*
X131190Y331690D01*
X131265Y331759D01*
X131337Y331831D01*
X131406Y331906D01*
X131472Y331984D01*
X131535Y332063D01*
X131596Y332146D01*
X131653Y332230D01*
X131706Y332317D01*
X131757Y332405D01*
X131804Y332496D01*
X131847Y332588D01*
X131887Y332682D01*
X131923Y332777D01*
X131956Y332873D01*
X131985Y332971D01*
X132010Y333070D01*
X132031Y333170D01*
X132049Y333270D01*
X132062Y333371D01*
X132072Y333472D01*
X132078Y333574D01*
X132080Y333676D01*
X113844Y331016D02*
X113844Y342984D01*
X110520Y342984D01*
X110407Y342982D01*
X110293Y342976D01*
X110180Y342967D01*
X110067Y342953D01*
X109955Y342936D01*
X109844Y342914D01*
X109733Y342889D01*
X109623Y342861D01*
X109514Y342828D01*
X109407Y342792D01*
X109301Y342752D01*
X109196Y342709D01*
X109092Y342662D01*
X108991Y342611D01*
X108891Y342557D01*
X108793Y342500D01*
X108697Y342439D01*
X108603Y342376D01*
X108512Y342309D01*
X108422Y342238D01*
X108335Y342165D01*
X108251Y342089D01*
X108170Y342010D01*
X108091Y341929D01*
X108015Y341845D01*
X107942Y341758D01*
X107871Y341668D01*
X107804Y341577D01*
X107741Y341483D01*
X107680Y341387D01*
X107623Y341289D01*
X107569Y341189D01*
X107518Y341088D01*
X107471Y340984D01*
X107428Y340879D01*
X107388Y340773D01*
X107352Y340666D01*
X107319Y340557D01*
X107291Y340447D01*
X107266Y340336D01*
X107244Y340225D01*
X107227Y340113D01*
X107213Y340000D01*
X107204Y339887D01*
X107198Y339773D01*
X107196Y339660D01*
X107195Y339660D02*
X107195Y334340D01*
X107196Y334340D02*
X107198Y334227D01*
X107204Y334113D01*
X107213Y334000D01*
X107227Y333887D01*
X107244Y333775D01*
X107266Y333664D01*
X107291Y333553D01*
X107319Y333443D01*
X107352Y333334D01*
X107388Y333227D01*
X107428Y333121D01*
X107471Y333016D01*
X107518Y332912D01*
X107569Y332811D01*
X107623Y332711D01*
X107680Y332613D01*
X107741Y332517D01*
X107804Y332423D01*
X107871Y332332D01*
X107942Y332242D01*
X108015Y332155D01*
X108091Y332071D01*
X108170Y331990D01*
X108251Y331911D01*
X108335Y331835D01*
X108422Y331762D01*
X108512Y331691D01*
X108603Y331624D01*
X108697Y331561D01*
X108793Y331500D01*
X108891Y331443D01*
X108991Y331389D01*
X109092Y331338D01*
X109196Y331291D01*
X109301Y331248D01*
X109407Y331208D01*
X109514Y331172D01*
X109623Y331139D01*
X109733Y331111D01*
X109844Y331086D01*
X109955Y331064D01*
X110067Y331047D01*
X110180Y331033D01*
X110293Y331024D01*
X110407Y331018D01*
X110520Y331016D01*
X113844Y331016D01*
X98216Y331016D02*
X95557Y331016D01*
X98216Y331016D02*
X98318Y331018D01*
X98420Y331024D01*
X98521Y331034D01*
X98622Y331047D01*
X98722Y331065D01*
X98822Y331086D01*
X98921Y331111D01*
X99019Y331140D01*
X99115Y331173D01*
X99210Y331209D01*
X99304Y331249D01*
X99396Y331292D01*
X99487Y331339D01*
X99575Y331390D01*
X99662Y331443D01*
X99746Y331500D01*
X99829Y331561D01*
X99908Y331624D01*
X99986Y331690D01*
X100061Y331759D01*
X100133Y331831D01*
X100202Y331906D01*
X100268Y331984D01*
X100331Y332063D01*
X100392Y332146D01*
X100449Y332230D01*
X100502Y332317D01*
X100553Y332405D01*
X100600Y332496D01*
X100643Y332588D01*
X100683Y332682D01*
X100719Y332777D01*
X100752Y332873D01*
X100781Y332971D01*
X100806Y333070D01*
X100827Y333170D01*
X100845Y333270D01*
X100858Y333371D01*
X100868Y333472D01*
X100874Y333574D01*
X100876Y333676D01*
X100876Y340324D01*
X100874Y340426D01*
X100868Y340528D01*
X100858Y340629D01*
X100845Y340730D01*
X100827Y340830D01*
X100806Y340930D01*
X100781Y341029D01*
X100752Y341127D01*
X100719Y341223D01*
X100683Y341318D01*
X100643Y341412D01*
X100600Y341504D01*
X100553Y341595D01*
X100502Y341683D01*
X100449Y341770D01*
X100392Y341854D01*
X100331Y341937D01*
X100268Y342016D01*
X100202Y342094D01*
X100133Y342169D01*
X100061Y342241D01*
X99986Y342310D01*
X99908Y342376D01*
X99829Y342439D01*
X99746Y342500D01*
X99662Y342557D01*
X99575Y342610D01*
X99487Y342661D01*
X99396Y342708D01*
X99304Y342751D01*
X99210Y342791D01*
X99115Y342827D01*
X99019Y342860D01*
X98921Y342889D01*
X98822Y342914D01*
X98722Y342935D01*
X98622Y342953D01*
X98521Y342966D01*
X98420Y342976D01*
X98318Y342982D01*
X98216Y342984D01*
X95557Y342984D01*
X177335Y281335D02*
X181324Y281335D01*
X181426Y281337D01*
X181528Y281343D01*
X181629Y281353D01*
X181730Y281366D01*
X181830Y281384D01*
X181930Y281405D01*
X182029Y281430D01*
X182127Y281459D01*
X182223Y281492D01*
X182318Y281528D01*
X182412Y281568D01*
X182504Y281611D01*
X182595Y281658D01*
X182683Y281709D01*
X182770Y281762D01*
X182854Y281819D01*
X182937Y281880D01*
X183016Y281943D01*
X183094Y282009D01*
X183169Y282078D01*
X183241Y282150D01*
X183310Y282225D01*
X183376Y282303D01*
X183439Y282382D01*
X183500Y282465D01*
X183557Y282549D01*
X183610Y282636D01*
X183661Y282724D01*
X183708Y282815D01*
X183751Y282907D01*
X183791Y283001D01*
X183827Y283096D01*
X183860Y283192D01*
X183889Y283290D01*
X183914Y283389D01*
X183935Y283489D01*
X183953Y283589D01*
X183966Y283690D01*
X183976Y283791D01*
X183982Y283893D01*
X183984Y283995D01*
X183984Y284660D01*
X183982Y284773D01*
X183976Y284887D01*
X183967Y285000D01*
X183953Y285113D01*
X183936Y285225D01*
X183914Y285336D01*
X183889Y285447D01*
X183861Y285557D01*
X183828Y285666D01*
X183792Y285773D01*
X183752Y285879D01*
X183709Y285984D01*
X183662Y286088D01*
X183611Y286189D01*
X183557Y286289D01*
X183500Y286387D01*
X183439Y286483D01*
X183376Y286577D01*
X183309Y286668D01*
X183238Y286758D01*
X183165Y286845D01*
X183089Y286929D01*
X183010Y287010D01*
X182929Y287089D01*
X182845Y287165D01*
X182758Y287238D01*
X182668Y287309D01*
X182577Y287376D01*
X182483Y287439D01*
X182387Y287500D01*
X182289Y287557D01*
X182189Y287611D01*
X182088Y287662D01*
X181984Y287709D01*
X181879Y287752D01*
X181773Y287792D01*
X181666Y287828D01*
X181557Y287861D01*
X181447Y287889D01*
X181336Y287914D01*
X181225Y287936D01*
X181113Y287953D01*
X181000Y287967D01*
X180887Y287976D01*
X180773Y287982D01*
X180660Y287984D01*
X180547Y287982D01*
X180433Y287976D01*
X180320Y287967D01*
X180207Y287953D01*
X180095Y287936D01*
X179984Y287914D01*
X179873Y287889D01*
X179763Y287861D01*
X179654Y287828D01*
X179547Y287792D01*
X179441Y287752D01*
X179336Y287709D01*
X179232Y287662D01*
X179131Y287611D01*
X179031Y287557D01*
X178933Y287500D01*
X178837Y287439D01*
X178743Y287376D01*
X178652Y287309D01*
X178562Y287238D01*
X178475Y287165D01*
X178391Y287089D01*
X178310Y287010D01*
X178231Y286929D01*
X178155Y286845D01*
X178082Y286758D01*
X178011Y286668D01*
X177944Y286577D01*
X177881Y286483D01*
X177820Y286387D01*
X177763Y286289D01*
X177709Y286189D01*
X177658Y286088D01*
X177611Y285984D01*
X177568Y285879D01*
X177528Y285773D01*
X177492Y285666D01*
X177459Y285557D01*
X177431Y285447D01*
X177406Y285336D01*
X177384Y285225D01*
X177367Y285113D01*
X177353Y285000D01*
X177344Y284887D01*
X177338Y284773D01*
X177336Y284660D01*
X177335Y284660D02*
X177335Y281335D01*
X177337Y281191D01*
X177343Y281047D01*
X177353Y280903D01*
X177366Y280760D01*
X177384Y280617D01*
X177405Y280474D01*
X177430Y280333D01*
X177459Y280192D01*
X177492Y280051D01*
X177529Y279912D01*
X177569Y279774D01*
X177613Y279637D01*
X177661Y279501D01*
X177713Y279366D01*
X177768Y279233D01*
X177827Y279102D01*
X177889Y278972D01*
X177955Y278844D01*
X178024Y278717D01*
X178096Y278593D01*
X178172Y278470D01*
X178252Y278350D01*
X178334Y278232D01*
X178420Y278116D01*
X178508Y278003D01*
X178600Y277892D01*
X178695Y277783D01*
X178792Y277677D01*
X178893Y277574D01*
X178996Y277473D01*
X179102Y277376D01*
X179211Y277281D01*
X179322Y277189D01*
X179435Y277101D01*
X179551Y277015D01*
X179669Y276933D01*
X179789Y276853D01*
X179912Y276777D01*
X180036Y276705D01*
X180163Y276636D01*
X180291Y276570D01*
X180421Y276508D01*
X180552Y276449D01*
X180685Y276394D01*
X180820Y276342D01*
X180956Y276294D01*
X181093Y276250D01*
X181231Y276210D01*
X181370Y276173D01*
X181511Y276140D01*
X181652Y276111D01*
X181793Y276086D01*
X181936Y276065D01*
X182079Y276047D01*
X182222Y276034D01*
X182366Y276024D01*
X182510Y276018D01*
X182654Y276016D01*
X171979Y283995D02*
X169320Y276016D01*
X166660Y283995D01*
X147864Y285324D02*
X144540Y287984D01*
X144540Y276016D01*
X147864Y276016D02*
X141215Y276016D01*
X131607Y287984D02*
X131500Y287982D01*
X131394Y287976D01*
X131287Y287967D01*
X131181Y287954D01*
X131076Y287936D01*
X130971Y287916D01*
X130867Y287891D01*
X130764Y287863D01*
X130662Y287831D01*
X130561Y287795D01*
X130462Y287756D01*
X130364Y287714D01*
X130268Y287668D01*
X130173Y287618D01*
X130080Y287565D01*
X129989Y287509D01*
X129901Y287450D01*
X129814Y287387D01*
X129730Y287322D01*
X129648Y287253D01*
X129568Y287182D01*
X129491Y287108D01*
X129417Y287031D01*
X129346Y286951D01*
X129277Y286869D01*
X129212Y286785D01*
X129149Y286698D01*
X129090Y286610D01*
X129034Y286519D01*
X128981Y286426D01*
X128931Y286331D01*
X128885Y286235D01*
X128843Y286137D01*
X128804Y286038D01*
X128768Y285937D01*
X128736Y285835D01*
X128708Y285732D01*
X128683Y285628D01*
X128663Y285523D01*
X128645Y285418D01*
X128632Y285312D01*
X128623Y285205D01*
X128617Y285099D01*
X128615Y284992D01*
X131607Y287984D02*
X131728Y287982D01*
X131849Y287976D01*
X131969Y287967D01*
X132089Y287954D01*
X132209Y287937D01*
X132328Y287916D01*
X132446Y287891D01*
X132564Y287863D01*
X132680Y287831D01*
X132796Y287796D01*
X132910Y287756D01*
X133023Y287714D01*
X133135Y287667D01*
X133245Y287618D01*
X133353Y287564D01*
X133460Y287508D01*
X133565Y287448D01*
X133668Y287385D01*
X133769Y287318D01*
X133868Y287249D01*
X133965Y287176D01*
X134059Y287101D01*
X134151Y287022D01*
X134240Y286941D01*
X134327Y286856D01*
X134411Y286770D01*
X134492Y286680D01*
X134570Y286588D01*
X134646Y286494D01*
X134718Y286397D01*
X134788Y286298D01*
X134854Y286197D01*
X134917Y286094D01*
X134977Y285989D01*
X135033Y285882D01*
X135087Y285774D01*
X135136Y285664D01*
X135182Y285552D01*
X135225Y285439D01*
X135264Y285324D01*
X129612Y282665D02*
X129535Y282741D01*
X129461Y282819D01*
X129389Y282901D01*
X129319Y282984D01*
X129253Y283070D01*
X129190Y283158D01*
X129129Y283248D01*
X129072Y283340D01*
X129018Y283434D01*
X128967Y283530D01*
X128919Y283627D01*
X128875Y283726D01*
X128834Y283826D01*
X128796Y283928D01*
X128762Y284031D01*
X128731Y284135D01*
X128704Y284240D01*
X128681Y284346D01*
X128661Y284452D01*
X128644Y284560D01*
X128631Y284667D01*
X128622Y284775D01*
X128617Y284884D01*
X128615Y284992D01*
X129613Y282665D02*
X135264Y276016D01*
X128615Y276016D01*
X120600Y276016D02*
X123259Y283995D01*
X117940Y283995D02*
X120600Y276016D01*
X95487Y287984D02*
X95380Y287982D01*
X95274Y287976D01*
X95167Y287967D01*
X95061Y287954D01*
X94956Y287936D01*
X94851Y287916D01*
X94747Y287891D01*
X94644Y287863D01*
X94542Y287831D01*
X94441Y287795D01*
X94342Y287756D01*
X94244Y287714D01*
X94148Y287668D01*
X94053Y287618D01*
X93960Y287565D01*
X93869Y287509D01*
X93781Y287450D01*
X93694Y287387D01*
X93610Y287322D01*
X93528Y287253D01*
X93448Y287182D01*
X93371Y287108D01*
X93297Y287031D01*
X93226Y286951D01*
X93157Y286869D01*
X93092Y286785D01*
X93029Y286698D01*
X92970Y286610D01*
X92914Y286519D01*
X92861Y286426D01*
X92811Y286331D01*
X92765Y286235D01*
X92723Y286137D01*
X92684Y286038D01*
X92648Y285937D01*
X92616Y285835D01*
X92588Y285732D01*
X92563Y285628D01*
X92543Y285523D01*
X92525Y285418D01*
X92512Y285312D01*
X92503Y285205D01*
X92497Y285099D01*
X92495Y284992D01*
X95487Y287984D02*
X95608Y287982D01*
X95729Y287976D01*
X95849Y287967D01*
X95969Y287954D01*
X96089Y287937D01*
X96208Y287916D01*
X96326Y287891D01*
X96444Y287863D01*
X96560Y287831D01*
X96676Y287796D01*
X96790Y287756D01*
X96903Y287714D01*
X97015Y287667D01*
X97125Y287618D01*
X97233Y287564D01*
X97340Y287508D01*
X97445Y287448D01*
X97548Y287385D01*
X97649Y287318D01*
X97748Y287249D01*
X97845Y287176D01*
X97939Y287101D01*
X98031Y287022D01*
X98120Y286941D01*
X98207Y286856D01*
X98291Y286770D01*
X98372Y286680D01*
X98450Y286588D01*
X98526Y286494D01*
X98598Y286397D01*
X98668Y286298D01*
X98734Y286197D01*
X98797Y286094D01*
X98857Y285989D01*
X98913Y285882D01*
X98967Y285774D01*
X99016Y285664D01*
X99062Y285552D01*
X99105Y285439D01*
X99144Y285324D01*
X93492Y282665D02*
X93415Y282741D01*
X93341Y282819D01*
X93269Y282901D01*
X93199Y282984D01*
X93133Y283070D01*
X93070Y283158D01*
X93009Y283248D01*
X92952Y283340D01*
X92898Y283434D01*
X92847Y283530D01*
X92799Y283627D01*
X92755Y283726D01*
X92714Y283826D01*
X92676Y283928D01*
X92642Y284031D01*
X92611Y284135D01*
X92584Y284240D01*
X92561Y284346D01*
X92541Y284452D01*
X92524Y284560D01*
X92511Y284667D01*
X92502Y284775D01*
X92497Y284884D01*
X92495Y284992D01*
X93493Y282665D02*
X99144Y276016D01*
X92495Y276016D01*
X86545Y282000D02*
X86542Y282235D01*
X86534Y282471D01*
X86520Y282706D01*
X86500Y282940D01*
X86475Y283175D01*
X86444Y283408D01*
X86408Y283641D01*
X86366Y283872D01*
X86318Y284103D01*
X86265Y284332D01*
X86207Y284560D01*
X86143Y284787D01*
X86074Y285012D01*
X85999Y285235D01*
X85919Y285457D01*
X85834Y285676D01*
X85744Y285894D01*
X85648Y286109D01*
X85548Y286322D01*
X85547Y286322D02*
X85513Y286414D01*
X85476Y286505D01*
X85435Y286595D01*
X85390Y286683D01*
X85342Y286768D01*
X85291Y286852D01*
X85236Y286934D01*
X85178Y287014D01*
X85117Y287091D01*
X85052Y287165D01*
X84985Y287237D01*
X84915Y287307D01*
X84843Y287373D01*
X84767Y287436D01*
X84690Y287497D01*
X84610Y287554D01*
X84527Y287608D01*
X84443Y287659D01*
X84356Y287706D01*
X84268Y287749D01*
X84178Y287790D01*
X84087Y287826D01*
X83994Y287859D01*
X83900Y287888D01*
X83805Y287913D01*
X83709Y287935D01*
X83612Y287953D01*
X83515Y287966D01*
X83417Y287976D01*
X83318Y287982D01*
X83220Y287984D01*
X83122Y287982D01*
X83023Y287976D01*
X82925Y287966D01*
X82828Y287953D01*
X82731Y287935D01*
X82635Y287913D01*
X82540Y287888D01*
X82446Y287859D01*
X82353Y287826D01*
X82262Y287790D01*
X82172Y287749D01*
X82084Y287706D01*
X81997Y287659D01*
X81913Y287608D01*
X81830Y287554D01*
X81750Y287497D01*
X81673Y287436D01*
X81597Y287373D01*
X81525Y287307D01*
X81455Y287237D01*
X81388Y287165D01*
X81323Y287091D01*
X81262Y287014D01*
X81204Y286934D01*
X81149Y286852D01*
X81098Y286768D01*
X81050Y286682D01*
X81005Y286595D01*
X80964Y286505D01*
X80927Y286414D01*
X80893Y286322D01*
X80793Y286109D01*
X80697Y285894D01*
X80607Y285676D01*
X80522Y285457D01*
X80442Y285235D01*
X80367Y285012D01*
X80298Y284787D01*
X80234Y284560D01*
X80176Y284332D01*
X80123Y284103D01*
X80075Y283872D01*
X80033Y283640D01*
X79997Y283408D01*
X79966Y283174D01*
X79941Y282940D01*
X79921Y282706D01*
X79907Y282471D01*
X79899Y282235D01*
X79896Y282000D01*
X86544Y282000D02*
X86541Y281765D01*
X86533Y281529D01*
X86519Y281294D01*
X86499Y281060D01*
X86474Y280826D01*
X86443Y280592D01*
X86407Y280359D01*
X86365Y280128D01*
X86317Y279897D01*
X86264Y279668D01*
X86206Y279440D01*
X86142Y279213D01*
X86073Y278988D01*
X85998Y278765D01*
X85918Y278543D01*
X85833Y278324D01*
X85743Y278106D01*
X85647Y277891D01*
X85547Y277678D01*
X85513Y277586D01*
X85476Y277495D01*
X85435Y277405D01*
X85390Y277317D01*
X85342Y277232D01*
X85291Y277148D01*
X85236Y277066D01*
X85178Y276986D01*
X85117Y276909D01*
X85052Y276835D01*
X84985Y276763D01*
X84915Y276693D01*
X84843Y276627D01*
X84767Y276564D01*
X84690Y276503D01*
X84610Y276446D01*
X84527Y276392D01*
X84443Y276341D01*
X84356Y276294D01*
X84268Y276250D01*
X84178Y276210D01*
X84087Y276174D01*
X83994Y276141D01*
X83900Y276112D01*
X83805Y276087D01*
X83709Y276065D01*
X83612Y276047D01*
X83515Y276034D01*
X83417Y276024D01*
X83318Y276018D01*
X83220Y276016D01*
X80892Y277678D02*
X80792Y277891D01*
X80696Y278106D01*
X80606Y278323D01*
X80521Y278543D01*
X80441Y278765D01*
X80366Y278988D01*
X80297Y279213D01*
X80233Y279440D01*
X80175Y279668D01*
X80122Y279897D01*
X80074Y280128D01*
X80032Y280359D01*
X79996Y280592D01*
X79965Y280825D01*
X79940Y281060D01*
X79920Y281294D01*
X79906Y281529D01*
X79898Y281765D01*
X79895Y282000D01*
X80893Y277678D02*
X80927Y277586D01*
X80964Y277495D01*
X81005Y277405D01*
X81050Y277317D01*
X81098Y277232D01*
X81149Y277148D01*
X81204Y277066D01*
X81262Y276986D01*
X81323Y276909D01*
X81388Y276835D01*
X81455Y276763D01*
X81525Y276693D01*
X81597Y276627D01*
X81673Y276564D01*
X81750Y276503D01*
X81830Y276446D01*
X81913Y276392D01*
X81997Y276341D01*
X82084Y276294D01*
X82172Y276250D01*
X82262Y276210D01*
X82353Y276174D01*
X82446Y276141D01*
X82540Y276112D01*
X82635Y276087D01*
X82731Y276065D01*
X82828Y276047D01*
X82925Y276034D01*
X83023Y276024D01*
X83122Y276018D01*
X83220Y276016D01*
X85879Y278676D02*
X80560Y285324D01*
X74539Y283995D02*
X71880Y276016D01*
X69220Y283995D01*
X183984Y232984D02*
X183984Y221016D01*
X183984Y232984D02*
X178665Y232984D01*
X178665Y227665D02*
X183984Y227665D01*
X172715Y232984D02*
X172715Y221016D01*
X174044Y221016D02*
X171385Y221016D01*
X171385Y232984D02*
X174044Y232984D01*
X162635Y232984D02*
X166624Y221016D01*
X158645Y221016D02*
X162635Y232984D01*
X159643Y224008D02*
X165627Y224008D01*
X152939Y221016D02*
X152939Y232984D01*
X149615Y232984D01*
X149502Y232982D01*
X149388Y232976D01*
X149275Y232967D01*
X149162Y232953D01*
X149050Y232936D01*
X148939Y232914D01*
X148828Y232889D01*
X148718Y232861D01*
X148609Y232828D01*
X148502Y232792D01*
X148396Y232752D01*
X148291Y232709D01*
X148187Y232662D01*
X148086Y232611D01*
X147986Y232557D01*
X147888Y232500D01*
X147792Y232439D01*
X147698Y232376D01*
X147607Y232309D01*
X147517Y232238D01*
X147430Y232165D01*
X147346Y232089D01*
X147265Y232010D01*
X147186Y231929D01*
X147110Y231845D01*
X147037Y231758D01*
X146966Y231668D01*
X146899Y231577D01*
X146836Y231483D01*
X146775Y231387D01*
X146718Y231289D01*
X146664Y231189D01*
X146613Y231088D01*
X146566Y230984D01*
X146523Y230879D01*
X146483Y230773D01*
X146447Y230666D01*
X146414Y230557D01*
X146386Y230447D01*
X146361Y230336D01*
X146339Y230225D01*
X146322Y230113D01*
X146308Y230000D01*
X146299Y229887D01*
X146293Y229773D01*
X146291Y229660D01*
X146290Y229660D02*
X146290Y224340D01*
X146291Y224340D02*
X146293Y224227D01*
X146299Y224113D01*
X146308Y224000D01*
X146322Y223887D01*
X146339Y223775D01*
X146361Y223664D01*
X146386Y223553D01*
X146414Y223443D01*
X146447Y223334D01*
X146483Y223227D01*
X146523Y223121D01*
X146566Y223016D01*
X146613Y222912D01*
X146664Y222811D01*
X146718Y222711D01*
X146775Y222613D01*
X146836Y222517D01*
X146899Y222423D01*
X146966Y222332D01*
X147037Y222242D01*
X147110Y222155D01*
X147186Y222071D01*
X147265Y221990D01*
X147346Y221911D01*
X147430Y221835D01*
X147517Y221762D01*
X147607Y221691D01*
X147698Y221624D01*
X147792Y221561D01*
X147888Y221500D01*
X147986Y221443D01*
X148086Y221389D01*
X148187Y221338D01*
X148291Y221291D01*
X148396Y221248D01*
X148502Y221208D01*
X148609Y221172D01*
X148718Y221139D01*
X148828Y221111D01*
X148939Y221086D01*
X149050Y221064D01*
X149162Y221047D01*
X149275Y221033D01*
X149388Y221024D01*
X149502Y221018D01*
X149615Y221016D01*
X152939Y221016D01*
X129542Y232984D02*
X129435Y232982D01*
X129329Y232976D01*
X129222Y232967D01*
X129116Y232954D01*
X129011Y232936D01*
X128906Y232916D01*
X128802Y232891D01*
X128699Y232863D01*
X128597Y232831D01*
X128496Y232795D01*
X128397Y232756D01*
X128299Y232714D01*
X128203Y232668D01*
X128108Y232618D01*
X128015Y232565D01*
X127924Y232509D01*
X127836Y232450D01*
X127749Y232387D01*
X127665Y232322D01*
X127583Y232253D01*
X127503Y232182D01*
X127426Y232108D01*
X127352Y232031D01*
X127281Y231951D01*
X127212Y231869D01*
X127147Y231785D01*
X127084Y231698D01*
X127025Y231610D01*
X126969Y231519D01*
X126916Y231426D01*
X126866Y231331D01*
X126820Y231235D01*
X126778Y231137D01*
X126739Y231038D01*
X126703Y230937D01*
X126671Y230835D01*
X126643Y230732D01*
X126618Y230628D01*
X126598Y230523D01*
X126580Y230418D01*
X126567Y230312D01*
X126558Y230205D01*
X126552Y230099D01*
X126550Y229992D01*
X129542Y232984D02*
X129663Y232982D01*
X129784Y232976D01*
X129904Y232967D01*
X130024Y232954D01*
X130144Y232937D01*
X130263Y232916D01*
X130381Y232891D01*
X130499Y232863D01*
X130615Y232831D01*
X130731Y232796D01*
X130845Y232756D01*
X130958Y232714D01*
X131070Y232667D01*
X131180Y232618D01*
X131288Y232564D01*
X131395Y232508D01*
X131500Y232448D01*
X131603Y232385D01*
X131704Y232318D01*
X131803Y232249D01*
X131900Y232176D01*
X131994Y232101D01*
X132086Y232022D01*
X132175Y231941D01*
X132262Y231856D01*
X132346Y231770D01*
X132427Y231680D01*
X132505Y231588D01*
X132581Y231494D01*
X132653Y231397D01*
X132723Y231298D01*
X132789Y231197D01*
X132852Y231094D01*
X132912Y230989D01*
X132968Y230882D01*
X133022Y230774D01*
X133071Y230664D01*
X133117Y230552D01*
X133160Y230439D01*
X133199Y230324D01*
X127547Y227665D02*
X127470Y227741D01*
X127396Y227819D01*
X127324Y227901D01*
X127254Y227984D01*
X127188Y228070D01*
X127125Y228158D01*
X127064Y228248D01*
X127007Y228340D01*
X126953Y228434D01*
X126902Y228530D01*
X126854Y228627D01*
X126810Y228726D01*
X126769Y228826D01*
X126731Y228928D01*
X126697Y229031D01*
X126666Y229135D01*
X126639Y229240D01*
X126616Y229346D01*
X126596Y229452D01*
X126579Y229560D01*
X126566Y229667D01*
X126557Y229775D01*
X126552Y229884D01*
X126550Y229992D01*
X127548Y227665D02*
X133199Y221016D01*
X126550Y221016D01*
X120600Y227000D02*
X120597Y227235D01*
X120589Y227471D01*
X120575Y227706D01*
X120555Y227940D01*
X120530Y228175D01*
X120499Y228408D01*
X120463Y228641D01*
X120421Y228872D01*
X120373Y229103D01*
X120320Y229332D01*
X120262Y229560D01*
X120198Y229787D01*
X120129Y230012D01*
X120054Y230235D01*
X119974Y230457D01*
X119889Y230676D01*
X119799Y230894D01*
X119703Y231109D01*
X119603Y231322D01*
X119602Y231322D02*
X119568Y231414D01*
X119531Y231505D01*
X119490Y231595D01*
X119445Y231683D01*
X119397Y231768D01*
X119346Y231852D01*
X119291Y231934D01*
X119233Y232014D01*
X119172Y232091D01*
X119107Y232165D01*
X119040Y232237D01*
X118970Y232307D01*
X118898Y232373D01*
X118822Y232436D01*
X118745Y232497D01*
X118665Y232554D01*
X118582Y232608D01*
X118498Y232659D01*
X118411Y232706D01*
X118323Y232749D01*
X118233Y232790D01*
X118142Y232826D01*
X118049Y232859D01*
X117955Y232888D01*
X117860Y232913D01*
X117764Y232935D01*
X117667Y232953D01*
X117570Y232966D01*
X117472Y232976D01*
X117373Y232982D01*
X117275Y232984D01*
X117177Y232982D01*
X117078Y232976D01*
X116980Y232966D01*
X116883Y232953D01*
X116786Y232935D01*
X116690Y232913D01*
X116595Y232888D01*
X116501Y232859D01*
X116408Y232826D01*
X116317Y232790D01*
X116227Y232749D01*
X116139Y232706D01*
X116052Y232659D01*
X115968Y232608D01*
X115885Y232554D01*
X115805Y232497D01*
X115728Y232436D01*
X115652Y232373D01*
X115580Y232307D01*
X115510Y232237D01*
X115443Y232165D01*
X115378Y232091D01*
X115317Y232014D01*
X115259Y231934D01*
X115204Y231852D01*
X115153Y231768D01*
X115105Y231682D01*
X115060Y231595D01*
X115019Y231505D01*
X114982Y231414D01*
X114948Y231322D01*
X114848Y231109D01*
X114752Y230894D01*
X114662Y230676D01*
X114577Y230457D01*
X114497Y230235D01*
X114422Y230012D01*
X114353Y229787D01*
X114289Y229560D01*
X114231Y229332D01*
X114178Y229103D01*
X114130Y228872D01*
X114088Y228640D01*
X114052Y228408D01*
X114021Y228174D01*
X113996Y227940D01*
X113976Y227706D01*
X113962Y227471D01*
X113954Y227235D01*
X113951Y227000D01*
X120599Y227000D02*
X120596Y226765D01*
X120588Y226529D01*
X120574Y226294D01*
X120554Y226060D01*
X120529Y225826D01*
X120498Y225592D01*
X120462Y225359D01*
X120420Y225128D01*
X120372Y224897D01*
X120319Y224668D01*
X120261Y224440D01*
X120197Y224213D01*
X120128Y223988D01*
X120053Y223765D01*
X119973Y223543D01*
X119888Y223324D01*
X119798Y223106D01*
X119702Y222891D01*
X119602Y222678D01*
X119568Y222586D01*
X119531Y222495D01*
X119490Y222405D01*
X119445Y222317D01*
X119397Y222232D01*
X119346Y222148D01*
X119291Y222066D01*
X119233Y221986D01*
X119172Y221909D01*
X119107Y221835D01*
X119040Y221763D01*
X118970Y221693D01*
X118898Y221627D01*
X118822Y221564D01*
X118745Y221503D01*
X118665Y221446D01*
X118582Y221392D01*
X118498Y221341D01*
X118411Y221294D01*
X118323Y221250D01*
X118233Y221210D01*
X118142Y221174D01*
X118049Y221141D01*
X117955Y221112D01*
X117860Y221087D01*
X117764Y221065D01*
X117667Y221047D01*
X117570Y221034D01*
X117472Y221024D01*
X117373Y221018D01*
X117275Y221016D01*
X114947Y222678D02*
X114847Y222891D01*
X114751Y223106D01*
X114661Y223323D01*
X114576Y223543D01*
X114496Y223765D01*
X114421Y223988D01*
X114352Y224213D01*
X114288Y224440D01*
X114230Y224668D01*
X114177Y224897D01*
X114129Y225128D01*
X114087Y225359D01*
X114051Y225592D01*
X114020Y225825D01*
X113995Y226060D01*
X113975Y226294D01*
X113961Y226529D01*
X113953Y226765D01*
X113950Y227000D01*
X114948Y222678D02*
X114982Y222586D01*
X115019Y222495D01*
X115060Y222405D01*
X115105Y222317D01*
X115153Y222232D01*
X115204Y222148D01*
X115259Y222066D01*
X115317Y221986D01*
X115378Y221909D01*
X115443Y221835D01*
X115510Y221763D01*
X115580Y221693D01*
X115652Y221627D01*
X115728Y221564D01*
X115805Y221503D01*
X115885Y221446D01*
X115968Y221392D01*
X116052Y221341D01*
X116139Y221294D01*
X116227Y221250D01*
X116317Y221210D01*
X116408Y221174D01*
X116501Y221141D01*
X116595Y221112D01*
X116690Y221087D01*
X116786Y221065D01*
X116883Y221047D01*
X116980Y221034D01*
X117078Y221024D01*
X117177Y221018D01*
X117275Y221016D01*
X119934Y223676D02*
X114615Y230324D01*
X104342Y232984D02*
X104235Y232982D01*
X104129Y232976D01*
X104022Y232967D01*
X103916Y232954D01*
X103811Y232936D01*
X103706Y232916D01*
X103602Y232891D01*
X103499Y232863D01*
X103397Y232831D01*
X103296Y232795D01*
X103197Y232756D01*
X103099Y232714D01*
X103003Y232668D01*
X102908Y232618D01*
X102815Y232565D01*
X102724Y232509D01*
X102636Y232450D01*
X102549Y232387D01*
X102465Y232322D01*
X102383Y232253D01*
X102303Y232182D01*
X102226Y232108D01*
X102152Y232031D01*
X102081Y231951D01*
X102012Y231869D01*
X101947Y231785D01*
X101884Y231698D01*
X101825Y231610D01*
X101769Y231519D01*
X101716Y231426D01*
X101666Y231331D01*
X101620Y231235D01*
X101578Y231137D01*
X101539Y231038D01*
X101503Y230937D01*
X101471Y230835D01*
X101443Y230732D01*
X101418Y230628D01*
X101398Y230523D01*
X101380Y230418D01*
X101367Y230312D01*
X101358Y230205D01*
X101352Y230099D01*
X101350Y229992D01*
X104342Y232984D02*
X104463Y232982D01*
X104584Y232976D01*
X104704Y232967D01*
X104824Y232954D01*
X104944Y232937D01*
X105063Y232916D01*
X105181Y232891D01*
X105299Y232863D01*
X105415Y232831D01*
X105531Y232796D01*
X105645Y232756D01*
X105758Y232714D01*
X105870Y232667D01*
X105980Y232618D01*
X106088Y232564D01*
X106195Y232508D01*
X106300Y232448D01*
X106403Y232385D01*
X106504Y232318D01*
X106603Y232249D01*
X106700Y232176D01*
X106794Y232101D01*
X106886Y232022D01*
X106975Y231941D01*
X107062Y231856D01*
X107146Y231770D01*
X107227Y231680D01*
X107305Y231588D01*
X107381Y231494D01*
X107453Y231397D01*
X107523Y231298D01*
X107589Y231197D01*
X107652Y231094D01*
X107712Y230989D01*
X107768Y230882D01*
X107822Y230774D01*
X107871Y230664D01*
X107917Y230552D01*
X107960Y230439D01*
X107999Y230324D01*
X102347Y227665D02*
X102270Y227741D01*
X102196Y227819D01*
X102124Y227901D01*
X102054Y227984D01*
X101988Y228070D01*
X101925Y228158D01*
X101864Y228248D01*
X101807Y228340D01*
X101753Y228434D01*
X101702Y228530D01*
X101654Y228627D01*
X101610Y228726D01*
X101569Y228826D01*
X101531Y228928D01*
X101497Y229031D01*
X101466Y229135D01*
X101439Y229240D01*
X101416Y229346D01*
X101396Y229452D01*
X101379Y229560D01*
X101366Y229667D01*
X101357Y229775D01*
X101352Y229884D01*
X101350Y229992D01*
X102348Y227665D02*
X107999Y221016D01*
X101350Y221016D01*
X95400Y227000D02*
X95397Y227235D01*
X95389Y227471D01*
X95375Y227706D01*
X95355Y227940D01*
X95330Y228175D01*
X95299Y228408D01*
X95263Y228641D01*
X95221Y228872D01*
X95173Y229103D01*
X95120Y229332D01*
X95062Y229560D01*
X94998Y229787D01*
X94929Y230012D01*
X94854Y230235D01*
X94774Y230457D01*
X94689Y230676D01*
X94599Y230894D01*
X94503Y231109D01*
X94403Y231322D01*
X94402Y231322D02*
X94368Y231414D01*
X94331Y231505D01*
X94290Y231595D01*
X94245Y231683D01*
X94197Y231768D01*
X94146Y231852D01*
X94091Y231934D01*
X94033Y232014D01*
X93972Y232091D01*
X93907Y232165D01*
X93840Y232237D01*
X93770Y232307D01*
X93698Y232373D01*
X93622Y232436D01*
X93545Y232497D01*
X93465Y232554D01*
X93382Y232608D01*
X93298Y232659D01*
X93211Y232706D01*
X93123Y232749D01*
X93033Y232790D01*
X92942Y232826D01*
X92849Y232859D01*
X92755Y232888D01*
X92660Y232913D01*
X92564Y232935D01*
X92467Y232953D01*
X92370Y232966D01*
X92272Y232976D01*
X92173Y232982D01*
X92075Y232984D01*
X91977Y232982D01*
X91878Y232976D01*
X91780Y232966D01*
X91683Y232953D01*
X91586Y232935D01*
X91490Y232913D01*
X91395Y232888D01*
X91301Y232859D01*
X91208Y232826D01*
X91117Y232790D01*
X91027Y232749D01*
X90939Y232706D01*
X90852Y232659D01*
X90768Y232608D01*
X90685Y232554D01*
X90605Y232497D01*
X90528Y232436D01*
X90452Y232373D01*
X90380Y232307D01*
X90310Y232237D01*
X90243Y232165D01*
X90178Y232091D01*
X90117Y232014D01*
X90059Y231934D01*
X90004Y231852D01*
X89953Y231768D01*
X89905Y231682D01*
X89860Y231595D01*
X89819Y231505D01*
X89782Y231414D01*
X89748Y231322D01*
X89648Y231109D01*
X89552Y230894D01*
X89462Y230676D01*
X89377Y230457D01*
X89297Y230235D01*
X89222Y230012D01*
X89153Y229787D01*
X89089Y229560D01*
X89031Y229332D01*
X88978Y229103D01*
X88930Y228872D01*
X88888Y228640D01*
X88852Y228408D01*
X88821Y228174D01*
X88796Y227940D01*
X88776Y227706D01*
X88762Y227471D01*
X88754Y227235D01*
X88751Y227000D01*
X95399Y227000D02*
X95396Y226765D01*
X95388Y226529D01*
X95374Y226294D01*
X95354Y226060D01*
X95329Y225826D01*
X95298Y225592D01*
X95262Y225359D01*
X95220Y225128D01*
X95172Y224897D01*
X95119Y224668D01*
X95061Y224440D01*
X94997Y224213D01*
X94928Y223988D01*
X94853Y223765D01*
X94773Y223543D01*
X94688Y223324D01*
X94598Y223106D01*
X94502Y222891D01*
X94402Y222678D01*
X94368Y222586D01*
X94331Y222495D01*
X94290Y222405D01*
X94245Y222317D01*
X94197Y222232D01*
X94146Y222148D01*
X94091Y222066D01*
X94033Y221986D01*
X93972Y221909D01*
X93907Y221835D01*
X93840Y221763D01*
X93770Y221693D01*
X93698Y221627D01*
X93622Y221564D01*
X93545Y221503D01*
X93465Y221446D01*
X93382Y221392D01*
X93298Y221341D01*
X93211Y221294D01*
X93123Y221250D01*
X93033Y221210D01*
X92942Y221174D01*
X92849Y221141D01*
X92755Y221112D01*
X92660Y221087D01*
X92564Y221065D01*
X92467Y221047D01*
X92370Y221034D01*
X92272Y221024D01*
X92173Y221018D01*
X92075Y221016D01*
X89747Y222678D02*
X89647Y222891D01*
X89551Y223106D01*
X89461Y223323D01*
X89376Y223543D01*
X89296Y223765D01*
X89221Y223988D01*
X89152Y224213D01*
X89088Y224440D01*
X89030Y224668D01*
X88977Y224897D01*
X88929Y225128D01*
X88887Y225359D01*
X88851Y225592D01*
X88820Y225825D01*
X88795Y226060D01*
X88775Y226294D01*
X88761Y226529D01*
X88753Y226765D01*
X88750Y227000D01*
X89748Y222678D02*
X89782Y222586D01*
X89819Y222495D01*
X89860Y222405D01*
X89905Y222317D01*
X89953Y222232D01*
X90004Y222148D01*
X90059Y222066D01*
X90117Y221986D01*
X90178Y221909D01*
X90243Y221835D01*
X90310Y221763D01*
X90380Y221693D01*
X90452Y221627D01*
X90528Y221564D01*
X90605Y221503D01*
X90685Y221446D01*
X90768Y221392D01*
X90852Y221341D01*
X90939Y221294D01*
X91027Y221250D01*
X91117Y221210D01*
X91208Y221174D01*
X91301Y221141D01*
X91395Y221112D01*
X91490Y221087D01*
X91586Y221065D01*
X91683Y221047D01*
X91780Y221034D01*
X91878Y221024D01*
X91977Y221018D01*
X92075Y221016D01*
X94734Y223676D02*
X89415Y230324D01*
X183984Y207984D02*
X183984Y196016D01*
X178665Y196016D01*
X174307Y196016D02*
X174307Y196681D01*
X173642Y196681D01*
X173642Y196016D01*
X174307Y196016D01*
X161304Y196016D02*
X161304Y207984D01*
X155985Y207984D01*
X155985Y202665D02*
X161304Y202665D01*
X150305Y207984D02*
X150305Y196016D01*
X150305Y207984D02*
X146980Y207984D01*
X146867Y207982D01*
X146753Y207976D01*
X146640Y207967D01*
X146527Y207953D01*
X146415Y207936D01*
X146304Y207914D01*
X146193Y207889D01*
X146083Y207861D01*
X145974Y207828D01*
X145867Y207792D01*
X145761Y207752D01*
X145656Y207709D01*
X145552Y207662D01*
X145451Y207611D01*
X145351Y207557D01*
X145253Y207500D01*
X145157Y207439D01*
X145063Y207376D01*
X144972Y207309D01*
X144882Y207238D01*
X144795Y207165D01*
X144711Y207089D01*
X144630Y207010D01*
X144551Y206929D01*
X144475Y206845D01*
X144402Y206758D01*
X144331Y206668D01*
X144264Y206577D01*
X144201Y206483D01*
X144140Y206387D01*
X144083Y206289D01*
X144029Y206189D01*
X143978Y206088D01*
X143931Y205984D01*
X143888Y205879D01*
X143848Y205773D01*
X143812Y205666D01*
X143779Y205557D01*
X143751Y205447D01*
X143726Y205336D01*
X143704Y205225D01*
X143687Y205113D01*
X143673Y205000D01*
X143664Y204887D01*
X143658Y204773D01*
X143656Y204660D01*
X143658Y204547D01*
X143664Y204433D01*
X143673Y204320D01*
X143687Y204207D01*
X143704Y204095D01*
X143726Y203984D01*
X143751Y203873D01*
X143779Y203763D01*
X143812Y203654D01*
X143848Y203547D01*
X143888Y203441D01*
X143931Y203336D01*
X143978Y203232D01*
X144029Y203131D01*
X144083Y203031D01*
X144140Y202933D01*
X144201Y202837D01*
X144264Y202743D01*
X144331Y202652D01*
X144402Y202562D01*
X144475Y202475D01*
X144551Y202391D01*
X144630Y202310D01*
X144711Y202231D01*
X144795Y202155D01*
X144882Y202082D01*
X144972Y202011D01*
X145063Y201944D01*
X145157Y201881D01*
X145253Y201820D01*
X145351Y201763D01*
X145451Y201709D01*
X145552Y201658D01*
X145656Y201611D01*
X145761Y201568D01*
X145867Y201528D01*
X145974Y201492D01*
X146083Y201459D01*
X146193Y201431D01*
X146304Y201406D01*
X146415Y201384D01*
X146527Y201367D01*
X146640Y201353D01*
X146753Y201344D01*
X146867Y201338D01*
X146980Y201336D01*
X146980Y201335D02*
X150305Y201335D01*
X146316Y201335D02*
X143656Y196016D01*
X138484Y196016D02*
X134495Y207984D01*
X130505Y196016D01*
X131503Y199008D02*
X137487Y199008D01*
X124799Y196016D02*
X124799Y207984D01*
X118150Y196016D01*
X118150Y207984D01*
X112199Y207984D02*
X105550Y207984D01*
X112199Y196016D01*
X105550Y196016D01*
X99337Y196016D02*
X99337Y207984D01*
X92688Y207984D02*
X99337Y200670D01*
X96677Y203330D02*
X92688Y196016D01*
X86964Y196016D02*
X81645Y196016D01*
X86964Y196016D02*
X86964Y207984D01*
X81645Y207984D01*
X82975Y202665D02*
X86964Y202665D01*
X183984Y309340D02*
X183984Y314660D01*
X183982Y314773D01*
X183976Y314887D01*
X183967Y315000D01*
X183953Y315113D01*
X183936Y315225D01*
X183914Y315336D01*
X183889Y315447D01*
X183861Y315557D01*
X183828Y315666D01*
X183792Y315773D01*
X183752Y315879D01*
X183709Y315984D01*
X183662Y316088D01*
X183611Y316189D01*
X183557Y316289D01*
X183500Y316387D01*
X183439Y316483D01*
X183376Y316577D01*
X183309Y316668D01*
X183238Y316758D01*
X183165Y316845D01*
X183089Y316929D01*
X183010Y317010D01*
X182929Y317089D01*
X182845Y317165D01*
X182758Y317238D01*
X182668Y317309D01*
X182577Y317376D01*
X182483Y317439D01*
X182387Y317500D01*
X182289Y317557D01*
X182189Y317611D01*
X182088Y317662D01*
X181984Y317709D01*
X181879Y317752D01*
X181773Y317792D01*
X181666Y317828D01*
X181557Y317861D01*
X181447Y317889D01*
X181336Y317914D01*
X181225Y317936D01*
X181113Y317953D01*
X181000Y317967D01*
X180887Y317976D01*
X180773Y317982D01*
X180660Y317984D01*
X180547Y317982D01*
X180433Y317976D01*
X180320Y317967D01*
X180207Y317953D01*
X180095Y317936D01*
X179984Y317914D01*
X179873Y317889D01*
X179763Y317861D01*
X179654Y317828D01*
X179547Y317792D01*
X179441Y317752D01*
X179336Y317709D01*
X179232Y317662D01*
X179131Y317611D01*
X179031Y317557D01*
X178933Y317500D01*
X178837Y317439D01*
X178743Y317376D01*
X178652Y317309D01*
X178562Y317238D01*
X178475Y317165D01*
X178391Y317089D01*
X178310Y317010D01*
X178231Y316929D01*
X178155Y316845D01*
X178082Y316758D01*
X178011Y316668D01*
X177944Y316577D01*
X177881Y316483D01*
X177820Y316387D01*
X177763Y316289D01*
X177709Y316189D01*
X177658Y316088D01*
X177611Y315984D01*
X177568Y315879D01*
X177528Y315773D01*
X177492Y315666D01*
X177459Y315557D01*
X177431Y315447D01*
X177406Y315336D01*
X177384Y315225D01*
X177367Y315113D01*
X177353Y315000D01*
X177344Y314887D01*
X177338Y314773D01*
X177336Y314660D01*
X177335Y314660D02*
X177335Y309340D01*
X177336Y309340D02*
X177338Y309227D01*
X177344Y309113D01*
X177353Y309000D01*
X177367Y308887D01*
X177384Y308775D01*
X177406Y308664D01*
X177431Y308553D01*
X177459Y308443D01*
X177492Y308334D01*
X177528Y308227D01*
X177568Y308121D01*
X177611Y308016D01*
X177658Y307912D01*
X177709Y307811D01*
X177763Y307711D01*
X177820Y307613D01*
X177881Y307517D01*
X177944Y307423D01*
X178011Y307332D01*
X178082Y307242D01*
X178155Y307155D01*
X178231Y307071D01*
X178310Y306990D01*
X178391Y306911D01*
X178475Y306835D01*
X178562Y306762D01*
X178652Y306691D01*
X178743Y306624D01*
X178837Y306561D01*
X178933Y306500D01*
X179031Y306443D01*
X179131Y306389D01*
X179232Y306338D01*
X179336Y306291D01*
X179441Y306248D01*
X179547Y306208D01*
X179654Y306172D01*
X179763Y306139D01*
X179873Y306111D01*
X179984Y306086D01*
X180095Y306064D01*
X180207Y306047D01*
X180320Y306033D01*
X180433Y306024D01*
X180547Y306018D01*
X180660Y306016D01*
X180773Y306018D01*
X180887Y306024D01*
X181000Y306033D01*
X181113Y306047D01*
X181225Y306064D01*
X181336Y306086D01*
X181447Y306111D01*
X181557Y306139D01*
X181666Y306172D01*
X181773Y306208D01*
X181879Y306248D01*
X181984Y306291D01*
X182088Y306338D01*
X182189Y306389D01*
X182289Y306443D01*
X182387Y306500D01*
X182483Y306561D01*
X182577Y306624D01*
X182668Y306691D01*
X182758Y306762D01*
X182845Y306835D01*
X182929Y306911D01*
X183010Y306990D01*
X183089Y307071D01*
X183165Y307155D01*
X183238Y307242D01*
X183309Y307332D01*
X183376Y307423D01*
X183439Y307517D01*
X183500Y307613D01*
X183557Y307711D01*
X183611Y307811D01*
X183662Y307912D01*
X183709Y308016D01*
X183752Y308121D01*
X183792Y308227D01*
X183828Y308334D01*
X183861Y308443D01*
X183889Y308553D01*
X183914Y308664D01*
X183936Y308775D01*
X183953Y308887D01*
X183967Y309000D01*
X183976Y309113D01*
X183982Y309227D01*
X183984Y309340D01*
X178665Y308676D02*
X176005Y306016D01*
X169391Y306016D02*
X166731Y306016D01*
X169391Y306016D02*
X169493Y306018D01*
X169595Y306024D01*
X169696Y306034D01*
X169797Y306047D01*
X169897Y306065D01*
X169997Y306086D01*
X170096Y306111D01*
X170194Y306140D01*
X170290Y306173D01*
X170385Y306209D01*
X170479Y306249D01*
X170571Y306292D01*
X170662Y306339D01*
X170750Y306390D01*
X170837Y306443D01*
X170921Y306500D01*
X171004Y306561D01*
X171083Y306624D01*
X171161Y306690D01*
X171236Y306759D01*
X171308Y306831D01*
X171377Y306906D01*
X171443Y306984D01*
X171506Y307063D01*
X171567Y307146D01*
X171624Y307230D01*
X171677Y307317D01*
X171728Y307405D01*
X171775Y307496D01*
X171818Y307588D01*
X171858Y307682D01*
X171894Y307777D01*
X171927Y307873D01*
X171956Y307971D01*
X171981Y308070D01*
X172002Y308170D01*
X172020Y308270D01*
X172033Y308371D01*
X172043Y308472D01*
X172049Y308574D01*
X172051Y308676D01*
X172050Y308676D02*
X172050Y315324D01*
X172051Y315324D02*
X172049Y315426D01*
X172043Y315528D01*
X172033Y315629D01*
X172020Y315730D01*
X172002Y315830D01*
X171981Y315930D01*
X171956Y316029D01*
X171927Y316127D01*
X171894Y316223D01*
X171858Y316318D01*
X171818Y316412D01*
X171775Y316504D01*
X171728Y316595D01*
X171677Y316683D01*
X171624Y316770D01*
X171567Y316854D01*
X171506Y316937D01*
X171443Y317016D01*
X171377Y317094D01*
X171308Y317169D01*
X171236Y317241D01*
X171161Y317310D01*
X171083Y317376D01*
X171004Y317439D01*
X170921Y317500D01*
X170837Y317557D01*
X170750Y317610D01*
X170662Y317661D01*
X170571Y317708D01*
X170479Y317751D01*
X170385Y317791D01*
X170290Y317827D01*
X170194Y317860D01*
X170096Y317889D01*
X169997Y317914D01*
X169897Y317935D01*
X169797Y317953D01*
X169696Y317966D01*
X169595Y317976D01*
X169493Y317982D01*
X169391Y317984D01*
X166731Y317984D01*
X157842Y317984D02*
X157735Y317982D01*
X157629Y317976D01*
X157522Y317967D01*
X157416Y317954D01*
X157311Y317936D01*
X157206Y317916D01*
X157102Y317891D01*
X156999Y317863D01*
X156897Y317831D01*
X156796Y317795D01*
X156697Y317756D01*
X156599Y317714D01*
X156503Y317668D01*
X156408Y317618D01*
X156315Y317565D01*
X156224Y317509D01*
X156136Y317450D01*
X156049Y317387D01*
X155965Y317322D01*
X155883Y317253D01*
X155803Y317182D01*
X155726Y317108D01*
X155652Y317031D01*
X155581Y316951D01*
X155512Y316869D01*
X155447Y316785D01*
X155384Y316698D01*
X155325Y316610D01*
X155269Y316519D01*
X155216Y316426D01*
X155166Y316331D01*
X155120Y316235D01*
X155078Y316137D01*
X155039Y316038D01*
X155003Y315937D01*
X154971Y315835D01*
X154943Y315732D01*
X154918Y315628D01*
X154898Y315523D01*
X154880Y315418D01*
X154867Y315312D01*
X154858Y315205D01*
X154852Y315099D01*
X154850Y314992D01*
X157842Y317984D02*
X157963Y317982D01*
X158084Y317976D01*
X158204Y317967D01*
X158324Y317954D01*
X158444Y317937D01*
X158563Y317916D01*
X158681Y317891D01*
X158799Y317863D01*
X158915Y317831D01*
X159031Y317796D01*
X159145Y317756D01*
X159258Y317714D01*
X159370Y317667D01*
X159480Y317618D01*
X159588Y317564D01*
X159695Y317508D01*
X159800Y317448D01*
X159903Y317385D01*
X160004Y317318D01*
X160103Y317249D01*
X160200Y317176D01*
X160294Y317101D01*
X160386Y317022D01*
X160475Y316941D01*
X160562Y316856D01*
X160646Y316770D01*
X160727Y316680D01*
X160805Y316588D01*
X160881Y316494D01*
X160953Y316397D01*
X161023Y316298D01*
X161089Y316197D01*
X161152Y316094D01*
X161212Y315989D01*
X161268Y315882D01*
X161322Y315774D01*
X161371Y315664D01*
X161417Y315552D01*
X161460Y315439D01*
X161499Y315324D01*
X155847Y312665D02*
X155770Y312741D01*
X155696Y312819D01*
X155624Y312901D01*
X155554Y312984D01*
X155488Y313070D01*
X155425Y313158D01*
X155364Y313248D01*
X155307Y313340D01*
X155253Y313434D01*
X155202Y313530D01*
X155154Y313627D01*
X155110Y313726D01*
X155069Y313826D01*
X155031Y313928D01*
X154997Y314031D01*
X154966Y314135D01*
X154939Y314240D01*
X154916Y314346D01*
X154896Y314452D01*
X154879Y314560D01*
X154866Y314667D01*
X154857Y314775D01*
X154852Y314884D01*
X154850Y314992D01*
X155847Y312665D02*
X161499Y306016D01*
X154850Y306016D01*
X140638Y314992D02*
X140683Y315066D01*
X140723Y315143D01*
X140761Y315221D01*
X140795Y315301D01*
X140825Y315382D01*
X140852Y315465D01*
X140875Y315548D01*
X140894Y315633D01*
X140910Y315718D01*
X140921Y315804D01*
X140929Y315891D01*
X140933Y315978D01*
X140934Y316064D01*
X140930Y316151D01*
X140923Y316237D01*
X140911Y316323D01*
X140896Y316409D01*
X140877Y316494D01*
X140855Y316577D01*
X140828Y316660D01*
X140799Y316742D01*
X140765Y316822D01*
X140728Y316900D01*
X140688Y316977D01*
X140644Y317052D01*
X140597Y317125D01*
X140546Y317195D01*
X140493Y317264D01*
X140437Y317330D01*
X140378Y317393D01*
X140316Y317454D01*
X140251Y317512D01*
X140184Y317567D01*
X140114Y317619D01*
X140043Y317668D01*
X139969Y317714D01*
X139893Y317756D01*
X139816Y317795D01*
X139736Y317830D01*
X139656Y317862D01*
X139574Y317891D01*
X139491Y317915D01*
X139406Y317936D01*
X139321Y317953D01*
X139236Y317967D01*
X139149Y317976D01*
X139063Y317982D01*
X138976Y317984D01*
X140638Y314992D02*
X134987Y306016D01*
X137314Y314992D02*
X137269Y315066D01*
X137228Y315143D01*
X137191Y315221D01*
X137157Y315301D01*
X137127Y315382D01*
X137100Y315465D01*
X137077Y315549D01*
X137058Y315633D01*
X137042Y315718D01*
X137031Y315804D01*
X137023Y315891D01*
X137019Y315978D01*
X137018Y316064D01*
X137022Y316151D01*
X137029Y316237D01*
X137041Y316324D01*
X137056Y316409D01*
X137075Y316494D01*
X137097Y316577D01*
X137124Y316660D01*
X137153Y316742D01*
X137187Y316822D01*
X137224Y316900D01*
X137264Y316977D01*
X137308Y317052D01*
X137355Y317125D01*
X137406Y317195D01*
X137459Y317264D01*
X137515Y317330D01*
X137574Y317393D01*
X137636Y317454D01*
X137701Y317512D01*
X137768Y317567D01*
X137838Y317619D01*
X137909Y317668D01*
X137983Y317714D01*
X138059Y317756D01*
X138136Y317795D01*
X138216Y317830D01*
X138296Y317862D01*
X138378Y317891D01*
X138461Y317915D01*
X138546Y317936D01*
X138631Y317953D01*
X138716Y317967D01*
X138803Y317976D01*
X138889Y317982D01*
X138976Y317984D01*
X141636Y308011D02*
X141634Y307924D01*
X141628Y307837D01*
X141619Y307751D01*
X141606Y307665D01*
X141589Y307579D01*
X141568Y307495D01*
X141544Y307411D01*
X141516Y307329D01*
X141484Y307248D01*
X141449Y307168D01*
X141411Y307090D01*
X141369Y307014D01*
X141324Y306939D01*
X141275Y306867D01*
X141224Y306797D01*
X141169Y306729D01*
X141112Y306663D01*
X141052Y306600D01*
X140989Y306540D01*
X140923Y306483D01*
X140855Y306428D01*
X140785Y306377D01*
X140713Y306328D01*
X140639Y306283D01*
X140562Y306241D01*
X140484Y306203D01*
X140404Y306168D01*
X140323Y306136D01*
X140241Y306108D01*
X140157Y306084D01*
X140073Y306063D01*
X139987Y306046D01*
X139901Y306033D01*
X139815Y306024D01*
X139728Y306018D01*
X139641Y306016D01*
X141635Y308011D02*
X141633Y308087D01*
X141628Y308164D01*
X141619Y308239D01*
X141607Y308315D01*
X141591Y308390D01*
X141572Y308464D01*
X141550Y308537D01*
X141524Y308608D01*
X141495Y308679D01*
X141463Y308748D01*
X141427Y308816D01*
X141389Y308882D01*
X141347Y308946D01*
X141303Y309008D01*
X137314Y314992D01*
X138644Y306348D02*
X138706Y306304D01*
X138770Y306262D01*
X138836Y306224D01*
X138904Y306188D01*
X138973Y306156D01*
X139044Y306127D01*
X139115Y306101D01*
X139188Y306079D01*
X139262Y306060D01*
X139337Y306044D01*
X139413Y306032D01*
X139488Y306023D01*
X139565Y306018D01*
X139641Y306016D01*
X138644Y306348D02*
X133657Y310005D01*
X121824Y309340D02*
X121824Y314660D01*
X121822Y314773D01*
X121816Y314887D01*
X121807Y315000D01*
X121793Y315113D01*
X121776Y315225D01*
X121754Y315336D01*
X121729Y315447D01*
X121701Y315557D01*
X121668Y315666D01*
X121632Y315773D01*
X121592Y315879D01*
X121549Y315984D01*
X121502Y316088D01*
X121451Y316189D01*
X121397Y316289D01*
X121340Y316387D01*
X121279Y316483D01*
X121216Y316577D01*
X121149Y316668D01*
X121078Y316758D01*
X121005Y316845D01*
X120929Y316929D01*
X120850Y317010D01*
X120769Y317089D01*
X120685Y317165D01*
X120598Y317238D01*
X120508Y317309D01*
X120417Y317376D01*
X120323Y317439D01*
X120227Y317500D01*
X120129Y317557D01*
X120029Y317611D01*
X119928Y317662D01*
X119824Y317709D01*
X119719Y317752D01*
X119613Y317792D01*
X119506Y317828D01*
X119397Y317861D01*
X119287Y317889D01*
X119176Y317914D01*
X119065Y317936D01*
X118953Y317953D01*
X118840Y317967D01*
X118727Y317976D01*
X118613Y317982D01*
X118500Y317984D01*
X118387Y317982D01*
X118273Y317976D01*
X118160Y317967D01*
X118047Y317953D01*
X117935Y317936D01*
X117824Y317914D01*
X117713Y317889D01*
X117603Y317861D01*
X117494Y317828D01*
X117387Y317792D01*
X117281Y317752D01*
X117176Y317709D01*
X117072Y317662D01*
X116971Y317611D01*
X116871Y317557D01*
X116773Y317500D01*
X116677Y317439D01*
X116583Y317376D01*
X116492Y317309D01*
X116402Y317238D01*
X116315Y317165D01*
X116231Y317089D01*
X116150Y317010D01*
X116071Y316929D01*
X115995Y316845D01*
X115922Y316758D01*
X115851Y316668D01*
X115784Y316577D01*
X115721Y316483D01*
X115660Y316387D01*
X115603Y316289D01*
X115549Y316189D01*
X115498Y316088D01*
X115451Y315984D01*
X115408Y315879D01*
X115368Y315773D01*
X115332Y315666D01*
X115299Y315557D01*
X115271Y315447D01*
X115246Y315336D01*
X115224Y315225D01*
X115207Y315113D01*
X115193Y315000D01*
X115184Y314887D01*
X115178Y314773D01*
X115176Y314660D01*
X115175Y314660D02*
X115175Y309340D01*
X115176Y309340D02*
X115178Y309227D01*
X115184Y309113D01*
X115193Y309000D01*
X115207Y308887D01*
X115224Y308775D01*
X115246Y308664D01*
X115271Y308553D01*
X115299Y308443D01*
X115332Y308334D01*
X115368Y308227D01*
X115408Y308121D01*
X115451Y308016D01*
X115498Y307912D01*
X115549Y307811D01*
X115603Y307711D01*
X115660Y307613D01*
X115721Y307517D01*
X115784Y307423D01*
X115851Y307332D01*
X115922Y307242D01*
X115995Y307155D01*
X116071Y307071D01*
X116150Y306990D01*
X116231Y306911D01*
X116315Y306835D01*
X116402Y306762D01*
X116492Y306691D01*
X116583Y306624D01*
X116677Y306561D01*
X116773Y306500D01*
X116871Y306443D01*
X116971Y306389D01*
X117072Y306338D01*
X117176Y306291D01*
X117281Y306248D01*
X117387Y306208D01*
X117494Y306172D01*
X117603Y306139D01*
X117713Y306111D01*
X117824Y306086D01*
X117935Y306064D01*
X118047Y306047D01*
X118160Y306033D01*
X118273Y306024D01*
X118387Y306018D01*
X118500Y306016D01*
X118613Y306018D01*
X118727Y306024D01*
X118840Y306033D01*
X118953Y306047D01*
X119065Y306064D01*
X119176Y306086D01*
X119287Y306111D01*
X119397Y306139D01*
X119506Y306172D01*
X119613Y306208D01*
X119719Y306248D01*
X119824Y306291D01*
X119928Y306338D01*
X120029Y306389D01*
X120129Y306443D01*
X120227Y306500D01*
X120323Y306561D01*
X120417Y306624D01*
X120508Y306691D01*
X120598Y306762D01*
X120685Y306835D01*
X120769Y306911D01*
X120850Y306990D01*
X120929Y307071D01*
X121005Y307155D01*
X121078Y307242D01*
X121149Y307332D01*
X121216Y307423D01*
X121279Y307517D01*
X121340Y307613D01*
X121397Y307711D01*
X121451Y307811D01*
X121502Y307912D01*
X121549Y308016D01*
X121592Y308121D01*
X121632Y308227D01*
X121668Y308334D01*
X121701Y308443D01*
X121729Y308553D01*
X121754Y308664D01*
X121776Y308775D01*
X121793Y308887D01*
X121807Y309000D01*
X121816Y309113D01*
X121822Y309227D01*
X121824Y309340D01*
X116505Y308676D02*
X113845Y306016D01*
X107231Y306016D02*
X104571Y306016D01*
X107231Y306016D02*
X107333Y306018D01*
X107435Y306024D01*
X107536Y306034D01*
X107637Y306047D01*
X107737Y306065D01*
X107837Y306086D01*
X107936Y306111D01*
X108034Y306140D01*
X108130Y306173D01*
X108225Y306209D01*
X108319Y306249D01*
X108411Y306292D01*
X108502Y306339D01*
X108590Y306390D01*
X108677Y306443D01*
X108761Y306500D01*
X108844Y306561D01*
X108923Y306624D01*
X109001Y306690D01*
X109076Y306759D01*
X109148Y306831D01*
X109217Y306906D01*
X109283Y306984D01*
X109346Y307063D01*
X109407Y307146D01*
X109464Y307230D01*
X109517Y307317D01*
X109568Y307405D01*
X109615Y307496D01*
X109658Y307588D01*
X109698Y307682D01*
X109734Y307777D01*
X109767Y307873D01*
X109796Y307971D01*
X109821Y308070D01*
X109842Y308170D01*
X109860Y308270D01*
X109873Y308371D01*
X109883Y308472D01*
X109889Y308574D01*
X109891Y308676D01*
X109890Y308676D02*
X109890Y315324D01*
X109891Y315324D02*
X109889Y315426D01*
X109883Y315528D01*
X109873Y315629D01*
X109860Y315730D01*
X109842Y315830D01*
X109821Y315930D01*
X109796Y316029D01*
X109767Y316127D01*
X109734Y316223D01*
X109698Y316318D01*
X109658Y316412D01*
X109615Y316504D01*
X109568Y316595D01*
X109517Y316683D01*
X109464Y316770D01*
X109407Y316854D01*
X109346Y316937D01*
X109283Y317016D01*
X109217Y317094D01*
X109148Y317169D01*
X109076Y317241D01*
X109001Y317310D01*
X108923Y317376D01*
X108844Y317439D01*
X108761Y317500D01*
X108677Y317557D01*
X108590Y317610D01*
X108502Y317661D01*
X108411Y317708D01*
X108319Y317751D01*
X108225Y317791D01*
X108130Y317827D01*
X108034Y317860D01*
X107936Y317889D01*
X107837Y317914D01*
X107737Y317935D01*
X107637Y317953D01*
X107536Y317966D01*
X107435Y317976D01*
X107333Y317982D01*
X107231Y317984D01*
X104571Y317984D01*
X99339Y306016D02*
X96014Y306016D01*
X95901Y306018D01*
X95787Y306024D01*
X95674Y306033D01*
X95561Y306047D01*
X95449Y306064D01*
X95338Y306086D01*
X95227Y306111D01*
X95117Y306139D01*
X95008Y306172D01*
X94901Y306208D01*
X94795Y306248D01*
X94690Y306291D01*
X94586Y306338D01*
X94485Y306389D01*
X94385Y306443D01*
X94287Y306500D01*
X94191Y306561D01*
X94097Y306624D01*
X94006Y306691D01*
X93916Y306762D01*
X93829Y306835D01*
X93745Y306911D01*
X93664Y306990D01*
X93585Y307071D01*
X93509Y307155D01*
X93436Y307242D01*
X93365Y307332D01*
X93298Y307423D01*
X93235Y307517D01*
X93174Y307613D01*
X93117Y307711D01*
X93063Y307811D01*
X93012Y307912D01*
X92965Y308016D01*
X92922Y308121D01*
X92882Y308227D01*
X92846Y308334D01*
X92813Y308443D01*
X92785Y308553D01*
X92760Y308664D01*
X92738Y308775D01*
X92721Y308887D01*
X92707Y309000D01*
X92698Y309113D01*
X92692Y309227D01*
X92690Y309340D01*
X92692Y309453D01*
X92698Y309567D01*
X92707Y309680D01*
X92721Y309793D01*
X92738Y309905D01*
X92760Y310016D01*
X92785Y310127D01*
X92813Y310237D01*
X92846Y310346D01*
X92882Y310453D01*
X92922Y310559D01*
X92965Y310664D01*
X93012Y310768D01*
X93063Y310869D01*
X93117Y310969D01*
X93174Y311067D01*
X93235Y311163D01*
X93298Y311257D01*
X93365Y311348D01*
X93436Y311438D01*
X93509Y311525D01*
X93585Y311609D01*
X93664Y311690D01*
X93745Y311769D01*
X93829Y311845D01*
X93916Y311918D01*
X94006Y311989D01*
X94097Y312056D01*
X94191Y312119D01*
X94287Y312180D01*
X94385Y312237D01*
X94485Y312291D01*
X94586Y312342D01*
X94690Y312389D01*
X94795Y312432D01*
X94901Y312472D01*
X95008Y312508D01*
X95117Y312541D01*
X95227Y312569D01*
X95338Y312594D01*
X95449Y312616D01*
X95561Y312633D01*
X95674Y312647D01*
X95787Y312656D01*
X95901Y312662D01*
X96014Y312664D01*
X95350Y317984D02*
X99339Y317984D01*
X95350Y317984D02*
X95248Y317982D01*
X95146Y317976D01*
X95045Y317966D01*
X94944Y317953D01*
X94844Y317935D01*
X94744Y317914D01*
X94645Y317889D01*
X94547Y317860D01*
X94451Y317827D01*
X94356Y317791D01*
X94262Y317751D01*
X94170Y317708D01*
X94079Y317661D01*
X93991Y317610D01*
X93904Y317557D01*
X93820Y317500D01*
X93737Y317439D01*
X93658Y317376D01*
X93580Y317310D01*
X93505Y317241D01*
X93433Y317169D01*
X93364Y317094D01*
X93298Y317016D01*
X93235Y316937D01*
X93174Y316854D01*
X93117Y316770D01*
X93064Y316683D01*
X93013Y316595D01*
X92966Y316504D01*
X92923Y316412D01*
X92883Y316318D01*
X92847Y316223D01*
X92814Y316127D01*
X92785Y316029D01*
X92760Y315930D01*
X92739Y315830D01*
X92721Y315730D01*
X92708Y315629D01*
X92698Y315528D01*
X92692Y315426D01*
X92690Y315324D01*
X92692Y315222D01*
X92698Y315120D01*
X92708Y315019D01*
X92721Y314918D01*
X92739Y314818D01*
X92760Y314718D01*
X92785Y314619D01*
X92814Y314521D01*
X92847Y314425D01*
X92883Y314330D01*
X92923Y314236D01*
X92966Y314144D01*
X93013Y314053D01*
X93064Y313965D01*
X93117Y313878D01*
X93174Y313794D01*
X93235Y313711D01*
X93298Y313632D01*
X93364Y313554D01*
X93433Y313479D01*
X93505Y313407D01*
X93580Y313338D01*
X93658Y313272D01*
X93737Y313209D01*
X93820Y313148D01*
X93904Y313091D01*
X93991Y313038D01*
X94079Y312987D01*
X94170Y312940D01*
X94262Y312897D01*
X94356Y312857D01*
X94451Y312821D01*
X94547Y312788D01*
X94645Y312759D01*
X94744Y312734D01*
X94844Y312713D01*
X94944Y312695D01*
X95045Y312682D01*
X95146Y312672D01*
X95248Y312666D01*
X95350Y312664D01*
X95350Y312665D02*
X98009Y312665D01*
M02*
