G04 EAGLE Gerber RS-274X export*
G75*
%MOMM*%
%FSLAX34Y34*%
%LPD*%
%INSilkscreen Top*%
%IPPOS*%
%AMOC8*
5,1,8,0,0,1.08239X$1,22.5*%
G01*
%ADD10C,0.127000*%
%ADD11C,0.203200*%
%ADD12C,0.254000*%
%ADD13C,0.025400*%
%ADD14C,0.050800*%
%ADD15C,0.076200*%
%ADD16C,0.101600*%
%ADD17C,0.254000*%


D10*
X235948Y166919D02*
X235948Y171745D01*
X237289Y171745D01*
X237360Y171743D01*
X237432Y171737D01*
X237502Y171728D01*
X237572Y171715D01*
X237642Y171698D01*
X237710Y171677D01*
X237777Y171653D01*
X237843Y171625D01*
X237907Y171594D01*
X237970Y171559D01*
X238030Y171521D01*
X238089Y171480D01*
X238145Y171436D01*
X238199Y171389D01*
X238250Y171340D01*
X238298Y171287D01*
X238344Y171232D01*
X238386Y171175D01*
X238426Y171115D01*
X238462Y171054D01*
X238495Y170990D01*
X238524Y170925D01*
X238550Y170859D01*
X238573Y170791D01*
X238592Y170722D01*
X238607Y170652D01*
X238618Y170582D01*
X238626Y170511D01*
X238630Y170440D01*
X238630Y170368D01*
X238626Y170297D01*
X238618Y170226D01*
X238607Y170156D01*
X238592Y170086D01*
X238573Y170017D01*
X238550Y169949D01*
X238524Y169883D01*
X238495Y169818D01*
X238462Y169754D01*
X238426Y169693D01*
X238386Y169633D01*
X238344Y169576D01*
X238298Y169521D01*
X238250Y169468D01*
X238199Y169419D01*
X238145Y169372D01*
X238089Y169328D01*
X238030Y169287D01*
X237970Y169249D01*
X237907Y169214D01*
X237843Y169183D01*
X237777Y169155D01*
X237710Y169131D01*
X237642Y169110D01*
X237572Y169093D01*
X237502Y169080D01*
X237432Y169071D01*
X237360Y169065D01*
X237289Y169063D01*
X237289Y169064D02*
X235948Y169064D01*
X237557Y169064D02*
X238629Y166919D01*
X241371Y170673D02*
X242711Y171745D01*
X242711Y166919D01*
X241371Y166919D02*
X244052Y166919D01*
X235948Y131745D02*
X235948Y126919D01*
X235948Y131745D02*
X237289Y131745D01*
X237360Y131743D01*
X237432Y131737D01*
X237502Y131728D01*
X237572Y131715D01*
X237642Y131698D01*
X237710Y131677D01*
X237777Y131653D01*
X237843Y131625D01*
X237907Y131594D01*
X237970Y131559D01*
X238030Y131521D01*
X238089Y131480D01*
X238145Y131436D01*
X238199Y131389D01*
X238250Y131340D01*
X238298Y131287D01*
X238344Y131232D01*
X238386Y131175D01*
X238426Y131115D01*
X238462Y131054D01*
X238495Y130990D01*
X238524Y130925D01*
X238550Y130859D01*
X238573Y130791D01*
X238592Y130722D01*
X238607Y130652D01*
X238618Y130582D01*
X238626Y130511D01*
X238630Y130440D01*
X238630Y130368D01*
X238626Y130297D01*
X238618Y130226D01*
X238607Y130156D01*
X238592Y130086D01*
X238573Y130017D01*
X238550Y129949D01*
X238524Y129883D01*
X238495Y129818D01*
X238462Y129754D01*
X238426Y129693D01*
X238386Y129633D01*
X238344Y129576D01*
X238298Y129521D01*
X238250Y129468D01*
X238199Y129419D01*
X238145Y129372D01*
X238089Y129328D01*
X238030Y129287D01*
X237970Y129249D01*
X237907Y129214D01*
X237843Y129183D01*
X237777Y129155D01*
X237710Y129131D01*
X237642Y129110D01*
X237572Y129093D01*
X237502Y129080D01*
X237432Y129071D01*
X237360Y129065D01*
X237289Y129063D01*
X237289Y129064D02*
X235948Y129064D01*
X237557Y129064D02*
X238629Y126919D01*
X242845Y131745D02*
X242913Y131743D01*
X242980Y131737D01*
X243047Y131728D01*
X243114Y131715D01*
X243179Y131698D01*
X243244Y131677D01*
X243307Y131653D01*
X243369Y131625D01*
X243429Y131594D01*
X243487Y131560D01*
X243543Y131522D01*
X243598Y131482D01*
X243649Y131438D01*
X243698Y131391D01*
X243745Y131342D01*
X243789Y131291D01*
X243829Y131236D01*
X243867Y131180D01*
X243901Y131122D01*
X243932Y131062D01*
X243960Y131000D01*
X243984Y130937D01*
X244005Y130872D01*
X244022Y130807D01*
X244035Y130740D01*
X244044Y130673D01*
X244050Y130606D01*
X244052Y130538D01*
X242845Y131745D02*
X242767Y131743D01*
X242689Y131737D01*
X242612Y131727D01*
X242535Y131714D01*
X242459Y131696D01*
X242384Y131675D01*
X242310Y131650D01*
X242238Y131621D01*
X242167Y131589D01*
X242098Y131553D01*
X242030Y131514D01*
X241965Y131471D01*
X241902Y131425D01*
X241841Y131376D01*
X241783Y131324D01*
X241728Y131269D01*
X241675Y131212D01*
X241626Y131152D01*
X241579Y131089D01*
X241536Y131025D01*
X241496Y130958D01*
X241459Y130889D01*
X241426Y130818D01*
X241396Y130746D01*
X241370Y130673D01*
X243650Y129600D02*
X243699Y129649D01*
X243746Y129701D01*
X243789Y129756D01*
X243830Y129813D01*
X243868Y129872D01*
X243902Y129933D01*
X243933Y129996D01*
X243961Y130060D01*
X243985Y130126D01*
X244005Y130192D01*
X244022Y130260D01*
X244035Y130329D01*
X244044Y130398D01*
X244050Y130468D01*
X244052Y130538D01*
X243650Y129600D02*
X241371Y126919D01*
X244052Y126919D01*
X235948Y228255D02*
X235948Y233081D01*
X237289Y233081D01*
X237360Y233079D01*
X237432Y233073D01*
X237502Y233064D01*
X237572Y233051D01*
X237642Y233034D01*
X237710Y233013D01*
X237777Y232989D01*
X237843Y232961D01*
X237907Y232930D01*
X237970Y232895D01*
X238030Y232857D01*
X238089Y232816D01*
X238145Y232772D01*
X238199Y232725D01*
X238250Y232676D01*
X238298Y232623D01*
X238344Y232568D01*
X238386Y232511D01*
X238426Y232451D01*
X238462Y232390D01*
X238495Y232326D01*
X238524Y232261D01*
X238550Y232195D01*
X238573Y232127D01*
X238592Y232058D01*
X238607Y231988D01*
X238618Y231918D01*
X238626Y231847D01*
X238630Y231776D01*
X238630Y231704D01*
X238626Y231633D01*
X238618Y231562D01*
X238607Y231492D01*
X238592Y231422D01*
X238573Y231353D01*
X238550Y231285D01*
X238524Y231219D01*
X238495Y231154D01*
X238462Y231090D01*
X238426Y231029D01*
X238386Y230969D01*
X238344Y230912D01*
X238298Y230857D01*
X238250Y230804D01*
X238199Y230755D01*
X238145Y230708D01*
X238089Y230664D01*
X238030Y230623D01*
X237970Y230585D01*
X237907Y230550D01*
X237843Y230519D01*
X237777Y230491D01*
X237710Y230467D01*
X237642Y230446D01*
X237572Y230429D01*
X237502Y230416D01*
X237432Y230407D01*
X237360Y230401D01*
X237289Y230399D01*
X237289Y230400D02*
X235948Y230400D01*
X237557Y230400D02*
X238629Y228255D01*
X241371Y228255D02*
X242711Y228255D01*
X242782Y228257D01*
X242854Y228263D01*
X242924Y228272D01*
X242994Y228285D01*
X243064Y228302D01*
X243132Y228323D01*
X243199Y228347D01*
X243265Y228375D01*
X243329Y228406D01*
X243392Y228441D01*
X243452Y228479D01*
X243511Y228520D01*
X243567Y228564D01*
X243621Y228611D01*
X243672Y228660D01*
X243720Y228713D01*
X243766Y228768D01*
X243808Y228825D01*
X243848Y228885D01*
X243884Y228946D01*
X243917Y229010D01*
X243946Y229075D01*
X243972Y229141D01*
X243995Y229209D01*
X244014Y229278D01*
X244029Y229348D01*
X244040Y229418D01*
X244048Y229489D01*
X244052Y229560D01*
X244052Y229632D01*
X244048Y229703D01*
X244040Y229774D01*
X244029Y229844D01*
X244014Y229914D01*
X243995Y229983D01*
X243972Y230051D01*
X243946Y230117D01*
X243917Y230182D01*
X243884Y230246D01*
X243848Y230307D01*
X243808Y230367D01*
X243766Y230424D01*
X243720Y230479D01*
X243672Y230532D01*
X243621Y230581D01*
X243567Y230628D01*
X243511Y230672D01*
X243452Y230713D01*
X243392Y230751D01*
X243329Y230786D01*
X243265Y230817D01*
X243199Y230845D01*
X243132Y230869D01*
X243064Y230890D01*
X242994Y230907D01*
X242924Y230920D01*
X242854Y230929D01*
X242782Y230935D01*
X242711Y230937D01*
X242979Y233081D02*
X241371Y233081D01*
X242979Y233081D02*
X243044Y233079D01*
X243108Y233073D01*
X243172Y233063D01*
X243236Y233050D01*
X243298Y233032D01*
X243359Y233011D01*
X243419Y232987D01*
X243477Y232958D01*
X243534Y232926D01*
X243588Y232891D01*
X243640Y232853D01*
X243690Y232811D01*
X243737Y232767D01*
X243781Y232720D01*
X243823Y232670D01*
X243861Y232618D01*
X243896Y232564D01*
X243928Y232507D01*
X243957Y232449D01*
X243981Y232389D01*
X244002Y232328D01*
X244020Y232266D01*
X244033Y232202D01*
X244043Y232138D01*
X244049Y232074D01*
X244051Y232009D01*
X244049Y231944D01*
X244043Y231880D01*
X244033Y231816D01*
X244020Y231752D01*
X244002Y231690D01*
X243981Y231629D01*
X243957Y231569D01*
X243928Y231511D01*
X243896Y231454D01*
X243861Y231400D01*
X243823Y231348D01*
X243781Y231298D01*
X243737Y231251D01*
X243690Y231207D01*
X243640Y231165D01*
X243588Y231127D01*
X243534Y231092D01*
X243477Y231060D01*
X243419Y231031D01*
X243359Y231007D01*
X243298Y230986D01*
X243236Y230968D01*
X243172Y230955D01*
X243108Y230945D01*
X243044Y230939D01*
X242979Y230937D01*
X242979Y230936D02*
X241907Y230936D01*
X235948Y133081D02*
X235948Y128255D01*
X235948Y133081D02*
X237289Y133081D01*
X237360Y133079D01*
X237432Y133073D01*
X237502Y133064D01*
X237572Y133051D01*
X237642Y133034D01*
X237710Y133013D01*
X237777Y132989D01*
X237843Y132961D01*
X237907Y132930D01*
X237970Y132895D01*
X238030Y132857D01*
X238089Y132816D01*
X238145Y132772D01*
X238199Y132725D01*
X238250Y132676D01*
X238298Y132623D01*
X238344Y132568D01*
X238386Y132511D01*
X238426Y132451D01*
X238462Y132390D01*
X238495Y132326D01*
X238524Y132261D01*
X238550Y132195D01*
X238573Y132127D01*
X238592Y132058D01*
X238607Y131988D01*
X238618Y131918D01*
X238626Y131847D01*
X238630Y131776D01*
X238630Y131704D01*
X238626Y131633D01*
X238618Y131562D01*
X238607Y131492D01*
X238592Y131422D01*
X238573Y131353D01*
X238550Y131285D01*
X238524Y131219D01*
X238495Y131154D01*
X238462Y131090D01*
X238426Y131029D01*
X238386Y130969D01*
X238344Y130912D01*
X238298Y130857D01*
X238250Y130804D01*
X238199Y130755D01*
X238145Y130708D01*
X238089Y130664D01*
X238030Y130623D01*
X237970Y130585D01*
X237907Y130550D01*
X237843Y130519D01*
X237777Y130491D01*
X237710Y130467D01*
X237642Y130446D01*
X237572Y130429D01*
X237502Y130416D01*
X237432Y130407D01*
X237360Y130401D01*
X237289Y130399D01*
X237289Y130400D02*
X235948Y130400D01*
X237557Y130400D02*
X238629Y128255D01*
X241371Y129327D02*
X242443Y133081D01*
X241371Y129327D02*
X244052Y129327D01*
X243248Y130400D02*
X243248Y128255D01*
X235948Y146919D02*
X235948Y151745D01*
X237289Y151745D01*
X237360Y151743D01*
X237432Y151737D01*
X237502Y151728D01*
X237572Y151715D01*
X237642Y151698D01*
X237710Y151677D01*
X237777Y151653D01*
X237843Y151625D01*
X237907Y151594D01*
X237970Y151559D01*
X238030Y151521D01*
X238089Y151480D01*
X238145Y151436D01*
X238199Y151389D01*
X238250Y151340D01*
X238298Y151287D01*
X238344Y151232D01*
X238386Y151175D01*
X238426Y151115D01*
X238462Y151054D01*
X238495Y150990D01*
X238524Y150925D01*
X238550Y150859D01*
X238573Y150791D01*
X238592Y150722D01*
X238607Y150652D01*
X238618Y150582D01*
X238626Y150511D01*
X238630Y150440D01*
X238630Y150368D01*
X238626Y150297D01*
X238618Y150226D01*
X238607Y150156D01*
X238592Y150086D01*
X238573Y150017D01*
X238550Y149949D01*
X238524Y149883D01*
X238495Y149818D01*
X238462Y149754D01*
X238426Y149693D01*
X238386Y149633D01*
X238344Y149576D01*
X238298Y149521D01*
X238250Y149468D01*
X238199Y149419D01*
X238145Y149372D01*
X238089Y149328D01*
X238030Y149287D01*
X237970Y149249D01*
X237907Y149214D01*
X237843Y149183D01*
X237777Y149155D01*
X237710Y149131D01*
X237642Y149110D01*
X237572Y149093D01*
X237502Y149080D01*
X237432Y149071D01*
X237360Y149065D01*
X237289Y149063D01*
X237289Y149064D02*
X235948Y149064D01*
X237557Y149064D02*
X238629Y146919D01*
X241371Y146919D02*
X242979Y146919D01*
X243044Y146921D01*
X243108Y146927D01*
X243172Y146937D01*
X243236Y146950D01*
X243298Y146968D01*
X243359Y146989D01*
X243419Y147013D01*
X243477Y147042D01*
X243534Y147074D01*
X243588Y147109D01*
X243640Y147147D01*
X243690Y147189D01*
X243737Y147233D01*
X243781Y147280D01*
X243823Y147330D01*
X243861Y147382D01*
X243896Y147436D01*
X243928Y147493D01*
X243957Y147551D01*
X243981Y147611D01*
X244002Y147672D01*
X244020Y147734D01*
X244033Y147798D01*
X244043Y147862D01*
X244049Y147926D01*
X244051Y147991D01*
X244052Y147991D02*
X244052Y148528D01*
X244051Y148528D02*
X244049Y148593D01*
X244043Y148657D01*
X244033Y148721D01*
X244020Y148785D01*
X244002Y148847D01*
X243981Y148908D01*
X243957Y148968D01*
X243928Y149026D01*
X243896Y149083D01*
X243861Y149137D01*
X243823Y149189D01*
X243781Y149239D01*
X243737Y149286D01*
X243690Y149330D01*
X243640Y149372D01*
X243588Y149410D01*
X243534Y149445D01*
X243477Y149477D01*
X243419Y149506D01*
X243359Y149530D01*
X243298Y149551D01*
X243236Y149569D01*
X243172Y149582D01*
X243108Y149592D01*
X243044Y149598D01*
X242979Y149600D01*
X241371Y149600D01*
X241371Y151745D01*
X244052Y151745D01*
X235948Y186919D02*
X235948Y191745D01*
X237289Y191745D01*
X237360Y191743D01*
X237432Y191737D01*
X237502Y191728D01*
X237572Y191715D01*
X237642Y191698D01*
X237710Y191677D01*
X237777Y191653D01*
X237843Y191625D01*
X237907Y191594D01*
X237970Y191559D01*
X238030Y191521D01*
X238089Y191480D01*
X238145Y191436D01*
X238199Y191389D01*
X238250Y191340D01*
X238298Y191287D01*
X238344Y191232D01*
X238386Y191175D01*
X238426Y191115D01*
X238462Y191054D01*
X238495Y190990D01*
X238524Y190925D01*
X238550Y190859D01*
X238573Y190791D01*
X238592Y190722D01*
X238607Y190652D01*
X238618Y190582D01*
X238626Y190511D01*
X238630Y190440D01*
X238630Y190368D01*
X238626Y190297D01*
X238618Y190226D01*
X238607Y190156D01*
X238592Y190086D01*
X238573Y190017D01*
X238550Y189949D01*
X238524Y189883D01*
X238495Y189818D01*
X238462Y189754D01*
X238426Y189693D01*
X238386Y189633D01*
X238344Y189576D01*
X238298Y189521D01*
X238250Y189468D01*
X238199Y189419D01*
X238145Y189372D01*
X238089Y189328D01*
X238030Y189287D01*
X237970Y189249D01*
X237907Y189214D01*
X237843Y189183D01*
X237777Y189155D01*
X237710Y189131D01*
X237642Y189110D01*
X237572Y189093D01*
X237502Y189080D01*
X237432Y189071D01*
X237360Y189065D01*
X237289Y189063D01*
X237289Y189064D02*
X235948Y189064D01*
X237557Y189064D02*
X238629Y186919D01*
X241371Y189600D02*
X242979Y189600D01*
X243044Y189598D01*
X243108Y189592D01*
X243172Y189582D01*
X243236Y189569D01*
X243298Y189551D01*
X243359Y189530D01*
X243419Y189506D01*
X243477Y189477D01*
X243534Y189445D01*
X243588Y189410D01*
X243640Y189372D01*
X243690Y189330D01*
X243737Y189286D01*
X243781Y189239D01*
X243823Y189189D01*
X243861Y189137D01*
X243896Y189083D01*
X243928Y189026D01*
X243957Y188968D01*
X243981Y188908D01*
X244002Y188847D01*
X244020Y188785D01*
X244033Y188721D01*
X244043Y188657D01*
X244049Y188593D01*
X244051Y188528D01*
X244052Y188528D02*
X244052Y188260D01*
X244050Y188189D01*
X244044Y188117D01*
X244035Y188047D01*
X244022Y187977D01*
X244005Y187907D01*
X243984Y187839D01*
X243960Y187772D01*
X243932Y187706D01*
X243901Y187642D01*
X243866Y187579D01*
X243828Y187519D01*
X243787Y187460D01*
X243743Y187404D01*
X243696Y187350D01*
X243647Y187299D01*
X243594Y187251D01*
X243539Y187205D01*
X243482Y187163D01*
X243422Y187123D01*
X243361Y187087D01*
X243297Y187054D01*
X243232Y187025D01*
X243166Y186999D01*
X243098Y186976D01*
X243029Y186957D01*
X242959Y186942D01*
X242889Y186931D01*
X242818Y186923D01*
X242747Y186919D01*
X242675Y186919D01*
X242604Y186923D01*
X242533Y186931D01*
X242463Y186942D01*
X242393Y186957D01*
X242324Y186976D01*
X242256Y186999D01*
X242190Y187025D01*
X242125Y187054D01*
X242061Y187087D01*
X242000Y187123D01*
X241940Y187163D01*
X241883Y187205D01*
X241828Y187251D01*
X241775Y187299D01*
X241726Y187350D01*
X241679Y187404D01*
X241635Y187460D01*
X241594Y187519D01*
X241556Y187579D01*
X241521Y187642D01*
X241490Y187706D01*
X241462Y187772D01*
X241438Y187839D01*
X241417Y187907D01*
X241400Y187977D01*
X241387Y188047D01*
X241378Y188117D01*
X241372Y188189D01*
X241370Y188260D01*
X241371Y188260D02*
X241371Y189600D01*
X241373Y189691D01*
X241379Y189782D01*
X241388Y189872D01*
X241402Y189963D01*
X241419Y190052D01*
X241440Y190140D01*
X241465Y190228D01*
X241494Y190315D01*
X241526Y190400D01*
X241561Y190484D01*
X241601Y190566D01*
X241643Y190646D01*
X241689Y190725D01*
X241739Y190801D01*
X241791Y190875D01*
X241847Y190948D01*
X241906Y191017D01*
X241967Y191084D01*
X242032Y191149D01*
X242099Y191210D01*
X242168Y191269D01*
X242240Y191325D01*
X242315Y191377D01*
X242391Y191427D01*
X242470Y191473D01*
X242550Y191515D01*
X242632Y191555D01*
X242716Y191590D01*
X242801Y191622D01*
X242888Y191651D01*
X242975Y191676D01*
X243064Y191697D01*
X243153Y191714D01*
X243244Y191728D01*
X243334Y191737D01*
X243425Y191743D01*
X243516Y191745D01*
D11*
X67104Y132570D02*
X58516Y132570D01*
X58516Y107170D02*
X67104Y107170D01*
X55722Y117186D02*
X55722Y122554D01*
D12*
X72970Y103868D03*
D13*
X40035Y111107D02*
X37283Y111107D01*
X40035Y111107D02*
X40099Y111109D01*
X40163Y111115D01*
X40226Y111124D01*
X40288Y111138D01*
X40350Y111155D01*
X40410Y111176D01*
X40469Y111200D01*
X40527Y111228D01*
X40582Y111260D01*
X40636Y111294D01*
X40687Y111332D01*
X40737Y111373D01*
X40783Y111417D01*
X40827Y111463D01*
X40868Y111513D01*
X40906Y111564D01*
X40940Y111618D01*
X40972Y111673D01*
X41000Y111731D01*
X41024Y111790D01*
X41045Y111850D01*
X41062Y111912D01*
X41076Y111974D01*
X41085Y112037D01*
X41091Y112101D01*
X41093Y112165D01*
X41091Y112229D01*
X41085Y112293D01*
X41076Y112356D01*
X41062Y112418D01*
X41045Y112480D01*
X41024Y112540D01*
X41000Y112599D01*
X40972Y112657D01*
X40940Y112712D01*
X40906Y112766D01*
X40868Y112817D01*
X40827Y112867D01*
X40783Y112913D01*
X40737Y112957D01*
X40687Y112998D01*
X40636Y113036D01*
X40582Y113070D01*
X40527Y113102D01*
X40469Y113130D01*
X40410Y113154D01*
X40350Y113175D01*
X40288Y113192D01*
X40226Y113206D01*
X40163Y113215D01*
X40099Y113221D01*
X40035Y113223D01*
X40035Y113224D02*
X37283Y113224D01*
X38130Y114887D02*
X37283Y115945D01*
X41093Y115945D01*
X41093Y114887D02*
X41093Y117003D01*
D11*
X91720Y52290D02*
X91720Y34290D01*
X178120Y34290D02*
X178120Y52290D01*
D14*
X132575Y13076D02*
X132575Y7544D01*
X132574Y7544D02*
X132572Y7466D01*
X132566Y7389D01*
X132557Y7312D01*
X132544Y7236D01*
X132527Y7160D01*
X132506Y7085D01*
X132482Y7012D01*
X132454Y6939D01*
X132422Y6868D01*
X132387Y6799D01*
X132349Y6732D01*
X132308Y6666D01*
X132263Y6603D01*
X132215Y6542D01*
X132165Y6483D01*
X132111Y6427D01*
X132055Y6373D01*
X131996Y6323D01*
X131935Y6275D01*
X131872Y6230D01*
X131806Y6189D01*
X131739Y6151D01*
X131670Y6116D01*
X131599Y6084D01*
X131526Y6056D01*
X131453Y6032D01*
X131378Y6011D01*
X131302Y5994D01*
X131226Y5981D01*
X131149Y5972D01*
X131072Y5966D01*
X130994Y5964D01*
X130204Y5964D01*
X135685Y11496D02*
X137660Y13076D01*
X137660Y5964D01*
X135685Y5964D02*
X139636Y5964D01*
D15*
X220068Y363181D02*
X220068Y370547D01*
X222524Y366455D01*
X224979Y370547D01*
X224979Y363181D01*
X228886Y363181D02*
X228886Y370547D01*
X230932Y370547D01*
X231021Y370545D01*
X231110Y370539D01*
X231199Y370529D01*
X231287Y370516D01*
X231375Y370499D01*
X231462Y370477D01*
X231547Y370452D01*
X231632Y370424D01*
X231715Y370391D01*
X231797Y370355D01*
X231877Y370316D01*
X231955Y370273D01*
X232031Y370227D01*
X232106Y370177D01*
X232178Y370124D01*
X232247Y370068D01*
X232314Y370009D01*
X232379Y369948D01*
X232440Y369883D01*
X232499Y369816D01*
X232555Y369747D01*
X232608Y369675D01*
X232658Y369600D01*
X232704Y369524D01*
X232747Y369446D01*
X232786Y369366D01*
X232822Y369284D01*
X232855Y369201D01*
X232883Y369116D01*
X232908Y369031D01*
X232930Y368944D01*
X232947Y368856D01*
X232960Y368768D01*
X232970Y368679D01*
X232976Y368590D01*
X232978Y368501D01*
X232976Y368412D01*
X232970Y368323D01*
X232960Y368234D01*
X232947Y368146D01*
X232930Y368058D01*
X232908Y367971D01*
X232883Y367886D01*
X232855Y367801D01*
X232822Y367718D01*
X232786Y367636D01*
X232747Y367556D01*
X232704Y367478D01*
X232658Y367402D01*
X232608Y367327D01*
X232555Y367255D01*
X232499Y367186D01*
X232440Y367119D01*
X232379Y367054D01*
X232314Y366993D01*
X232247Y366934D01*
X232178Y366878D01*
X232106Y366825D01*
X232031Y366775D01*
X231955Y366729D01*
X231877Y366686D01*
X231797Y366647D01*
X231715Y366611D01*
X231632Y366578D01*
X231547Y366550D01*
X231462Y366525D01*
X231375Y366503D01*
X231287Y366486D01*
X231199Y366473D01*
X231110Y366463D01*
X231021Y366457D01*
X230932Y366455D01*
X228886Y366455D01*
X235839Y368910D02*
X237886Y370547D01*
X237886Y363181D01*
X239932Y363181D02*
X235839Y363181D01*
X220068Y80547D02*
X220068Y73181D01*
X222524Y76455D02*
X220068Y80547D01*
X222524Y76455D02*
X224979Y80547D01*
X224979Y73181D01*
X228886Y73181D02*
X228886Y80547D01*
X230932Y80547D01*
X231021Y80545D01*
X231110Y80539D01*
X231199Y80529D01*
X231287Y80516D01*
X231375Y80499D01*
X231462Y80477D01*
X231547Y80452D01*
X231632Y80424D01*
X231715Y80391D01*
X231797Y80355D01*
X231877Y80316D01*
X231955Y80273D01*
X232031Y80227D01*
X232106Y80177D01*
X232178Y80124D01*
X232247Y80068D01*
X232314Y80009D01*
X232379Y79948D01*
X232440Y79883D01*
X232499Y79816D01*
X232555Y79747D01*
X232608Y79675D01*
X232658Y79600D01*
X232704Y79524D01*
X232747Y79446D01*
X232786Y79366D01*
X232822Y79284D01*
X232855Y79201D01*
X232883Y79116D01*
X232908Y79031D01*
X232930Y78944D01*
X232947Y78856D01*
X232960Y78768D01*
X232970Y78679D01*
X232976Y78590D01*
X232978Y78501D01*
X232976Y78412D01*
X232970Y78323D01*
X232960Y78234D01*
X232947Y78146D01*
X232930Y78058D01*
X232908Y77971D01*
X232883Y77886D01*
X232855Y77801D01*
X232822Y77718D01*
X232786Y77636D01*
X232747Y77556D01*
X232704Y77478D01*
X232658Y77402D01*
X232608Y77327D01*
X232555Y77255D01*
X232499Y77186D01*
X232440Y77119D01*
X232379Y77054D01*
X232314Y76993D01*
X232247Y76934D01*
X232178Y76878D01*
X232106Y76825D01*
X232031Y76775D01*
X231955Y76729D01*
X231877Y76686D01*
X231797Y76647D01*
X231715Y76611D01*
X231632Y76578D01*
X231547Y76550D01*
X231462Y76525D01*
X231375Y76503D01*
X231287Y76486D01*
X231199Y76473D01*
X231110Y76463D01*
X231021Y76457D01*
X230932Y76455D01*
X228886Y76455D01*
X238090Y80548D02*
X238175Y80546D01*
X238260Y80540D01*
X238344Y80530D01*
X238428Y80517D01*
X238512Y80499D01*
X238594Y80478D01*
X238675Y80453D01*
X238755Y80424D01*
X238834Y80391D01*
X238911Y80355D01*
X238986Y80315D01*
X239060Y80272D01*
X239131Y80226D01*
X239200Y80176D01*
X239267Y80123D01*
X239331Y80067D01*
X239392Y80008D01*
X239451Y79947D01*
X239507Y79883D01*
X239560Y79816D01*
X239610Y79747D01*
X239656Y79676D01*
X239699Y79602D01*
X239739Y79527D01*
X239775Y79450D01*
X239808Y79371D01*
X239837Y79291D01*
X239862Y79210D01*
X239883Y79128D01*
X239901Y79044D01*
X239914Y78960D01*
X239924Y78876D01*
X239930Y78791D01*
X239932Y78706D01*
X238090Y80547D02*
X237994Y80545D01*
X237898Y80539D01*
X237803Y80529D01*
X237708Y80516D01*
X237613Y80498D01*
X237520Y80477D01*
X237427Y80452D01*
X237336Y80423D01*
X237245Y80391D01*
X237156Y80355D01*
X237069Y80315D01*
X236983Y80272D01*
X236899Y80226D01*
X236817Y80176D01*
X236737Y80122D01*
X236660Y80066D01*
X236585Y80006D01*
X236512Y79944D01*
X236442Y79878D01*
X236374Y79810D01*
X236309Y79739D01*
X236248Y79666D01*
X236189Y79590D01*
X236133Y79511D01*
X236081Y79431D01*
X236032Y79348D01*
X235986Y79264D01*
X235944Y79178D01*
X235906Y79090D01*
X235871Y79001D01*
X235839Y78910D01*
X239318Y77274D02*
X239378Y77333D01*
X239435Y77395D01*
X239490Y77459D01*
X239541Y77526D01*
X239590Y77595D01*
X239636Y77665D01*
X239679Y77738D01*
X239719Y77812D01*
X239755Y77888D01*
X239788Y77966D01*
X239818Y78045D01*
X239845Y78125D01*
X239868Y78206D01*
X239887Y78288D01*
X239903Y78370D01*
X239916Y78454D01*
X239925Y78538D01*
X239930Y78622D01*
X239932Y78706D01*
X239318Y77273D02*
X235839Y73181D01*
X239932Y73181D01*
X30068Y363181D02*
X30068Y370547D01*
X32524Y366455D01*
X34979Y370547D01*
X34979Y363181D01*
X38886Y363181D02*
X38886Y370547D01*
X40932Y370547D01*
X41021Y370545D01*
X41110Y370539D01*
X41199Y370529D01*
X41287Y370516D01*
X41375Y370499D01*
X41462Y370477D01*
X41547Y370452D01*
X41632Y370424D01*
X41715Y370391D01*
X41797Y370355D01*
X41877Y370316D01*
X41955Y370273D01*
X42031Y370227D01*
X42106Y370177D01*
X42178Y370124D01*
X42247Y370068D01*
X42314Y370009D01*
X42379Y369948D01*
X42440Y369883D01*
X42499Y369816D01*
X42555Y369747D01*
X42608Y369675D01*
X42658Y369600D01*
X42704Y369524D01*
X42747Y369446D01*
X42786Y369366D01*
X42822Y369284D01*
X42855Y369201D01*
X42883Y369116D01*
X42908Y369031D01*
X42930Y368944D01*
X42947Y368856D01*
X42960Y368768D01*
X42970Y368679D01*
X42976Y368590D01*
X42978Y368501D01*
X42976Y368412D01*
X42970Y368323D01*
X42960Y368234D01*
X42947Y368146D01*
X42930Y368058D01*
X42908Y367971D01*
X42883Y367886D01*
X42855Y367801D01*
X42822Y367718D01*
X42786Y367636D01*
X42747Y367556D01*
X42704Y367478D01*
X42658Y367402D01*
X42608Y367327D01*
X42555Y367255D01*
X42499Y367186D01*
X42440Y367119D01*
X42379Y367054D01*
X42314Y366993D01*
X42247Y366934D01*
X42178Y366878D01*
X42106Y366825D01*
X42031Y366775D01*
X41955Y366729D01*
X41877Y366686D01*
X41797Y366647D01*
X41715Y366611D01*
X41632Y366578D01*
X41547Y366550D01*
X41462Y366525D01*
X41375Y366503D01*
X41287Y366486D01*
X41199Y366473D01*
X41110Y366463D01*
X41021Y366457D01*
X40932Y366455D01*
X38886Y366455D01*
X45839Y363181D02*
X47886Y363181D01*
X47975Y363183D01*
X48064Y363189D01*
X48153Y363199D01*
X48241Y363212D01*
X48329Y363229D01*
X48416Y363251D01*
X48501Y363276D01*
X48586Y363304D01*
X48669Y363337D01*
X48751Y363373D01*
X48831Y363412D01*
X48909Y363455D01*
X48985Y363501D01*
X49060Y363551D01*
X49132Y363604D01*
X49201Y363660D01*
X49268Y363719D01*
X49333Y363780D01*
X49394Y363845D01*
X49453Y363912D01*
X49509Y363981D01*
X49562Y364053D01*
X49612Y364128D01*
X49658Y364204D01*
X49701Y364282D01*
X49740Y364362D01*
X49776Y364444D01*
X49809Y364527D01*
X49837Y364612D01*
X49862Y364697D01*
X49884Y364784D01*
X49901Y364872D01*
X49914Y364960D01*
X49924Y365049D01*
X49930Y365138D01*
X49932Y365227D01*
X49930Y365316D01*
X49924Y365405D01*
X49914Y365494D01*
X49901Y365582D01*
X49884Y365670D01*
X49862Y365757D01*
X49837Y365842D01*
X49809Y365927D01*
X49776Y366010D01*
X49740Y366092D01*
X49701Y366172D01*
X49658Y366250D01*
X49612Y366326D01*
X49562Y366401D01*
X49509Y366473D01*
X49453Y366542D01*
X49394Y366609D01*
X49333Y366674D01*
X49268Y366735D01*
X49201Y366794D01*
X49132Y366850D01*
X49060Y366903D01*
X48985Y366953D01*
X48909Y366999D01*
X48831Y367042D01*
X48751Y367081D01*
X48669Y367117D01*
X48586Y367150D01*
X48501Y367178D01*
X48416Y367203D01*
X48329Y367225D01*
X48241Y367242D01*
X48153Y367255D01*
X48064Y367265D01*
X47975Y367271D01*
X47886Y367273D01*
X48295Y370547D02*
X45839Y370547D01*
X48295Y370547D02*
X48374Y370545D01*
X48453Y370539D01*
X48532Y370530D01*
X48610Y370517D01*
X48687Y370499D01*
X48763Y370479D01*
X48838Y370454D01*
X48912Y370426D01*
X48985Y370395D01*
X49056Y370359D01*
X49125Y370321D01*
X49192Y370279D01*
X49257Y370234D01*
X49320Y370186D01*
X49381Y370135D01*
X49438Y370081D01*
X49494Y370025D01*
X49546Y369966D01*
X49596Y369904D01*
X49642Y369840D01*
X49686Y369774D01*
X49726Y369706D01*
X49762Y369636D01*
X49796Y369564D01*
X49826Y369490D01*
X49852Y369416D01*
X49875Y369340D01*
X49893Y369263D01*
X49909Y369186D01*
X49920Y369107D01*
X49928Y369029D01*
X49932Y368950D01*
X49932Y368870D01*
X49928Y368791D01*
X49920Y368713D01*
X49909Y368634D01*
X49893Y368557D01*
X49875Y368480D01*
X49852Y368404D01*
X49826Y368330D01*
X49796Y368256D01*
X49762Y368184D01*
X49726Y368114D01*
X49686Y368046D01*
X49642Y367980D01*
X49596Y367916D01*
X49546Y367854D01*
X49494Y367795D01*
X49438Y367739D01*
X49381Y367685D01*
X49320Y367634D01*
X49257Y367586D01*
X49192Y367541D01*
X49125Y367499D01*
X49056Y367461D01*
X48985Y367425D01*
X48912Y367394D01*
X48838Y367366D01*
X48763Y367341D01*
X48687Y367321D01*
X48610Y367303D01*
X48532Y367290D01*
X48453Y367281D01*
X48374Y367275D01*
X48295Y367273D01*
X46658Y367273D01*
X30068Y80547D02*
X30068Y73181D01*
X32524Y76455D02*
X30068Y80547D01*
X32524Y76455D02*
X34979Y80547D01*
X34979Y73181D01*
X38886Y73181D02*
X38886Y80547D01*
X40932Y80547D01*
X41021Y80545D01*
X41110Y80539D01*
X41199Y80529D01*
X41287Y80516D01*
X41375Y80499D01*
X41462Y80477D01*
X41547Y80452D01*
X41632Y80424D01*
X41715Y80391D01*
X41797Y80355D01*
X41877Y80316D01*
X41955Y80273D01*
X42031Y80227D01*
X42106Y80177D01*
X42178Y80124D01*
X42247Y80068D01*
X42314Y80009D01*
X42379Y79948D01*
X42440Y79883D01*
X42499Y79816D01*
X42555Y79747D01*
X42608Y79675D01*
X42658Y79600D01*
X42704Y79524D01*
X42747Y79446D01*
X42786Y79366D01*
X42822Y79284D01*
X42855Y79201D01*
X42883Y79116D01*
X42908Y79031D01*
X42930Y78944D01*
X42947Y78856D01*
X42960Y78768D01*
X42970Y78679D01*
X42976Y78590D01*
X42978Y78501D01*
X42976Y78412D01*
X42970Y78323D01*
X42960Y78234D01*
X42947Y78146D01*
X42930Y78058D01*
X42908Y77971D01*
X42883Y77886D01*
X42855Y77801D01*
X42822Y77718D01*
X42786Y77636D01*
X42747Y77556D01*
X42704Y77478D01*
X42658Y77402D01*
X42608Y77327D01*
X42555Y77255D01*
X42499Y77186D01*
X42440Y77119D01*
X42379Y77054D01*
X42314Y76993D01*
X42247Y76934D01*
X42178Y76878D01*
X42106Y76825D01*
X42031Y76775D01*
X41955Y76729D01*
X41877Y76686D01*
X41797Y76647D01*
X41715Y76611D01*
X41632Y76578D01*
X41547Y76550D01*
X41462Y76525D01*
X41375Y76503D01*
X41287Y76486D01*
X41199Y76473D01*
X41110Y76463D01*
X41021Y76457D01*
X40932Y76455D01*
X38886Y76455D01*
X45839Y74818D02*
X47476Y80547D01*
X45839Y74818D02*
X49932Y74818D01*
X48704Y76455D02*
X48704Y73181D01*
D16*
X199808Y236508D02*
X211492Y236508D01*
X199808Y236508D02*
X199808Y239754D01*
X199810Y239867D01*
X199816Y239980D01*
X199826Y240093D01*
X199840Y240206D01*
X199857Y240318D01*
X199879Y240429D01*
X199904Y240539D01*
X199934Y240649D01*
X199967Y240757D01*
X200004Y240864D01*
X200044Y240970D01*
X200089Y241074D01*
X200137Y241177D01*
X200188Y241278D01*
X200243Y241377D01*
X200301Y241474D01*
X200363Y241569D01*
X200428Y241662D01*
X200496Y241752D01*
X200567Y241840D01*
X200642Y241926D01*
X200719Y242009D01*
X200799Y242089D01*
X200882Y242166D01*
X200968Y242241D01*
X201056Y242312D01*
X201146Y242380D01*
X201239Y242445D01*
X201334Y242507D01*
X201431Y242565D01*
X201530Y242620D01*
X201631Y242671D01*
X201734Y242719D01*
X201838Y242764D01*
X201944Y242804D01*
X202051Y242841D01*
X202159Y242874D01*
X202269Y242904D01*
X202379Y242929D01*
X202490Y242951D01*
X202602Y242968D01*
X202715Y242982D01*
X202828Y242992D01*
X202941Y242998D01*
X203054Y243000D01*
X203167Y242998D01*
X203280Y242992D01*
X203393Y242982D01*
X203506Y242968D01*
X203618Y242951D01*
X203729Y242929D01*
X203839Y242904D01*
X203949Y242874D01*
X204057Y242841D01*
X204164Y242804D01*
X204270Y242764D01*
X204374Y242719D01*
X204477Y242671D01*
X204578Y242620D01*
X204677Y242565D01*
X204774Y242507D01*
X204869Y242445D01*
X204962Y242380D01*
X205052Y242312D01*
X205140Y242241D01*
X205226Y242166D01*
X205309Y242089D01*
X205389Y242009D01*
X205466Y241926D01*
X205541Y241840D01*
X205612Y241752D01*
X205680Y241662D01*
X205745Y241569D01*
X205807Y241474D01*
X205865Y241377D01*
X205920Y241278D01*
X205971Y241177D01*
X206019Y241074D01*
X206064Y240970D01*
X206104Y240864D01*
X206141Y240757D01*
X206174Y240649D01*
X206204Y240539D01*
X206229Y240429D01*
X206251Y240318D01*
X206268Y240206D01*
X206282Y240093D01*
X206292Y239980D01*
X206298Y239867D01*
X206300Y239754D01*
X206299Y239754D02*
X206299Y236508D01*
X211492Y246739D02*
X199808Y250633D01*
X211492Y254528D01*
X208571Y253554D02*
X208571Y247712D01*
X211492Y259199D02*
X199808Y259199D01*
X199808Y262444D01*
X199810Y262557D01*
X199816Y262670D01*
X199826Y262783D01*
X199840Y262896D01*
X199857Y263008D01*
X199879Y263119D01*
X199904Y263229D01*
X199934Y263339D01*
X199967Y263447D01*
X200004Y263554D01*
X200044Y263660D01*
X200089Y263764D01*
X200137Y263867D01*
X200188Y263968D01*
X200243Y264067D01*
X200301Y264164D01*
X200363Y264259D01*
X200428Y264352D01*
X200496Y264442D01*
X200567Y264530D01*
X200642Y264616D01*
X200719Y264699D01*
X200799Y264779D01*
X200882Y264856D01*
X200968Y264931D01*
X201056Y265002D01*
X201146Y265070D01*
X201239Y265135D01*
X201334Y265197D01*
X201431Y265255D01*
X201530Y265310D01*
X201631Y265361D01*
X201734Y265409D01*
X201838Y265454D01*
X201944Y265494D01*
X202051Y265531D01*
X202159Y265564D01*
X202269Y265594D01*
X202379Y265619D01*
X202490Y265641D01*
X202602Y265658D01*
X202715Y265672D01*
X202828Y265682D01*
X202941Y265688D01*
X203054Y265690D01*
X208246Y265690D01*
X208359Y265688D01*
X208472Y265682D01*
X208585Y265672D01*
X208698Y265658D01*
X208810Y265641D01*
X208921Y265619D01*
X209031Y265594D01*
X209141Y265564D01*
X209249Y265531D01*
X209356Y265494D01*
X209462Y265454D01*
X209566Y265409D01*
X209669Y265361D01*
X209770Y265310D01*
X209869Y265255D01*
X209966Y265197D01*
X210061Y265135D01*
X210154Y265070D01*
X210244Y265002D01*
X210332Y264931D01*
X210418Y264856D01*
X210501Y264779D01*
X210581Y264699D01*
X210658Y264616D01*
X210733Y264530D01*
X210804Y264442D01*
X210872Y264352D01*
X210937Y264259D01*
X210999Y264164D01*
X211057Y264067D01*
X211112Y263968D01*
X211163Y263867D01*
X211211Y263764D01*
X211256Y263660D01*
X211296Y263554D01*
X211333Y263447D01*
X211366Y263339D01*
X211396Y263229D01*
X211421Y263119D01*
X211443Y263008D01*
X211460Y262896D01*
X211474Y262783D01*
X211484Y262670D01*
X211490Y262557D01*
X211492Y262444D01*
X211492Y259199D01*
X202404Y271010D02*
X199808Y274255D01*
X211492Y274255D01*
X211492Y271010D02*
X211492Y277501D01*
X41492Y236508D02*
X29808Y236508D01*
X29808Y239754D01*
X29810Y239867D01*
X29816Y239980D01*
X29826Y240093D01*
X29840Y240206D01*
X29857Y240318D01*
X29879Y240429D01*
X29904Y240539D01*
X29934Y240649D01*
X29967Y240757D01*
X30004Y240864D01*
X30044Y240970D01*
X30089Y241074D01*
X30137Y241177D01*
X30188Y241278D01*
X30243Y241377D01*
X30301Y241474D01*
X30363Y241569D01*
X30428Y241662D01*
X30496Y241752D01*
X30567Y241840D01*
X30642Y241926D01*
X30719Y242009D01*
X30799Y242089D01*
X30882Y242166D01*
X30968Y242241D01*
X31056Y242312D01*
X31146Y242380D01*
X31239Y242445D01*
X31334Y242507D01*
X31431Y242565D01*
X31530Y242620D01*
X31631Y242671D01*
X31734Y242719D01*
X31838Y242764D01*
X31944Y242804D01*
X32051Y242841D01*
X32159Y242874D01*
X32269Y242904D01*
X32379Y242929D01*
X32490Y242951D01*
X32602Y242968D01*
X32715Y242982D01*
X32828Y242992D01*
X32941Y242998D01*
X33054Y243000D01*
X33167Y242998D01*
X33280Y242992D01*
X33393Y242982D01*
X33506Y242968D01*
X33618Y242951D01*
X33729Y242929D01*
X33839Y242904D01*
X33949Y242874D01*
X34057Y242841D01*
X34164Y242804D01*
X34270Y242764D01*
X34374Y242719D01*
X34477Y242671D01*
X34578Y242620D01*
X34677Y242565D01*
X34774Y242507D01*
X34869Y242445D01*
X34962Y242380D01*
X35052Y242312D01*
X35140Y242241D01*
X35226Y242166D01*
X35309Y242089D01*
X35389Y242009D01*
X35466Y241926D01*
X35541Y241840D01*
X35612Y241752D01*
X35680Y241662D01*
X35745Y241569D01*
X35807Y241474D01*
X35865Y241377D01*
X35920Y241278D01*
X35971Y241177D01*
X36019Y241074D01*
X36064Y240970D01*
X36104Y240864D01*
X36141Y240757D01*
X36174Y240649D01*
X36204Y240539D01*
X36229Y240429D01*
X36251Y240318D01*
X36268Y240206D01*
X36282Y240093D01*
X36292Y239980D01*
X36298Y239867D01*
X36300Y239754D01*
X36299Y239754D02*
X36299Y236508D01*
X41492Y246739D02*
X29808Y250633D01*
X41492Y254528D01*
X38571Y253554D02*
X38571Y247712D01*
X41492Y259199D02*
X29808Y259199D01*
X29808Y262444D01*
X29810Y262557D01*
X29816Y262670D01*
X29826Y262783D01*
X29840Y262896D01*
X29857Y263008D01*
X29879Y263119D01*
X29904Y263229D01*
X29934Y263339D01*
X29967Y263447D01*
X30004Y263554D01*
X30044Y263660D01*
X30089Y263764D01*
X30137Y263867D01*
X30188Y263968D01*
X30243Y264067D01*
X30301Y264164D01*
X30363Y264259D01*
X30428Y264352D01*
X30496Y264442D01*
X30567Y264530D01*
X30642Y264616D01*
X30719Y264699D01*
X30799Y264779D01*
X30882Y264856D01*
X30968Y264931D01*
X31056Y265002D01*
X31146Y265070D01*
X31239Y265135D01*
X31334Y265197D01*
X31431Y265255D01*
X31530Y265310D01*
X31631Y265361D01*
X31734Y265409D01*
X31838Y265454D01*
X31944Y265494D01*
X32051Y265531D01*
X32159Y265564D01*
X32269Y265594D01*
X32379Y265619D01*
X32490Y265641D01*
X32602Y265658D01*
X32715Y265672D01*
X32828Y265682D01*
X32941Y265688D01*
X33054Y265690D01*
X38246Y265690D01*
X38359Y265688D01*
X38472Y265682D01*
X38585Y265672D01*
X38698Y265658D01*
X38810Y265641D01*
X38921Y265619D01*
X39031Y265594D01*
X39141Y265564D01*
X39249Y265531D01*
X39356Y265494D01*
X39462Y265454D01*
X39566Y265409D01*
X39669Y265361D01*
X39770Y265310D01*
X39869Y265255D01*
X39966Y265197D01*
X40061Y265135D01*
X40154Y265070D01*
X40244Y265002D01*
X40332Y264931D01*
X40418Y264856D01*
X40501Y264779D01*
X40581Y264699D01*
X40658Y264616D01*
X40733Y264530D01*
X40804Y264442D01*
X40872Y264352D01*
X40937Y264259D01*
X40999Y264164D01*
X41057Y264067D01*
X41112Y263968D01*
X41163Y263867D01*
X41211Y263764D01*
X41256Y263660D01*
X41296Y263554D01*
X41333Y263447D01*
X41366Y263339D01*
X41396Y263229D01*
X41421Y263119D01*
X41443Y263008D01*
X41460Y262896D01*
X41474Y262783D01*
X41484Y262670D01*
X41490Y262557D01*
X41492Y262444D01*
X41492Y259199D01*
X29808Y274580D02*
X29810Y274687D01*
X29816Y274793D01*
X29826Y274899D01*
X29839Y275005D01*
X29857Y275111D01*
X29878Y275215D01*
X29903Y275319D01*
X29932Y275422D01*
X29964Y275523D01*
X30001Y275623D01*
X30041Y275722D01*
X30084Y275820D01*
X30131Y275916D01*
X30182Y276010D01*
X30236Y276102D01*
X30293Y276192D01*
X30353Y276280D01*
X30417Y276365D01*
X30484Y276448D01*
X30554Y276529D01*
X30626Y276607D01*
X30702Y276683D01*
X30780Y276755D01*
X30861Y276825D01*
X30944Y276892D01*
X31029Y276956D01*
X31117Y277016D01*
X31207Y277073D01*
X31299Y277127D01*
X31393Y277178D01*
X31489Y277225D01*
X31587Y277268D01*
X31686Y277308D01*
X31786Y277345D01*
X31887Y277377D01*
X31990Y277406D01*
X32094Y277431D01*
X32198Y277452D01*
X32304Y277470D01*
X32410Y277483D01*
X32516Y277493D01*
X32622Y277499D01*
X32729Y277501D01*
X29808Y274580D02*
X29810Y274459D01*
X29816Y274338D01*
X29826Y274218D01*
X29839Y274097D01*
X29857Y273978D01*
X29878Y273858D01*
X29903Y273740D01*
X29932Y273623D01*
X29965Y273506D01*
X30001Y273391D01*
X30042Y273277D01*
X30085Y273164D01*
X30133Y273052D01*
X30184Y272943D01*
X30239Y272835D01*
X30297Y272728D01*
X30358Y272624D01*
X30423Y272522D01*
X30491Y272422D01*
X30562Y272324D01*
X30636Y272228D01*
X30713Y272135D01*
X30794Y272045D01*
X30877Y271957D01*
X30963Y271872D01*
X31052Y271789D01*
X31143Y271710D01*
X31237Y271633D01*
X31333Y271560D01*
X31431Y271490D01*
X31532Y271423D01*
X31635Y271359D01*
X31740Y271299D01*
X31847Y271241D01*
X31955Y271188D01*
X32065Y271138D01*
X32177Y271092D01*
X32290Y271049D01*
X32405Y271010D01*
X35001Y276526D02*
X34923Y276605D01*
X34843Y276681D01*
X34760Y276754D01*
X34674Y276824D01*
X34587Y276891D01*
X34496Y276955D01*
X34404Y277015D01*
X34310Y277073D01*
X34213Y277127D01*
X34115Y277177D01*
X34015Y277224D01*
X33914Y277268D01*
X33811Y277308D01*
X33706Y277344D01*
X33601Y277376D01*
X33494Y277405D01*
X33387Y277430D01*
X33278Y277452D01*
X33169Y277469D01*
X33060Y277483D01*
X32950Y277492D01*
X32839Y277498D01*
X32729Y277500D01*
X35001Y276527D02*
X41492Y271010D01*
X41492Y277501D01*
D10*
X109748Y110395D02*
X109748Y105569D01*
X109748Y110395D02*
X111089Y110395D01*
X111160Y110393D01*
X111232Y110387D01*
X111302Y110378D01*
X111372Y110365D01*
X111442Y110348D01*
X111510Y110327D01*
X111577Y110303D01*
X111643Y110275D01*
X111707Y110244D01*
X111770Y110209D01*
X111830Y110171D01*
X111889Y110130D01*
X111945Y110086D01*
X111999Y110039D01*
X112050Y109990D01*
X112098Y109937D01*
X112144Y109882D01*
X112186Y109825D01*
X112226Y109765D01*
X112262Y109704D01*
X112295Y109640D01*
X112324Y109575D01*
X112350Y109509D01*
X112373Y109441D01*
X112392Y109372D01*
X112407Y109302D01*
X112418Y109232D01*
X112426Y109161D01*
X112430Y109090D01*
X112430Y109018D01*
X112426Y108947D01*
X112418Y108876D01*
X112407Y108806D01*
X112392Y108736D01*
X112373Y108667D01*
X112350Y108599D01*
X112324Y108533D01*
X112295Y108468D01*
X112262Y108404D01*
X112226Y108343D01*
X112186Y108283D01*
X112144Y108226D01*
X112098Y108171D01*
X112050Y108118D01*
X111999Y108069D01*
X111945Y108022D01*
X111889Y107978D01*
X111830Y107937D01*
X111770Y107899D01*
X111707Y107864D01*
X111643Y107833D01*
X111577Y107805D01*
X111510Y107781D01*
X111442Y107760D01*
X111372Y107743D01*
X111302Y107730D01*
X111232Y107721D01*
X111160Y107715D01*
X111089Y107713D01*
X111089Y107714D02*
X109748Y107714D01*
X111357Y107714D02*
X112429Y105569D01*
X115171Y109859D02*
X115171Y110395D01*
X117852Y110395D01*
X116511Y105569D01*
X107305Y113555D02*
X107305Y118381D01*
X108646Y118381D01*
X108717Y118379D01*
X108789Y118373D01*
X108859Y118364D01*
X108929Y118351D01*
X108999Y118334D01*
X109067Y118313D01*
X109134Y118289D01*
X109200Y118261D01*
X109264Y118230D01*
X109327Y118195D01*
X109387Y118157D01*
X109446Y118116D01*
X109502Y118072D01*
X109556Y118025D01*
X109607Y117976D01*
X109655Y117923D01*
X109701Y117868D01*
X109743Y117811D01*
X109783Y117751D01*
X109819Y117690D01*
X109852Y117626D01*
X109881Y117561D01*
X109907Y117495D01*
X109930Y117427D01*
X109949Y117358D01*
X109964Y117288D01*
X109975Y117218D01*
X109983Y117147D01*
X109987Y117076D01*
X109987Y117004D01*
X109983Y116933D01*
X109975Y116862D01*
X109964Y116792D01*
X109949Y116722D01*
X109930Y116653D01*
X109907Y116585D01*
X109881Y116519D01*
X109852Y116454D01*
X109819Y116390D01*
X109783Y116329D01*
X109743Y116269D01*
X109701Y116212D01*
X109655Y116157D01*
X109607Y116104D01*
X109556Y116055D01*
X109502Y116008D01*
X109446Y115964D01*
X109387Y115923D01*
X109327Y115885D01*
X109264Y115850D01*
X109200Y115819D01*
X109134Y115791D01*
X109067Y115767D01*
X108999Y115746D01*
X108929Y115729D01*
X108859Y115716D01*
X108789Y115707D01*
X108717Y115701D01*
X108646Y115699D01*
X108646Y115700D02*
X107305Y115700D01*
X108914Y115700D02*
X109986Y113555D01*
X112728Y117309D02*
X114068Y118381D01*
X114068Y113555D01*
X112728Y113555D02*
X115409Y113555D01*
X118214Y115968D02*
X118216Y116088D01*
X118221Y116208D01*
X118230Y116328D01*
X118243Y116448D01*
X118259Y116567D01*
X118279Y116686D01*
X118303Y116804D01*
X118330Y116921D01*
X118360Y117037D01*
X118394Y117152D01*
X118432Y117267D01*
X118473Y117380D01*
X118517Y117491D01*
X118565Y117602D01*
X118616Y117711D01*
X118617Y117711D02*
X118638Y117768D01*
X118664Y117824D01*
X118692Y117879D01*
X118724Y117931D01*
X118760Y117982D01*
X118798Y118030D01*
X118839Y118076D01*
X118883Y118119D01*
X118929Y118159D01*
X118978Y118196D01*
X119030Y118230D01*
X119083Y118261D01*
X119138Y118289D01*
X119194Y118313D01*
X119252Y118334D01*
X119311Y118351D01*
X119371Y118364D01*
X119432Y118373D01*
X119494Y118379D01*
X119555Y118381D01*
X119616Y118379D01*
X119678Y118373D01*
X119739Y118364D01*
X119799Y118351D01*
X119858Y118334D01*
X119916Y118313D01*
X119972Y118289D01*
X120027Y118261D01*
X120080Y118230D01*
X120132Y118196D01*
X120181Y118159D01*
X120227Y118119D01*
X120271Y118076D01*
X120312Y118030D01*
X120350Y117982D01*
X120386Y117931D01*
X120418Y117879D01*
X120446Y117824D01*
X120472Y117768D01*
X120493Y117711D01*
X120544Y117602D01*
X120592Y117491D01*
X120636Y117380D01*
X120677Y117267D01*
X120715Y117152D01*
X120749Y117037D01*
X120779Y116921D01*
X120806Y116804D01*
X120830Y116686D01*
X120850Y116567D01*
X120866Y116448D01*
X120879Y116328D01*
X120888Y116208D01*
X120893Y116088D01*
X120895Y115968D01*
X118214Y115968D02*
X118216Y115848D01*
X118221Y115728D01*
X118230Y115608D01*
X118243Y115488D01*
X118259Y115369D01*
X118279Y115250D01*
X118303Y115132D01*
X118330Y115015D01*
X118360Y114899D01*
X118394Y114784D01*
X118432Y114669D01*
X118473Y114556D01*
X118517Y114445D01*
X118565Y114334D01*
X118616Y114225D01*
X118617Y114225D02*
X118638Y114168D01*
X118664Y114112D01*
X118692Y114057D01*
X118724Y114005D01*
X118760Y113954D01*
X118798Y113906D01*
X118839Y113860D01*
X118883Y113817D01*
X118929Y113777D01*
X118978Y113740D01*
X119030Y113706D01*
X119083Y113675D01*
X119138Y113647D01*
X119194Y113623D01*
X119252Y113602D01*
X119311Y113585D01*
X119371Y113572D01*
X119432Y113563D01*
X119494Y113557D01*
X119555Y113555D01*
X120493Y114225D02*
X120544Y114334D01*
X120592Y114445D01*
X120636Y114556D01*
X120677Y114669D01*
X120715Y114784D01*
X120749Y114899D01*
X120779Y115015D01*
X120806Y115132D01*
X120830Y115250D01*
X120850Y115369D01*
X120866Y115488D01*
X120879Y115608D01*
X120888Y115728D01*
X120893Y115848D01*
X120895Y115968D01*
X120493Y114225D02*
X120472Y114168D01*
X120446Y114112D01*
X120418Y114057D01*
X120386Y114005D01*
X120350Y113954D01*
X120312Y113906D01*
X120271Y113860D01*
X120227Y113817D01*
X120180Y113777D01*
X120132Y113740D01*
X120080Y113706D01*
X120027Y113675D01*
X119972Y113647D01*
X119916Y113623D01*
X119858Y113602D01*
X119799Y113585D01*
X119739Y113572D01*
X119678Y113563D01*
X119616Y113557D01*
X119555Y113555D01*
X118482Y114627D02*
X120627Y117309D01*
X23495Y216218D02*
X23495Y225743D01*
X35195Y207645D02*
X35195Y202819D01*
X35195Y207645D02*
X36535Y207645D01*
X36605Y207643D01*
X36675Y207638D01*
X36745Y207628D01*
X36814Y207616D01*
X36882Y207599D01*
X36949Y207579D01*
X37016Y207556D01*
X37080Y207529D01*
X37144Y207499D01*
X37206Y207465D01*
X37265Y207429D01*
X37323Y207389D01*
X37379Y207346D01*
X37432Y207301D01*
X37483Y207252D01*
X37532Y207201D01*
X37577Y207148D01*
X37620Y207092D01*
X37660Y207034D01*
X37696Y206975D01*
X37730Y206913D01*
X37760Y206849D01*
X37787Y206785D01*
X37810Y206718D01*
X37830Y206651D01*
X37847Y206583D01*
X37859Y206514D01*
X37869Y206444D01*
X37874Y206374D01*
X37876Y206304D01*
X37876Y204160D01*
X37874Y204090D01*
X37869Y204020D01*
X37859Y203950D01*
X37847Y203881D01*
X37830Y203813D01*
X37810Y203746D01*
X37787Y203679D01*
X37760Y203615D01*
X37730Y203551D01*
X37696Y203489D01*
X37660Y203430D01*
X37620Y203372D01*
X37577Y203316D01*
X37532Y203263D01*
X37483Y203212D01*
X37432Y203163D01*
X37379Y203118D01*
X37323Y203075D01*
X37265Y203035D01*
X37205Y202999D01*
X37144Y202965D01*
X37080Y202935D01*
X37016Y202908D01*
X36949Y202885D01*
X36882Y202865D01*
X36814Y202848D01*
X36745Y202836D01*
X36675Y202826D01*
X36605Y202821D01*
X36535Y202819D01*
X35195Y202819D01*
X40864Y206573D02*
X42205Y207645D01*
X42205Y202819D01*
X43545Y202819D02*
X40864Y202819D01*
X23495Y201613D02*
X23495Y192088D01*
X35195Y183515D02*
X35195Y178689D01*
X35195Y183515D02*
X36535Y183515D01*
X36605Y183513D01*
X36675Y183508D01*
X36745Y183498D01*
X36814Y183486D01*
X36882Y183469D01*
X36949Y183449D01*
X37016Y183426D01*
X37080Y183399D01*
X37144Y183369D01*
X37206Y183335D01*
X37265Y183299D01*
X37323Y183259D01*
X37379Y183216D01*
X37432Y183171D01*
X37483Y183122D01*
X37532Y183071D01*
X37577Y183018D01*
X37620Y182962D01*
X37660Y182904D01*
X37696Y182845D01*
X37730Y182783D01*
X37760Y182719D01*
X37787Y182655D01*
X37810Y182588D01*
X37830Y182521D01*
X37847Y182453D01*
X37859Y182384D01*
X37869Y182314D01*
X37874Y182244D01*
X37876Y182174D01*
X37876Y180030D01*
X37874Y179960D01*
X37869Y179890D01*
X37859Y179820D01*
X37847Y179751D01*
X37830Y179683D01*
X37810Y179616D01*
X37787Y179549D01*
X37760Y179485D01*
X37730Y179421D01*
X37696Y179359D01*
X37660Y179300D01*
X37620Y179242D01*
X37577Y179186D01*
X37532Y179133D01*
X37483Y179082D01*
X37432Y179033D01*
X37379Y178988D01*
X37323Y178945D01*
X37265Y178905D01*
X37205Y178869D01*
X37144Y178835D01*
X37080Y178805D01*
X37016Y178778D01*
X36949Y178755D01*
X36882Y178735D01*
X36814Y178718D01*
X36745Y178706D01*
X36675Y178696D01*
X36605Y178691D01*
X36535Y178689D01*
X35195Y178689D01*
X42339Y183515D02*
X42407Y183513D01*
X42474Y183507D01*
X42541Y183498D01*
X42608Y183485D01*
X42673Y183468D01*
X42738Y183447D01*
X42801Y183423D01*
X42863Y183395D01*
X42923Y183364D01*
X42981Y183330D01*
X43037Y183292D01*
X43092Y183252D01*
X43143Y183208D01*
X43192Y183161D01*
X43239Y183112D01*
X43283Y183061D01*
X43323Y183006D01*
X43361Y182950D01*
X43395Y182892D01*
X43426Y182832D01*
X43454Y182770D01*
X43478Y182707D01*
X43499Y182642D01*
X43516Y182577D01*
X43529Y182510D01*
X43538Y182443D01*
X43544Y182376D01*
X43546Y182308D01*
X42339Y183515D02*
X42261Y183513D01*
X42183Y183507D01*
X42106Y183497D01*
X42029Y183484D01*
X41953Y183466D01*
X41878Y183445D01*
X41804Y183420D01*
X41732Y183391D01*
X41661Y183359D01*
X41592Y183323D01*
X41524Y183284D01*
X41459Y183241D01*
X41396Y183195D01*
X41335Y183146D01*
X41277Y183094D01*
X41222Y183039D01*
X41169Y182982D01*
X41120Y182922D01*
X41073Y182859D01*
X41030Y182795D01*
X40990Y182728D01*
X40953Y182659D01*
X40920Y182588D01*
X40890Y182516D01*
X40864Y182443D01*
X43143Y181370D02*
X43192Y181419D01*
X43239Y181471D01*
X43282Y181526D01*
X43323Y181583D01*
X43361Y181642D01*
X43395Y181703D01*
X43426Y181766D01*
X43454Y181830D01*
X43478Y181896D01*
X43498Y181962D01*
X43515Y182030D01*
X43528Y182099D01*
X43537Y182168D01*
X43543Y182238D01*
X43545Y182308D01*
X43143Y181370D02*
X40864Y178689D01*
X43545Y178689D01*
X21265Y163298D02*
X16439Y163298D01*
X16439Y164639D01*
X16441Y164710D01*
X16447Y164782D01*
X16456Y164852D01*
X16469Y164922D01*
X16486Y164992D01*
X16507Y165060D01*
X16531Y165127D01*
X16559Y165193D01*
X16590Y165257D01*
X16625Y165320D01*
X16663Y165380D01*
X16704Y165439D01*
X16748Y165495D01*
X16795Y165549D01*
X16844Y165600D01*
X16897Y165648D01*
X16952Y165694D01*
X17009Y165736D01*
X17069Y165776D01*
X17130Y165812D01*
X17194Y165845D01*
X17259Y165874D01*
X17325Y165900D01*
X17393Y165923D01*
X17462Y165942D01*
X17532Y165957D01*
X17602Y165968D01*
X17673Y165976D01*
X17744Y165980D01*
X17816Y165980D01*
X17887Y165976D01*
X17958Y165968D01*
X18028Y165957D01*
X18098Y165942D01*
X18167Y165923D01*
X18235Y165900D01*
X18301Y165874D01*
X18366Y165845D01*
X18430Y165812D01*
X18491Y165776D01*
X18551Y165736D01*
X18608Y165694D01*
X18663Y165648D01*
X18716Y165600D01*
X18765Y165549D01*
X18812Y165495D01*
X18856Y165439D01*
X18897Y165380D01*
X18935Y165320D01*
X18970Y165257D01*
X19001Y165193D01*
X19029Y165127D01*
X19053Y165060D01*
X19074Y164992D01*
X19091Y164922D01*
X19104Y164852D01*
X19113Y164782D01*
X19119Y164710D01*
X19121Y164639D01*
X19120Y164639D02*
X19120Y163298D01*
X19120Y164907D02*
X21265Y165979D01*
X19924Y168720D02*
X19853Y168722D01*
X19781Y168728D01*
X19711Y168737D01*
X19641Y168750D01*
X19571Y168767D01*
X19503Y168788D01*
X19436Y168812D01*
X19370Y168840D01*
X19306Y168871D01*
X19243Y168906D01*
X19183Y168944D01*
X19124Y168985D01*
X19068Y169029D01*
X19014Y169076D01*
X18963Y169125D01*
X18915Y169178D01*
X18869Y169233D01*
X18827Y169290D01*
X18787Y169350D01*
X18751Y169411D01*
X18718Y169475D01*
X18689Y169540D01*
X18663Y169606D01*
X18640Y169674D01*
X18621Y169743D01*
X18606Y169813D01*
X18595Y169883D01*
X18587Y169954D01*
X18583Y170025D01*
X18583Y170097D01*
X18587Y170168D01*
X18595Y170239D01*
X18606Y170309D01*
X18621Y170379D01*
X18640Y170448D01*
X18663Y170516D01*
X18689Y170582D01*
X18718Y170647D01*
X18751Y170711D01*
X18787Y170772D01*
X18827Y170832D01*
X18869Y170889D01*
X18915Y170944D01*
X18963Y170997D01*
X19014Y171046D01*
X19068Y171093D01*
X19124Y171137D01*
X19183Y171178D01*
X19243Y171216D01*
X19306Y171251D01*
X19370Y171282D01*
X19436Y171310D01*
X19503Y171334D01*
X19571Y171355D01*
X19641Y171372D01*
X19711Y171385D01*
X19781Y171394D01*
X19853Y171400D01*
X19924Y171402D01*
X19995Y171400D01*
X20067Y171394D01*
X20137Y171385D01*
X20207Y171372D01*
X20277Y171355D01*
X20345Y171334D01*
X20412Y171310D01*
X20478Y171282D01*
X20542Y171251D01*
X20605Y171216D01*
X20665Y171178D01*
X20724Y171137D01*
X20780Y171093D01*
X20834Y171046D01*
X20885Y170997D01*
X20933Y170944D01*
X20979Y170889D01*
X21021Y170832D01*
X21061Y170772D01*
X21097Y170711D01*
X21130Y170647D01*
X21159Y170582D01*
X21185Y170516D01*
X21208Y170448D01*
X21227Y170379D01*
X21242Y170309D01*
X21253Y170239D01*
X21261Y170168D01*
X21265Y170097D01*
X21265Y170025D01*
X21261Y169954D01*
X21253Y169883D01*
X21242Y169813D01*
X21227Y169743D01*
X21208Y169674D01*
X21185Y169606D01*
X21159Y169540D01*
X21130Y169475D01*
X21097Y169411D01*
X21061Y169350D01*
X21021Y169290D01*
X20979Y169233D01*
X20933Y169178D01*
X20885Y169125D01*
X20834Y169076D01*
X20780Y169029D01*
X20724Y168985D01*
X20665Y168944D01*
X20605Y168906D01*
X20542Y168871D01*
X20478Y168840D01*
X20412Y168812D01*
X20345Y168788D01*
X20277Y168767D01*
X20207Y168750D01*
X20137Y168737D01*
X20067Y168728D01*
X19995Y168722D01*
X19924Y168720D01*
X17511Y168989D02*
X17446Y168991D01*
X17382Y168997D01*
X17318Y169007D01*
X17254Y169020D01*
X17192Y169038D01*
X17131Y169059D01*
X17071Y169083D01*
X17013Y169112D01*
X16956Y169144D01*
X16902Y169179D01*
X16850Y169217D01*
X16800Y169259D01*
X16753Y169303D01*
X16709Y169350D01*
X16667Y169400D01*
X16629Y169452D01*
X16594Y169506D01*
X16562Y169563D01*
X16533Y169621D01*
X16509Y169681D01*
X16488Y169742D01*
X16470Y169804D01*
X16457Y169868D01*
X16447Y169932D01*
X16441Y169996D01*
X16439Y170061D01*
X16441Y170126D01*
X16447Y170190D01*
X16457Y170254D01*
X16470Y170318D01*
X16488Y170380D01*
X16509Y170441D01*
X16533Y170501D01*
X16562Y170559D01*
X16594Y170616D01*
X16629Y170670D01*
X16667Y170722D01*
X16709Y170772D01*
X16753Y170819D01*
X16800Y170863D01*
X16850Y170905D01*
X16902Y170943D01*
X16956Y170978D01*
X17013Y171010D01*
X17071Y171039D01*
X17131Y171063D01*
X17192Y171084D01*
X17254Y171102D01*
X17318Y171115D01*
X17382Y171125D01*
X17446Y171131D01*
X17511Y171133D01*
X17576Y171131D01*
X17640Y171125D01*
X17704Y171115D01*
X17768Y171102D01*
X17830Y171084D01*
X17891Y171063D01*
X17951Y171039D01*
X18009Y171010D01*
X18066Y170978D01*
X18120Y170943D01*
X18172Y170905D01*
X18222Y170863D01*
X18269Y170819D01*
X18313Y170772D01*
X18355Y170722D01*
X18393Y170670D01*
X18428Y170616D01*
X18460Y170559D01*
X18489Y170501D01*
X18513Y170441D01*
X18534Y170380D01*
X18552Y170318D01*
X18565Y170254D01*
X18575Y170190D01*
X18581Y170126D01*
X18583Y170061D01*
X18581Y169996D01*
X18575Y169932D01*
X18565Y169868D01*
X18552Y169804D01*
X18534Y169742D01*
X18513Y169681D01*
X18489Y169621D01*
X18460Y169563D01*
X18428Y169506D01*
X18393Y169452D01*
X18355Y169400D01*
X18313Y169350D01*
X18269Y169303D01*
X18222Y169259D01*
X18172Y169217D01*
X18120Y169179D01*
X18066Y169144D01*
X18009Y169112D01*
X17951Y169083D01*
X17891Y169059D01*
X17830Y169038D01*
X17768Y169020D01*
X17704Y169007D01*
X17640Y168997D01*
X17576Y168991D01*
X17511Y168989D01*
X33369Y162848D02*
X38195Y162848D01*
X33369Y162848D02*
X33369Y164189D01*
X33371Y164260D01*
X33377Y164332D01*
X33386Y164402D01*
X33399Y164472D01*
X33416Y164542D01*
X33437Y164610D01*
X33461Y164677D01*
X33489Y164743D01*
X33520Y164807D01*
X33555Y164870D01*
X33593Y164930D01*
X33634Y164989D01*
X33678Y165045D01*
X33725Y165099D01*
X33774Y165150D01*
X33827Y165198D01*
X33882Y165244D01*
X33939Y165286D01*
X33999Y165326D01*
X34060Y165362D01*
X34124Y165395D01*
X34189Y165424D01*
X34255Y165450D01*
X34323Y165473D01*
X34392Y165492D01*
X34462Y165507D01*
X34532Y165518D01*
X34603Y165526D01*
X34674Y165530D01*
X34746Y165530D01*
X34817Y165526D01*
X34888Y165518D01*
X34958Y165507D01*
X35028Y165492D01*
X35097Y165473D01*
X35165Y165450D01*
X35231Y165424D01*
X35296Y165395D01*
X35360Y165362D01*
X35421Y165326D01*
X35481Y165286D01*
X35538Y165244D01*
X35593Y165198D01*
X35646Y165150D01*
X35695Y165099D01*
X35742Y165045D01*
X35786Y164989D01*
X35827Y164930D01*
X35865Y164870D01*
X35900Y164807D01*
X35931Y164743D01*
X35959Y164677D01*
X35983Y164610D01*
X36004Y164542D01*
X36021Y164472D01*
X36034Y164402D01*
X36043Y164332D01*
X36049Y164260D01*
X36051Y164189D01*
X36050Y164189D02*
X36050Y162848D01*
X36050Y164457D02*
X38195Y165529D01*
X36050Y169343D02*
X36050Y170952D01*
X36050Y169343D02*
X36048Y169278D01*
X36042Y169214D01*
X36032Y169150D01*
X36019Y169086D01*
X36001Y169024D01*
X35980Y168963D01*
X35956Y168903D01*
X35927Y168845D01*
X35895Y168788D01*
X35860Y168734D01*
X35822Y168682D01*
X35780Y168632D01*
X35736Y168585D01*
X35689Y168541D01*
X35639Y168499D01*
X35587Y168461D01*
X35533Y168426D01*
X35476Y168394D01*
X35418Y168365D01*
X35358Y168341D01*
X35297Y168320D01*
X35235Y168302D01*
X35171Y168289D01*
X35107Y168279D01*
X35043Y168273D01*
X34978Y168271D01*
X34710Y168271D01*
X34710Y168270D02*
X34639Y168272D01*
X34567Y168278D01*
X34497Y168287D01*
X34427Y168300D01*
X34357Y168317D01*
X34289Y168338D01*
X34222Y168362D01*
X34156Y168390D01*
X34092Y168421D01*
X34029Y168456D01*
X33969Y168494D01*
X33910Y168535D01*
X33854Y168579D01*
X33800Y168626D01*
X33749Y168675D01*
X33701Y168728D01*
X33655Y168783D01*
X33613Y168840D01*
X33573Y168900D01*
X33537Y168961D01*
X33504Y169025D01*
X33475Y169090D01*
X33449Y169156D01*
X33426Y169224D01*
X33407Y169293D01*
X33392Y169363D01*
X33381Y169433D01*
X33373Y169504D01*
X33369Y169575D01*
X33369Y169647D01*
X33373Y169718D01*
X33381Y169789D01*
X33392Y169859D01*
X33407Y169929D01*
X33426Y169998D01*
X33449Y170066D01*
X33475Y170132D01*
X33504Y170197D01*
X33537Y170261D01*
X33573Y170322D01*
X33613Y170382D01*
X33655Y170439D01*
X33701Y170494D01*
X33749Y170547D01*
X33800Y170596D01*
X33854Y170643D01*
X33910Y170687D01*
X33969Y170728D01*
X34029Y170766D01*
X34092Y170801D01*
X34156Y170832D01*
X34222Y170860D01*
X34289Y170884D01*
X34357Y170905D01*
X34427Y170922D01*
X34497Y170935D01*
X34567Y170944D01*
X34639Y170950D01*
X34710Y170952D01*
X36050Y170952D01*
X36141Y170950D01*
X36232Y170944D01*
X36322Y170935D01*
X36413Y170921D01*
X36502Y170904D01*
X36590Y170883D01*
X36678Y170858D01*
X36765Y170829D01*
X36850Y170797D01*
X36934Y170762D01*
X37016Y170722D01*
X37096Y170680D01*
X37175Y170634D01*
X37251Y170584D01*
X37325Y170532D01*
X37398Y170476D01*
X37467Y170417D01*
X37534Y170356D01*
X37599Y170291D01*
X37660Y170224D01*
X37719Y170155D01*
X37775Y170082D01*
X37827Y170008D01*
X37877Y169932D01*
X37923Y169853D01*
X37965Y169773D01*
X38005Y169691D01*
X38040Y169607D01*
X38072Y169522D01*
X38101Y169435D01*
X38126Y169347D01*
X38147Y169259D01*
X38164Y169170D01*
X38178Y169079D01*
X38187Y168989D01*
X38193Y168898D01*
X38195Y168807D01*
D17*
X154227Y141223D02*
X154229Y141349D01*
X154235Y141475D01*
X154245Y141601D01*
X154259Y141726D01*
X154276Y141851D01*
X154298Y141976D01*
X154324Y142099D01*
X154353Y142222D01*
X154386Y142343D01*
X154424Y142464D01*
X154464Y142583D01*
X154509Y142701D01*
X154557Y142818D01*
X154609Y142933D01*
X154665Y143046D01*
X154724Y143158D01*
X154786Y143267D01*
X154852Y143375D01*
X154921Y143480D01*
X154994Y143584D01*
X155070Y143684D01*
X155149Y143783D01*
X155231Y143879D01*
X155315Y143972D01*
X155403Y144063D01*
X155494Y144151D01*
X155587Y144235D01*
X155683Y144317D01*
X155782Y144396D01*
X155882Y144472D01*
X155986Y144545D01*
X156091Y144614D01*
X156199Y144680D01*
X156308Y144742D01*
X156420Y144801D01*
X156533Y144857D01*
X156648Y144909D01*
X156765Y144957D01*
X156883Y145002D01*
X157002Y145042D01*
X157123Y145080D01*
X157244Y145113D01*
X157367Y145142D01*
X157490Y145168D01*
X157615Y145190D01*
X157740Y145207D01*
X157865Y145221D01*
X157991Y145231D01*
X158117Y145237D01*
X158243Y145239D01*
X158369Y145237D01*
X158495Y145231D01*
X158621Y145221D01*
X158746Y145207D01*
X158871Y145190D01*
X158996Y145168D01*
X159119Y145142D01*
X159242Y145113D01*
X159363Y145080D01*
X159484Y145042D01*
X159603Y145002D01*
X159721Y144957D01*
X159838Y144909D01*
X159953Y144857D01*
X160066Y144801D01*
X160178Y144742D01*
X160287Y144680D01*
X160395Y144614D01*
X160500Y144545D01*
X160604Y144472D01*
X160704Y144396D01*
X160803Y144317D01*
X160899Y144235D01*
X160992Y144151D01*
X161083Y144063D01*
X161171Y143972D01*
X161255Y143879D01*
X161337Y143783D01*
X161416Y143684D01*
X161492Y143584D01*
X161565Y143480D01*
X161634Y143375D01*
X161700Y143267D01*
X161762Y143158D01*
X161821Y143046D01*
X161877Y142933D01*
X161929Y142818D01*
X161977Y142701D01*
X162022Y142583D01*
X162062Y142464D01*
X162100Y142343D01*
X162133Y142222D01*
X162162Y142099D01*
X162188Y141976D01*
X162210Y141851D01*
X162227Y141726D01*
X162241Y141601D01*
X162251Y141475D01*
X162257Y141349D01*
X162259Y141223D01*
X162257Y141097D01*
X162251Y140971D01*
X162241Y140845D01*
X162227Y140720D01*
X162210Y140595D01*
X162188Y140470D01*
X162162Y140347D01*
X162133Y140224D01*
X162100Y140103D01*
X162062Y139982D01*
X162022Y139863D01*
X161977Y139745D01*
X161929Y139628D01*
X161877Y139513D01*
X161821Y139400D01*
X161762Y139288D01*
X161700Y139179D01*
X161634Y139071D01*
X161565Y138966D01*
X161492Y138862D01*
X161416Y138762D01*
X161337Y138663D01*
X161255Y138567D01*
X161171Y138474D01*
X161083Y138383D01*
X160992Y138295D01*
X160899Y138211D01*
X160803Y138129D01*
X160704Y138050D01*
X160604Y137974D01*
X160500Y137901D01*
X160395Y137832D01*
X160287Y137766D01*
X160178Y137704D01*
X160066Y137645D01*
X159953Y137589D01*
X159838Y137537D01*
X159721Y137489D01*
X159603Y137444D01*
X159484Y137404D01*
X159363Y137366D01*
X159242Y137333D01*
X159119Y137304D01*
X158996Y137278D01*
X158871Y137256D01*
X158746Y137239D01*
X158621Y137225D01*
X158495Y137215D01*
X158369Y137209D01*
X158243Y137207D01*
X158117Y137209D01*
X157991Y137215D01*
X157865Y137225D01*
X157740Y137239D01*
X157615Y137256D01*
X157490Y137278D01*
X157367Y137304D01*
X157244Y137333D01*
X157123Y137366D01*
X157002Y137404D01*
X156883Y137444D01*
X156765Y137489D01*
X156648Y137537D01*
X156533Y137589D01*
X156420Y137645D01*
X156308Y137704D01*
X156199Y137766D01*
X156091Y137832D01*
X155986Y137901D01*
X155882Y137974D01*
X155782Y138050D01*
X155683Y138129D01*
X155587Y138211D01*
X155494Y138295D01*
X155403Y138383D01*
X155315Y138474D01*
X155231Y138567D01*
X155149Y138663D01*
X155070Y138762D01*
X154994Y138862D01*
X154921Y138966D01*
X154852Y139071D01*
X154786Y139179D01*
X154724Y139288D01*
X154665Y139400D01*
X154609Y139513D01*
X154557Y139628D01*
X154509Y139745D01*
X154464Y139863D01*
X154424Y139982D01*
X154386Y140103D01*
X154353Y140224D01*
X154324Y140347D01*
X154298Y140470D01*
X154276Y140595D01*
X154259Y140720D01*
X154245Y140845D01*
X154235Y140971D01*
X154229Y141097D01*
X154227Y141223D01*
D16*
X141830Y144243D02*
X130146Y148138D01*
X141830Y152032D01*
X138909Y151059D02*
X138909Y145217D01*
X141830Y158806D02*
X130146Y158806D01*
X130146Y162051D02*
X130146Y155560D01*
X130146Y168712D02*
X141830Y168712D01*
X130146Y165466D02*
X130146Y171957D01*
X130146Y177094D02*
X141830Y177094D01*
X141830Y178392D02*
X141830Y175795D01*
X130146Y175795D02*
X130146Y178392D01*
X130146Y183373D02*
X141830Y183373D01*
X141830Y189864D02*
X130146Y183373D01*
X130146Y189864D02*
X141830Y189864D01*
X135663Y198430D02*
X130146Y194535D01*
X135663Y198430D02*
X130146Y202324D01*
X135663Y198430D02*
X141830Y198430D01*
X139234Y206614D02*
X130146Y209210D01*
X139234Y206614D02*
X139234Y213105D01*
X136637Y211158D02*
X141830Y211158D01*
X141830Y218044D02*
X141830Y221939D01*
X141828Y222038D01*
X141822Y222138D01*
X141813Y222237D01*
X141800Y222335D01*
X141783Y222433D01*
X141762Y222531D01*
X141737Y222627D01*
X141709Y222722D01*
X141677Y222816D01*
X141642Y222909D01*
X141603Y223001D01*
X141560Y223091D01*
X141515Y223179D01*
X141465Y223266D01*
X141413Y223350D01*
X141357Y223433D01*
X141299Y223513D01*
X141237Y223591D01*
X141172Y223666D01*
X141104Y223739D01*
X141034Y223809D01*
X140961Y223877D01*
X140886Y223942D01*
X140808Y224004D01*
X140728Y224062D01*
X140645Y224118D01*
X140561Y224170D01*
X140474Y224220D01*
X140386Y224265D01*
X140296Y224308D01*
X140204Y224347D01*
X140111Y224382D01*
X140017Y224414D01*
X139922Y224442D01*
X139826Y224467D01*
X139728Y224488D01*
X139630Y224505D01*
X139532Y224518D01*
X139433Y224527D01*
X139333Y224533D01*
X139234Y224535D01*
X137935Y224535D01*
X137836Y224533D01*
X137736Y224527D01*
X137637Y224518D01*
X137539Y224505D01*
X137441Y224488D01*
X137343Y224467D01*
X137247Y224442D01*
X137152Y224414D01*
X137058Y224382D01*
X136965Y224347D01*
X136873Y224308D01*
X136783Y224265D01*
X136695Y224220D01*
X136608Y224170D01*
X136524Y224118D01*
X136441Y224062D01*
X136361Y224004D01*
X136283Y223942D01*
X136208Y223877D01*
X136135Y223809D01*
X136065Y223739D01*
X135997Y223666D01*
X135932Y223591D01*
X135870Y223513D01*
X135812Y223433D01*
X135756Y223350D01*
X135704Y223266D01*
X135654Y223179D01*
X135609Y223091D01*
X135566Y223001D01*
X135527Y222909D01*
X135492Y222816D01*
X135460Y222722D01*
X135432Y222627D01*
X135407Y222531D01*
X135386Y222433D01*
X135369Y222335D01*
X135356Y222237D01*
X135347Y222138D01*
X135341Y222038D01*
X135339Y221939D01*
X135339Y218044D01*
X130146Y218044D01*
X130146Y224535D01*
D17*
X96900Y133403D02*
X173100Y133403D01*
X96900Y133403D02*
X96900Y234403D01*
X173100Y234403D01*
X173100Y232625D02*
X173100Y133403D01*
D10*
X46124Y98255D02*
X45052Y98255D01*
X44987Y98257D01*
X44923Y98263D01*
X44859Y98273D01*
X44795Y98286D01*
X44733Y98304D01*
X44672Y98325D01*
X44612Y98349D01*
X44554Y98378D01*
X44497Y98410D01*
X44443Y98445D01*
X44391Y98483D01*
X44341Y98525D01*
X44294Y98569D01*
X44250Y98616D01*
X44208Y98666D01*
X44170Y98718D01*
X44135Y98772D01*
X44103Y98829D01*
X44074Y98887D01*
X44050Y98947D01*
X44029Y99008D01*
X44011Y99070D01*
X43998Y99134D01*
X43988Y99198D01*
X43982Y99262D01*
X43980Y99327D01*
X43979Y99327D02*
X43979Y102009D01*
X43980Y102009D02*
X43982Y102074D01*
X43988Y102138D01*
X43998Y102202D01*
X44011Y102266D01*
X44029Y102328D01*
X44050Y102389D01*
X44074Y102449D01*
X44103Y102507D01*
X44135Y102564D01*
X44170Y102618D01*
X44208Y102670D01*
X44250Y102720D01*
X44294Y102767D01*
X44341Y102811D01*
X44391Y102853D01*
X44443Y102891D01*
X44497Y102926D01*
X44554Y102958D01*
X44612Y102987D01*
X44672Y103011D01*
X44733Y103032D01*
X44795Y103050D01*
X44859Y103063D01*
X44923Y103073D01*
X44987Y103079D01*
X45052Y103081D01*
X46124Y103081D01*
X50054Y103081D02*
X50122Y103079D01*
X50189Y103073D01*
X50256Y103064D01*
X50323Y103051D01*
X50388Y103034D01*
X50453Y103013D01*
X50516Y102989D01*
X50578Y102961D01*
X50638Y102930D01*
X50696Y102896D01*
X50752Y102858D01*
X50807Y102818D01*
X50858Y102774D01*
X50907Y102727D01*
X50954Y102678D01*
X50998Y102627D01*
X51038Y102572D01*
X51076Y102516D01*
X51110Y102458D01*
X51141Y102398D01*
X51169Y102336D01*
X51193Y102273D01*
X51214Y102208D01*
X51231Y102143D01*
X51244Y102076D01*
X51253Y102009D01*
X51259Y101942D01*
X51261Y101874D01*
X50054Y103081D02*
X49976Y103079D01*
X49898Y103073D01*
X49821Y103063D01*
X49744Y103050D01*
X49668Y103032D01*
X49593Y103011D01*
X49519Y102986D01*
X49447Y102957D01*
X49376Y102925D01*
X49307Y102889D01*
X49239Y102850D01*
X49174Y102807D01*
X49111Y102761D01*
X49050Y102712D01*
X48992Y102660D01*
X48937Y102605D01*
X48884Y102548D01*
X48835Y102488D01*
X48788Y102425D01*
X48745Y102361D01*
X48705Y102294D01*
X48668Y102225D01*
X48635Y102154D01*
X48605Y102082D01*
X48579Y102009D01*
X50859Y100936D02*
X50908Y100985D01*
X50955Y101037D01*
X50998Y101092D01*
X51039Y101149D01*
X51077Y101208D01*
X51111Y101269D01*
X51142Y101332D01*
X51170Y101396D01*
X51194Y101462D01*
X51214Y101528D01*
X51231Y101596D01*
X51244Y101665D01*
X51253Y101734D01*
X51259Y101804D01*
X51261Y101874D01*
X50859Y100936D02*
X48580Y98255D01*
X51261Y98255D01*
X38081Y119972D02*
X38081Y121044D01*
X38081Y119972D02*
X38079Y119907D01*
X38073Y119843D01*
X38063Y119779D01*
X38050Y119715D01*
X38032Y119653D01*
X38011Y119592D01*
X37987Y119532D01*
X37958Y119474D01*
X37926Y119417D01*
X37891Y119363D01*
X37853Y119311D01*
X37811Y119261D01*
X37767Y119214D01*
X37720Y119170D01*
X37670Y119128D01*
X37618Y119090D01*
X37564Y119055D01*
X37507Y119023D01*
X37449Y118994D01*
X37389Y118970D01*
X37328Y118949D01*
X37266Y118931D01*
X37202Y118918D01*
X37138Y118908D01*
X37074Y118902D01*
X37009Y118900D01*
X37009Y118899D02*
X34327Y118899D01*
X34262Y118901D01*
X34198Y118907D01*
X34134Y118917D01*
X34070Y118930D01*
X34008Y118948D01*
X33947Y118969D01*
X33887Y118994D01*
X33828Y119022D01*
X33772Y119054D01*
X33717Y119089D01*
X33665Y119127D01*
X33615Y119169D01*
X33568Y119213D01*
X33524Y119260D01*
X33482Y119310D01*
X33444Y119362D01*
X33409Y119417D01*
X33377Y119473D01*
X33349Y119532D01*
X33324Y119591D01*
X33303Y119653D01*
X33285Y119715D01*
X33272Y119779D01*
X33262Y119843D01*
X33256Y119907D01*
X33254Y119972D01*
X33255Y119972D02*
X33255Y121044D01*
X34327Y123500D02*
X33255Y124840D01*
X38081Y124840D01*
X38081Y123500D02*
X38081Y126181D01*
M02*
