G04 EAGLE Gerber RS-274X export*
G75*
%MOMM*%
%FSLAX34Y34*%
%LPD*%
%INSoldermask Top*%
%IPPOS*%
%AMOC8*
5,1,8,0,0,1.08239X$1,22.5*%
G01*
%ADD10R,1.303200X1.203200*%
%ADD11R,1.403200X0.753200*%
%ADD12R,0.503200X1.203200*%
%ADD13R,0.803200X1.203200*%
%ADD14C,0.853200*%
%ADD15R,2.383200X2.203200*%
%ADD16C,5.503200*%
%ADD17C,3.203200*%
%ADD18R,2.743200X5.283200*%
%ADD19C,0.505344*%
%ADD20R,1.203200X1.303200*%
%ADD21R,3.713200X1.203200*%
%ADD22R,1.803200X2.003200*%
%ADD23R,2.003200X1.803200*%


D10*
X248500Y180000D03*
X231500Y180000D03*
X248500Y140000D03*
X231500Y140000D03*
X231500Y220000D03*
X248500Y220000D03*
X231500Y120000D03*
X248500Y120000D03*
X248500Y160000D03*
X231500Y160000D03*
X248500Y200000D03*
X231500Y200000D03*
D11*
X75811Y110370D03*
X75811Y119870D03*
X75811Y129370D03*
X49809Y129370D03*
X49809Y110370D03*
D12*
X142420Y70890D03*
X137420Y70890D03*
D13*
X167170Y70890D03*
X159420Y70890D03*
D12*
X152420Y70890D03*
X147420Y70890D03*
X127420Y70890D03*
X132420Y70890D03*
D13*
X102670Y70890D03*
X110420Y70890D03*
D12*
X117420Y70890D03*
X122420Y70890D03*
D14*
X106020Y59840D03*
X163820Y59840D03*
D15*
X83820Y25620D03*
X83820Y64920D03*
X186020Y64920D03*
X186020Y25620D03*
D16*
X230000Y330000D03*
D17*
X230000Y330000D03*
D16*
X230000Y40000D03*
D17*
X230000Y40000D03*
D16*
X40000Y330000D03*
D17*
X40000Y330000D03*
D16*
X40000Y40000D03*
D17*
X40000Y40000D03*
D18*
X220000Y260000D03*
X50000Y260000D03*
D10*
X122300Y118650D03*
X105300Y118650D03*
X105600Y105300D03*
X122600Y105300D03*
D19*
X34090Y217490D02*
X34090Y224470D01*
X34090Y217490D02*
X27110Y217490D01*
X27110Y224470D01*
X34090Y224470D01*
X34090Y222290D02*
X27110Y222290D01*
X51630Y224470D02*
X51630Y217490D01*
X44650Y217490D01*
X44650Y224470D01*
X51630Y224470D01*
X51630Y222290D02*
X44650Y222290D01*
X34090Y200340D02*
X34090Y193360D01*
X27110Y193360D01*
X27110Y200340D01*
X34090Y200340D01*
X34090Y198160D02*
X27110Y198160D01*
X51630Y200340D02*
X51630Y193360D01*
X44650Y193360D01*
X44650Y200340D01*
X51630Y200340D01*
X51630Y198160D02*
X44650Y198160D01*
D20*
X29520Y158850D03*
X29520Y175850D03*
X46450Y158400D03*
X46450Y175400D03*
D21*
X187428Y222253D03*
X187428Y196853D03*
X187428Y171453D03*
X187428Y146053D03*
X82422Y221703D03*
X82272Y196853D03*
X82272Y171453D03*
X82272Y146053D03*
D22*
X33620Y86190D03*
X61620Y86190D03*
D23*
X23730Y136540D03*
X23730Y108540D03*
M02*
