M48
;GenerationSoftware,Autodesk,EAGLE,9.6.2*%
;CreationDate,2020-08-16T12:09:05Z*%
FMAT,2
ICI,OFF
METRIC,TZ,000.000
T3C0.508
T2C0.650
T1C3.000
%
G90
M71
T1
X23000Y33000
X23000Y4000
X4000Y33000
X4000Y4000
T2
X10602Y5984
X16382Y5984
T3
X19000Y10000
X1500Y7000
X12000Y18000
X9200Y10400
X13000Y3000
X25000Y26000
X6100Y11900
X10500Y29500
X21000Y9000
X25000Y8000
X1500Y15389
X2000Y24000
X9330Y8230
X11000Y14000
X17000Y12500
X14752Y8752
X26000Y17000
M30